<?xml version="1.0" encoding="UTF-8" standalone="no"?>
<!-- Created with Inkscape (http://www.inkscape.org/) -->

<svg
   xmlns:dc="http://purl.org/dc/elements/1.1/"
   xmlns:cc="http://creativecommons.org/ns#"
   xmlns:rdf="http://www.w3.org/1999/02/22-rdf-syntax-ns#"
   xmlns:svg="http://www.w3.org/2000/svg"
   xmlns="http://www.w3.org/2000/svg"
   xmlns:sodipodi="http://sodipodi.sourceforge.net/DTD/sodipodi-0.dtd"
   xmlns:inkscape="http://www.inkscape.org/namespaces/inkscape"
   width="350"
   height="350"
   viewBox="0 0 350 350.00001"
   id="svg15145"
   version="1.1"
   inkscape:version="0.91 r13725"
   sodipodi:docname="beer_root.svg">
  <defs
     id="defs15147" />
  <sodipodi:namedview
     id="base"
     pagecolor="#ffffff"
     bordercolor="#666666"
     borderopacity="1.0"
     inkscape:pageopacity="0.0"
     inkscape:pageshadow="2"
     inkscape:zoom="1.979899"
     inkscape:cx="159.83751"
     inkscape:cy="147.75879"
     inkscape:document-units="px"
     inkscape:current-layer="layer1"
     showgrid="false"
     units="px"
     inkscape:window-width="1920"
     inkscape:window-height="971"
     inkscape:window-x="0"
     inkscape:window-y="31"
     inkscape:window-maximized="1" />
  <metadata
     id="metadata15150">
    <rdf:RDF>
      <cc:Work
         rdf:about="">
        <dc:format>image/svg+xml</dc:format>
        <dc:type
           rdf:resource="http://purl.org/dc/dcmitype/StillImage" />
        <dc:title></dc:title>
      </cc:Work>
    </rdf:RDF>
  </metadata>
  <g
     inkscape:label="Layer 1"
     inkscape:groupmode="layer"
     id="layer1"
     transform="translate(0,-702.36216)">
    <g
       transform="matrix(3.5433071,0,0,3.5433071,-17.209607,687.82031)"
       id="g15092">
      <path
         id="path14990"
         d="M 53.744527,9.3365396 A 44.159077,44.159077 0 0 0 9.5820921,53.492922 44.159077,44.159077 0 0 0 53.744527,97.649303 44.159077,44.159077 0 0 0 97.900845,53.492922 44.159077,44.159077 0 0 0 53.744527,9.3365396 Z m 0,10.2064834 A 33.949542,33.949542 0 0 1 87.694372,53.492922 33.949542,33.949542 0 0 1 53.744527,87.442851 33.949542,33.949542 0 0 1 19.79453,53.492922 33.949542,33.949542 0 0 1 53.744527,19.543023 Z"
         style="fill:#a82722;fill-opacity:1;stroke:#efe6ca;stroke-width:1.08181334;stroke-miterlimit:4;stroke-dasharray:none;stroke-opacity:1"
         inkscape:connector-curvature="0" />
      <circle
         r="33.949543"
         style="fill:#efe6ca;fill-opacity:1;stroke:none;stroke-width:0.02822221;stroke-miterlimit:4;stroke-dasharray:none"
         id="circle14992"
         cx="53.878513"
         cy="53.493092" />
      <path
         inkscape:connector-curvature="0"
         style="fill:#a82722;fill-opacity:1;stroke:none;stroke-width:0.09999996;stroke-miterlimit:4;stroke-dasharray:none"
         d="M 53.879556,9.3365396 A 44.159077,44.159077 0 0 0 9.7172281,53.492922 44.159077,44.159077 0 0 0 53.879556,97.649303 44.159077,44.159077 0 0 0 98.035905,53.492922 44.159077,44.159077 0 0 0 53.879556,9.3365396 Z m 0,10.2064834 A 33.949542,33.949542 0 0 1 87.829423,53.492922 33.949542,33.949542 0 0 1 53.879556,87.442851 33.949542,33.949542 0 0 1 19.929558,53.492922 33.949542,33.949542 0 0 1 53.879556,19.543023 Z"
         id="path14994" />
      <g
         transform="matrix(10.82824,0,0,10.82824,1024.6872,-589.65742)"
         id="g14996"
         style="stroke:#efe6ca;stroke-width:0.13031767;stroke-miterlimit:4;stroke-dasharray:none;stroke-opacity:1">
        <path
           id="path14998"
           d="m -88.828893,60.397759 a 0.72543382,0.72543382 0 0 0 -0.725399,0.725399 0.72543382,0.72543382 0 0 0 0.725399,0.725401 0.72543382,0.72543382 0 0 0 0.725951,-0.725401 0.72543382,0.72543382 0 0 0 -0.725951,-0.725399 z m 0,0.363804 a 0.36170475,0.36170475 0 0 1 0.36215,0.361595 0.36170475,0.36170475 0 0 1 -0.36215,0.3616 0.36170475,0.36170475 0 0 1 -0.361598,-0.3616 0.36170475,0.36170475 0 0 1 0.361598,-0.361595 z"
           style="fill:#000000;stroke:#efe6ca;stroke-width:0.13031767;stroke-miterlimit:4;stroke-dasharray:none;stroke-opacity:1"
           inkscape:connector-curvature="0" />
        <path
           inkscape:connector-curvature="0"
           style="fill:#000000;stroke:#efe6ca;stroke-width:0.13031767;stroke-miterlimit:4;stroke-dasharray:none;stroke-opacity:1"
           d="m -90.363019,60.397759 a 0.72543382,0.72543382 0 0 0 -0.7254,0.725399 0.72543382,0.72543382 0 0 0 0.7254,0.725401 0.72543382,0.72543382 0 0 0 0.72595,-0.725401 0.72543382,0.72543382 0 0 0 -0.72595,-0.725399 z m 0,0.363805 a 0.36170475,0.36170475 0 0 1 0.36215,0.361594 0.36170475,0.36170475 0 0 1 -0.36215,0.3616 0.36170475,0.36170475 0 0 1 -0.3616,-0.3616 0.36170475,0.36170475 0 0 1 0.3616,-0.361594 z"
           id="path15000" />
        <path
           inkscape:connector-curvature="0"
           style="fill:#000000;stroke:#efe6ca;stroke-width:0.46175557;stroke-miterlimit:4;stroke-dasharray:none;stroke-opacity:1"
           d="m -327.34375,214.05859 0,5.07227 1.32031,0 0,-1.26953 0.65821,0.006 c 0.35007,0.0358 0.62846,0.84265 0.94335,1.26367 l 1.57032,0 -1.07813,-1.56445 c 0.26362,-0.20445 0.61017,-0.53272 0.67969,-0.80079 0.11409,-0.44026 0.15022,-1.06931 -0.008,-1.5957 -0.13429,-0.4472 -0.68976,-1.01446 -1.42383,-1.11133 l -2.66211,0 z m 1.32031,1.29297 1.14844,0.006 c 0.24909,0.0231 0.37076,0.16085 0.45898,0.33008 0.0549,0.18833 0.0478,0.36935 0,0.54297 -0.18786,0.39411 -0.32276,0.37108 -0.46875,0.42969 l -1.13867,0 0,-1.3086 z"
           transform="scale(0.28222222,0.28222222)"
           id="path15002" />
        <path
           inkscape:connector-curvature="0"
           id="path15004"
           d="m -88.068767,60.412147 0,0.381968 0.504915,0 0,1.04926 0.394668,0 0,-1.04926 0.518143,0 0,-0.381968 z"
           style="fill:#000000;stroke:#efe6ca;stroke-width:0.13031767;stroke-miterlimit:4;stroke-dasharray:none;stroke-opacity:1" />
      </g>
      <path
         inkscape:connector-curvature="0"
         id="path15006"
         d="m 43.249256,17.80613 -3.33055,0.01191 0,10.576526 3.461896,0 c 0.563068,0 1.46896,-0.677955 1.486176,-1.611534 l 0,-7.389245 c -0.06497,-0.876329 -0.925814,-1.517264 -1.617522,-1.58767 z m -0.358415,1.163895 c 0.350835,0.06606 0.657274,0.223602 0.829443,0.692357 l 0,6.583484 c 0,0.548991 -0.521921,0.996739 -1.086288,0.996739 l -1.563816,0 0,-8.242771 1.820445,-0.03032 z"
         style="fill:#000000;stroke:#efe6ca;stroke-width:0.84666669;stroke-linecap:butt;stroke-miterlimit:4;stroke-dasharray:none;stroke-opacity:1" />
      <path
         id="path15008"
         d="m 62.826605,64.343999 a 7.8551715,7.8551715 0 0 0 -7.854805,7.854794 7.8551715,7.8551715 0 0 0 7.854805,7.854816 7.8551715,7.8551715 0 0 0 7.86076,-7.854816 7.8551715,7.8551715 0 0 0 -7.86076,-7.854794 z m 0,3.939356 a 3.9166258,3.9166258 0 0 1 3.921447,3.915438 3.9166258,3.9166258 0 0 1 -3.921447,3.915491 3.9166258,3.9166258 0 0 1 -3.915492,-3.915491 3.9166258,3.9166258 0 0 1 3.915492,-3.915438 z"
         style="fill:#000000;stroke:none;stroke-width:0.02822222;stroke-miterlimit:4;stroke-dasharray:none"
         inkscape:connector-curvature="0" />
      <path
         style="fill:#969fa9;fill-opacity:1;stroke:none;stroke-width:0.1;stroke-linecap:butt;stroke-linejoin:miter;stroke-miterlimit:4;stroke-dasharray:none;stroke-opacity:1"
         d="m 50.196871,69.936666 c -2.889949,1.02316 -4.634487,2.959736 -5.097286,5.300218 -0.16892,1.222594 0.111531,2.410733 0.912821,3.545382 l 1.617522,1.921926 2.0382,-1.441499 c -0.01088,-0.0061 -0.886833,-1.125173 -0.886833,-1.125173 -1.339237,-2.356128 -0.446123,-3.541019 0.722244,-4.524244 1.126678,-0.948013 2.96737,-0.865069 4.416838,0.05955 1.181037,1.25521 1.009193,2.637674 1.009193,2.637674 1.024351,-0.11857 1.869604,-0.416672 2.70706,-0.722244 0,0 -1.311516,-3.510332 -2.343882,-4.942215 -1.683033,-1.570766 -3.319721,-1.075893 -5.097285,-0.710224 z"
         id="path15010"
         inkscape:connector-curvature="0"
         sodipodi:nodetypes="ccccccacccccc" />
      <path
         sodipodi:nodetypes="ccccccacccccc"
         inkscape:connector-curvature="0"
         id="path15012"
         d="m 50.196871,69.936666 c -2.889949,1.02316 -4.634487,2.959736 -5.097286,5.300218 -0.16892,1.222594 0.111531,2.410733 0.912821,3.545382 l 1.617522,1.921926 2.0382,-1.441499 c -0.01088,-0.0061 -0.886833,-1.125173 -0.886833,-1.125173 -1.339237,-2.356128 -0.446123,-3.541019 0.722244,-4.524244 1.126678,-0.948013 2.96737,-0.865069 4.416838,0.05955 1.181037,1.25521 1.009193,2.637674 1.009193,2.637674 1.024351,-0.11857 1.869604,-0.416672 2.70706,-0.722244 0,0 -1.311516,-3.510332 -2.343882,-4.942215 -1.683033,-1.570766 -3.319721,-1.075893 -5.097285,-0.710224 z"
         style="fill:#969fa9;fill-opacity:1;stroke:#efe6ca;stroke-width:0.6111939;stroke-linecap:butt;stroke-linejoin:miter;stroke-miterlimit:4;stroke-dasharray:none;stroke-opacity:1" />
      <path
         inkscape:connector-curvature="0"
         style="fill:#000000;stroke:none;stroke-width:0.02822222;stroke-miterlimit:4;stroke-dasharray:none"
         d="m 46.21576,64.343999 a 7.8551715,7.8551715 0 0 0 -7.854805,7.854783 7.8551715,7.8551715 0 0 0 7.854805,7.854827 7.8551715,7.8551715 0 0 0 7.717504,-6.368607 c -0.0043,-0.0045 -0.0076,-0.0074 -0.01088,-0.01191 -1.28033,-0.816774 -2.840138,-0.931337 -3.969199,-0.304381 a 3.9166258,3.9166258 0 0 1 -3.736393,2.745607 3.9166258,3.9166258 0 0 1 -3.915491,-3.915502 3.9166258,3.9166258 0 0 1 3.915491,-3.915426 3.9166258,3.9166258 0 0 1 3.378303,1.939803 c 0.208985,-0.08987 0.380072,-0.207577 0.603133,-0.286515 1.206266,-0.248184 2.344639,-0.503839 3.479656,-0.185055 a 7.8551715,7.8551715 0 0 0 -7.460719,-5.407638 z"
         id="path15014" />
      <path
         sodipodi:nodetypes="cccccccccc"
         inkscape:connector-curvature="0"
         style="fill:#969fa9;fill-opacity:1;stroke:#efe6ca;stroke-width:0.91679102;stroke-linecap:butt;stroke-miterlimit:4;stroke-dasharray:none;stroke-opacity:1"
         d="m 47.093173,82.566411 c 1.679351,4.01053 2.870566,6.202912 4.756953,9.364902 0,0 0.472112,0.39057 2.29797,-0.55506 1.823259,-0.94541 8.642667,-4.255679 8.642667,-4.255679 0,0 1.487367,-1.012441 1.014607,-1.957747 l -4.255715,-7.830928 c 0,0 -1.068747,-2.181588 -2.070468,-1.663607 -1.283471,0.431613 -2.799425,0.679147 -4.140718,1.121631 l -5.707133,3.915459 c -0.556571,0.659657 -0.791544,1.290142 -0.538163,1.861061 z"
         id="path15016" />
      <path
         id="path15018"
         d="m 47.093173,82.566411 c 1.679351,4.01053 2.870566,6.202912 4.756953,9.364902 0,0 0.472112,0.39057 2.29797,-0.55506 1.823259,-0.94541 8.642667,-4.255679 8.642667,-4.255679 0,0 1.487367,-1.012441 1.014607,-1.957747 l -4.255715,-7.830928 c 0,0 -1.068747,-2.181588 -2.070468,-1.663607 -1.283471,0.431613 -2.799425,0.679147 -4.140718,1.121631 l -5.707133,3.915459 c -0.556571,0.659657 -0.791544,1.290142 -0.538163,1.861061 z"
         style="fill:#969fa9;fill-opacity:1;stroke:none;stroke-width:0.09999999;stroke-linecap:butt;stroke-miterlimit:4;stroke-dasharray:none;stroke-opacity:1"
         inkscape:connector-curvature="0"
         sodipodi:nodetypes="cccccccccc" />
      <path
         inkscape:connector-curvature="0"
         style="fill:#000000;stroke:none;stroke-width:0.09999999;stroke-miterlimit:4;stroke-dasharray:none"
         d="m 24.334486,64.499178 0,15.500701 4.034819,0 0,-3.879639 2.011453,0.01841 c 1.069831,0.109367 1.920606,2.575106 2.882911,3.861729 l 4.79886,0 -3.294817,-4.780907 c 0.80562,-0.624789 1.864732,-1.627982 2.077181,-2.447193 0.348669,-1.345419 0.459118,-3.267778 -0.02166,-4.876411 -0.41039,-1.366632 -2.107825,-3.100158 -4.351111,-3.39619 l -8.135365,0 z m 4.034819,3.951279 3.509649,0.01841 c 0.761225,0.07038 1.132959,0.491494 1.402582,1.008759 0.167837,0.575521 0.146181,1.128725 0,1.659298 -0.573897,1.204393 -0.986453,1.134009 -1.432467,1.313118 l -3.479764,0 0,-3.999041 z"
         id="path15020" />
      <path
         inkscape:connector-curvature="0"
         id="path15022"
         d="m 71.05741,64.499795 0,4.136042 5.467341,0 0,11.361639 4.273559,0 0,-11.361639 5.610577,0 0,-4.136042 z"
         style="fill:#000000;stroke:none;stroke-width:0.02822222;stroke-miterlimit:4;stroke-dasharray:none" />
      <path
         style="color:#000000;font-style:normal;font-variant:normal;font-weight:normal;font-stretch:normal;font-size:medium;line-height:normal;font-family:sans-serif;text-indent:0;text-align:start;text-decoration:none;text-decoration-line:none;text-decoration-style:solid;text-decoration-color:#000000;letter-spacing:normal;word-spacing:normal;text-transform:none;direction:ltr;block-progression:tb;writing-mode:lr-tb;baseline-shift:baseline;text-anchor:start;white-space:normal;clip-rule:nonzero;display:inline;overflow:visible;visibility:visible;opacity:1;isolation:auto;mix-blend-mode:normal;color-interpolation:sRGB;color-interpolation-filters:linearRGB;solid-color:#000000;solid-opacity:1;fill:#000000;fill-opacity:1;fill-rule:nonzero;stroke:none;stroke-width:0.08466667;stroke-linecap:round;stroke-linejoin:miter;stroke-miterlimit:4;stroke-dasharray:none;stroke-dashoffset:0;stroke-opacity:1;color-rendering:auto;image-rendering:auto;shape-rendering:auto;text-rendering:auto;enable-background:accumulate"
         d="m 25.041787,56.082128 a 0.45844136,0.45844136 0 0 0 -0.253382,0.19036 0.45844136,0.45844136 0 0 0 0.401729,0.719103 l 19.562731,0 a 0.45844136,0.45844136 0 0 0 0.337841,-0.126907 0.45844136,0.45844136 0 0 0 -0.337841,-0.782556 l -19.562731,0 a 0.45844136,0.45844136 0 0 0 -0.148347,0 z"
         id="path15024"
         inkscape:connector-curvature="0" />
      <path
         style="color:#000000;font-style:normal;font-variant:normal;font-weight:normal;font-stretch:normal;font-size:medium;line-height:normal;font-family:sans-serif;text-indent:0;text-align:start;text-decoration:none;text-decoration-line:none;text-decoration-style:solid;text-decoration-color:#000000;letter-spacing:normal;word-spacing:normal;text-transform:none;direction:ltr;block-progression:tb;writing-mode:lr-tb;baseline-shift:baseline;text-anchor:start;white-space:normal;clip-rule:nonzero;display:inline;overflow:visible;visibility:visible;opacity:1;isolation:auto;mix-blend-mode:normal;color-interpolation:sRGB;color-interpolation-filters:linearRGB;solid-color:#000000;solid-opacity:1;fill:#000000;fill-opacity:1;fill-rule:nonzero;stroke:none;stroke-width:0.08466667;stroke-linecap:round;stroke-linejoin:miter;stroke-miterlimit:4;stroke-dasharray:none;stroke-dashoffset:0;stroke-opacity:1;color-rendering:auto;image-rendering:auto;shape-rendering:auto;text-rendering:auto;enable-background:accumulate"
         d="m 63.236779,56.14557 a 0.45844136,0.45844136 0 0 0 -0.295611,0.19036 0.45844136,0.45844136 0 0 0 0.06497,0.592196 0.45844136,0.45844136 0 0 0 0.337842,0.126909 l 19.583835,0 a 0.45844136,0.45844136 0 0 0 0.317267,-0.126909 0.45844136,0.45844136 0 0 0 0.08447,-0.106115 0.45844136,0.45844136 0 0 0 -0.08447,-0.549858 0.45844136,0.45844136 0 0 0 -0.317267,-0.126907 l -19.583835,0 a 0.45844136,0.45844136 0 0 0 -0.108279,0 z"
         id="path15026"
         inkscape:connector-curvature="0" />
      <path
         style="fill:#000000;stroke:none;stroke-width:0.09999999;stroke-linecap:round;stroke-miterlimit:4;stroke-dasharray:none"
         d="m 57.066847,52.102208 0,7.998052 2.721678,0 c 0.518674,-0.181807 1.02327,-0.396313 1.145954,-1.504118 l 0,-5.061445 c 0.0061,-0.840921 -0.481857,-1.218382 -1.145954,-1.432489 z m 1.074163,1.002803 0.824028,0 c 0.756894,0.01841 0.960465,0.372816 0.966962,0.960898 l 0,2.297937 0,1.701073 c -0.006,0.875464 -0.423384,1.102413 -0.966962,1.128108 l -0.824028,0 z"
         id="path15028"
         inkscape:connector-curvature="0"
         sodipodi:nodetypes="ccccccccccccccc" />
      <path
         inkscape:connector-curvature="0"
         style="fill:#000000;stroke:none;stroke-width:0.09999999;stroke-linecap:round;stroke-miterlimit:4;stroke-dasharray:none"
         d="m 48.340586,52.102208 -1.486176,7.998052 1.438423,0 0.286949,-1.504118 1.366848,0 0.453704,1.504118 1.319096,0 -1.695161,-7.998052 -1.683142,0 z m 0.841354,2.20843 0.931228,3.330518 -1.730893,0 0.800206,-3.330518 z"
         id="path15030" />
      <path
         sodipodi:nodetypes="ccccccccccc"
         inkscape:connector-curvature="0"
         id="path15032"
         d="m 52.12473,52.104817 0,7.998052 1.05034,0 0,-5.328176 1.945727,5.328176 1.014605,0 0.02166,-7.998052 -1.026517,0 0,5.005809 -1.957638,-5.005809 z"
         style="fill:#000000;stroke:none;stroke-width:0.02822222;stroke-linecap:round;stroke-miterlimit:4;stroke-dasharray:none" />
      <path
         inkscape:connector-curvature="0"
         style="fill:#000000;stroke:none;stroke-width:0.09999999;stroke-linecap:butt;stroke-miterlimit:4;stroke-dasharray:none"
         d="m 43.249256,17.80613 -3.33055,0.01191 0,10.576526 3.461896,0 c 0.563068,0 1.46896,-0.677955 1.486176,-1.611534 l 0,-7.389245 c -0.06497,-0.876329 -0.925814,-1.517264 -1.617522,-1.58767 z m -0.358415,1.163895 c 0.350835,0.06606 0.657274,0.223602 0.829443,0.692357 l 0,6.583484 c 0,0.548991 -0.521921,0.996739 -1.086288,0.996739 l -1.563816,0 0,-8.242771 1.820445,-0.03032 z"
         id="path15034" />
      <path
         inkscape:connector-curvature="0"
         id="path15036"
         d="m 47.803397,17.818051 c -0.744983,0 -1.336963,0.561012 -1.336963,1.169883 l 0,8.081603 c 0,0.808869 0.749314,1.325041 1.486176,1.325041 l 2.089092,0 c 0.628039,-0.03465 1.420448,-0.535457 1.420448,-1.325041 l 0,-8.081603 c 0,-0.583966 -0.5988,-1.169883 -1.318987,-1.169883 l -2.339766,0 z m 0.620458,0.996848 1.116067,0.01841 c 0.488353,0 0.703835,0.212992 0.722243,0.692358 l 0,7.102751 c 0,0.472762 -0.316185,0.71618 -0.710332,0.71618 l -1.229439,0 c -0.344338,-3.2e-5 -0.638866,-0.387651 -0.638866,-0.728199 l 0,-7.025157 c 0,-0.263775 0.139685,-0.775951 0.740652,-0.775951 z"
         style="fill:#000000;stroke:#efe6ca;stroke-width:0.84666669;stroke-linecap:butt;stroke-miterlimit:4;stroke-dasharray:none;stroke-opacity:1" />
      <path
         inkscape:connector-curvature="0"
         style="fill:#000000;stroke:none;stroke-width:0.09999999;stroke-linecap:butt;stroke-miterlimit:4;stroke-dasharray:none"
         d="m 47.803397,17.818051 c -0.744983,0 -1.336963,0.561012 -1.336963,1.169883 l 0,8.081603 c 0,0.808869 0.749314,1.325041 1.486176,1.325041 l 2.089092,0 c 0.628039,-0.03465 1.420448,-0.535457 1.420448,-1.325041 l 0,-8.081603 c 0,-0.583966 -0.5988,-1.169883 -1.318987,-1.169883 l -2.339766,0 z m 0.620458,0.996848 1.116067,0.01841 c 0.488353,0 0.703835,0.212992 0.722243,0.692358 l 0,7.102751 c 0,0.472762 -0.316185,0.71618 -0.710332,0.71618 l -1.229439,0 c -0.344338,-3.2e-5 -0.638866,-0.387651 -0.638866,-0.728199 l 0,-7.025157 c 0,-0.263775 0.139685,-0.775951 0.740652,-0.775951 z"
         id="path15038" />
      <path
         style="fill:#000000;stroke:#efe6ca;stroke-width:0.84666669;stroke-linecap:butt;stroke-miterlimit:4;stroke-dasharray:none;stroke-opacity:1"
         d="m 53.169765,17.82065 0,10.576592 1.266145,0 0,-8.747367 2.988053,8.747367 1.232471,0 0,-10.576592 -1.232471,0 0,6.855196 -2.329696,-6.855196 z"
         id="path15040"
         inkscape:connector-curvature="0"
         sodipodi:nodetypes="ccccccccccc" />
      <path
         sodipodi:nodetypes="ccccccccccc"
         inkscape:connector-curvature="0"
         id="path15042"
         d="m 53.169765,17.82065 0,10.576592 1.266145,0 0,-8.747367 2.988053,8.747367 1.232471,0 0,-10.576592 -1.232471,0 0,6.855196 -2.329696,-6.855196 z"
         style="fill:#000000;stroke:none;stroke-width:0.02822222;stroke-linecap:butt;stroke-miterlimit:4;stroke-dasharray:none" />
      <path
         style="fill:#000000;stroke:#efe6ca;stroke-width:0.84666669;stroke-linecap:butt;stroke-miterlimit:4;stroke-dasharray:none;stroke-opacity:1"
         d="m 62.927633,17.82065 5.402208,0 0,1.249677 -2.008963,0 0,9.326915 -1.249254,0 0,-9.343807 -2.143991,0 z"
         id="path15044"
         inkscape:connector-curvature="0"
         sodipodi:nodetypes="ccccccccc" />
      <path
         sodipodi:nodetypes="ccccccccc"
         inkscape:connector-curvature="0"
         id="path15046"
         d="m 62.927633,17.82065 5.402208,0 0,1.249677 -2.008963,0 0,9.326915 -1.249254,0 0,-9.343807 -2.143991,0 z"
         style="fill:#000000;stroke:none;stroke-width:0.02822222;stroke-linecap:butt;stroke-miterlimit:4;stroke-dasharray:none" />
      <path
         style="fill:#000000;stroke:#efe6ca;stroke-width:0.84666669;stroke-linecap:butt;stroke-miterlimit:4;stroke-dasharray:none;stroke-opacity:1"
         d="m 60.289874,18.119098 c 0.346504,-0.107203 0.83594,-0.298535 0.83594,-0.298535 l 0.931228,0.346179 -0.824029,2.542655 z"
         id="path15048"
         inkscape:connector-curvature="0"
         sodipodi:nodetypes="ccccc" />
      <path
         sodipodi:nodetypes="ccccc"
         inkscape:connector-curvature="0"
         id="path15050"
         d="m 60.289874,18.119098 c 0.346504,-0.107203 0.83594,-0.298535 0.83594,-0.298535 l 0.931228,0.346179 -0.824029,2.542655 z"
         style="fill:#000000;stroke:none;stroke-width:0.02822222;stroke-linecap:butt;stroke-miterlimit:4;stroke-dasharray:none" />
      <path
         sodipodi:nodetypes="cccccccsccccccsssccsccccccccccccccccsscccccsccscccccccccccccccccccccccccccccccccccccccccccccccccccccccccccccccccccccccccccccccccccscccccccc"
         inkscape:connector-curvature="0"
         id="path15052"
         d="m 29.837614,28.716891 c -1.166526,0.04656 -2.267758,0.235948 -2.978416,0.38202 -1.319528,0.272006 -3.658754,1.605569 -3.658754,1.605569 -1.06983,0.665503 -2.148755,1.545894 -2.148755,1.545894 -0.556572,0.543361 -0.749314,0.834965 -0.650778,1.313118 l 0.006,0 c 0.120194,0.582668 1.260407,1.716114 1.360893,1.163895 0.281534,-1.546229 5.227658,-4.233733 8.445702,-4.392952 2.751023,-0.136003 3.764221,0.883585 4.786949,2.333757 0.858679,1.218263 0.773136,2.976088 0.49485,4.440682 -0.269623,1.419139 -1.255751,2.584073 -2.023473,3.83192 -3.012849,3.08371 -4.797343,3.022194 -7.520429,3.300686 -0.88575,0.09096 -1.835928,-0.122251 -2.61437,-0.555057 -0.296694,-0.164697 -1.042759,-0.748339 -0.703836,-0.734154 0.0758,0.003 0.155927,0.0024 0.251216,-2.71e-4 0.09745,-0.0028 0.20357,-0.0091 0.323763,-0.01516 0.121277,-0.0061 0.254465,-0.01191 0.400645,-0.01841 0.146182,-0.0061 0.151595,0.333943 0.32593,0.327879 0.437461,0.07255 0.947472,0.0061 1.302421,0.0091 0.06497,-0.04007 0.0758,-0.477851 0.816449,-0.327555 0.258795,0.05305 0.543578,0.03466 0.840271,0.06064 0.409308,0.003 -0.566316,-0.423384 -0.788295,-0.441684 -0.733071,-0.133512 -0.521921,-0.08879 -0.739568,-0.298535 0,0 -0.125608,-0.72116 -0.02166,-1.062358 0.555489,-1.929517 1.428353,-3.670102 3.479763,-7.454918 0.210068,-0.388085 0.06497,-0.840922 -0.178666,-1.134043 -0.25338,-0.300699 -0.72874,-0.396312 -1.12213,-0.38202 -0.29128,0.0091 -0.747149,0.06281 -0.800208,0.340225 0,0 0.400646,1.042109 -0.01088,1.551848 -0.70167,1.842177 -1.675453,3.641927 -2.369544,5.544914 -0.292362,0.80064 -0.201405,2.334331 -0.495933,2.506868 -0.256629,0.15062 -1.478055,0.406168 -1.683141,0.262476 -0.642115,-0.449913 -0.626956,0.638758 -0.173253,1.163895 0.524088,0.607681 1.225432,0.759277 2.047187,1.104211 1.331549,0.402593 2.434297,0.395879 3.479872,0.47157 0.768805,0.669401 1.054671,1.066148 1.55775,1.486207 2.047729,1.70952 5.629603,2.059824 9.209744,2.202443 5.595059,0.222737 10.739557,-1.163321 14.754559,-2.184532 3.390539,-0.862361 5.865983,-1.68521 8.857608,-2.268106 0.583642,-0.113694 1.766628,-0.238654 1.766628,-0.238654 0,0 0.982122,0.04765 1.408645,0.262477 0.678931,0.341847 1.049258,1.114182 1.671231,1.551849 0.777468,0.547151 1.636797,1.080333 2.530776,1.313119 0.94314,0.245693 2.244759,0.359497 2.769442,-0.334267 0.486838,-0.64374 0.01841,-1.725556 -0.453594,-2.172611 -0.58635,-0.556138 -1.125174,-0.835182 -1.766747,-1.098254 -0.701671,-0.287923 -1.472316,-0.374658 -2.22044,-0.501348 -0.899826,-0.152461 -2.063536,0.322681 -2.721678,-0.310338 -0.906323,-0.872214 -2.573114,-3.420673 -2.864935,-4.058727 -0.210068,-0.458684 1.492131,-2.172578 1.492131,-2.172578 l 1.348982,-1.432489 c 0.278286,-0.295503 0.04331,-0.646446 -0.166754,-0.769996 0,0 -0.760143,0.639732 -1.205617,1.104221 -0.988617,1.031822 -1.027599,1.111183 -1.87426,2.13679 -0.677847,0.820456 -1.623477,2.148712 -1.623477,2.148744 -0.452621,0.5321 -0.896579,1.058894 -1.372805,1.038538 0,0 0.08663,-1.073187 0.489436,-1.909983 l 1.026518,-2.55461 c 0.574979,-1.359117 1.055753,-2.836121 1.909992,-3.915458 0.707085,-0.782557 0.986454,-1.146299 1.026518,-1.504119 0,0 -0.981039,-1.743216 -1.766735,-1.611534 -0.590139,0.09854 -0.610713,1.245421 -0.859763,1.575714 l -2.632129,7.580245 -0.686509,2.172611 c 0,0 -0.544662,0.666802 -0.931229,0.805729 -0.450455,0.162316 -1.109137,0.317375 -1.438424,-0.03032 -0.295611,-1.227706 0.35625,-2.029407 0.859763,-2.847059 0.390899,-0.868857 1.685307,-2.417794 1.927859,-3.36038 0.186247,-0.725926 -1.040593,-2.383048 -1.563706,-1.635433 -2.498183,3.570136 -2.476094,3.140254 -4.034926,5.365858 -0.526254,0.751372 -1.540752,2.913587 -1.671232,2.942564 -0.384402,0.455219 -0.493767,0.128098 -0.5674,-0.304383 l 0.447207,-1.629433 c 0,0 0.205737,-0.610713 0.489436,-1.03258 0.690842,-1.028575 1.73436,-2.297732 1.933816,-3.127608 0.120193,-0.50113 -0.184081,-1.386037 -0.715747,-1.426523 -0.802372,-0.06064 -1.111951,1.401433 -1.40269,1.969689 -0.569566,1.113565 -0.898744,1.986506 -1.301121,3.002249 -0.251216,0.63486 -0.698422,1.927892 -0.698422,1.927892 -0.764473,1.445656 -2.282592,1.081633 -2.339658,0.978873 -0.482939,-0.425333 -0.285865,-1.909982 -0.285865,-1.909982 0.180831,-1.316444 1.216011,-3.02645 1.772691,-4.01692 0.151595,-0.315752 1.036263,-0.215157 0.734155,-0.614827 -0.178666,-0.236489 -1.707398,-2.00408 -1.760888,-1.301176 -0.04331,0.607247 -0.491602,1.824904 -1.038429,2.966461 -0.769888,1.608395 -0.604216,1.937065 -0.960464,3.70656 0,0 -1.086398,1.240321 -1.802578,1.181806 -0.403893,-0.03357 -0.919317,-0.728199 -0.895495,-0.823704 -0.08663,-1.463198 0.386568,-2.395791 1.438423,-3.718482 0.407141,-0.744117 1.224241,-1.358924 1.408646,-2.214386 0.110443,-0.510768 0.172169,-1.207468 -0.220896,-1.551882 -0.330262,-0.28944 -0.933395,-0.221871 -1.319097,-0.01191 -0.466696,0.253922 0.280452,1.171421 -0.847851,1.34295 -0.461282,0.07039 -2.535757,0.50817 -2.447181,-0.304381 0.08663,-0.811252 -1.465278,-0.427282 -2.220331,-0.441684 -0.378989,0.003 0.09745,0.848501 0.31077,1.092266 0.493768,0.55419 1.061168,0.003 0.90091,0.716288 -0.173252,0.768806 -0.71683,1.852291 -1.18775,3.157429 -0.146181,0.406276 -0.610713,1.200386 -0.340007,1.211659 0.580393,0.0249 1.001612,-1.229288 1.325052,-2.059197 0.285866,-0.733829 0.424467,-1.144133 0.615044,-1.563804 0.225227,-0.496907 1.014606,-0.610062 1.551904,-0.519322 0.319433,0.05414 0.600967,0.289114 0.769887,0.590898 0.367078,0.246342 -0.0758,0.993708 -0.519755,2.250173 -0.153762,0.532857 -0.408225,0.708383 -0.316185,2.196476 0.04331,0.637675 0.748231,1.117453 1.277408,1.348939 1.849896,0.41981 1.811889,-0.419378 2.76943,-0.901235 0.370326,1.381878 1.251529,1.373541 2.303925,1.074378 0.408225,-0.115862 0.930146,-0.718995 1.432468,-0.596853 0.318349,0.07688 0.526252,0.521272 0.632368,0.752022 1.217312,1.193997 1.372264,0.03682 1.897974,-0.847527 0.489437,-0.823379 0.837024,-1.782912 1.241566,-2.626238 0.16459,-0.34358 0.378989,-0.899718 1.110112,-1.319085 0.882501,-0.506004 -0.412555,1.599861 0.340007,3.026146 0.163506,0.310988 0.645363,0.98851 1.092244,1.068424 0.44829,0.08013 0.956134,0.179423 1.348982,-0.197075 0.259878,-0.248725 0.813201,-0.48987 1.122131,-0.256738 0.439627,1.600165 2.013186,0.441468 1.969656,0.399887 0.219814,-0.799665 0.615044,-1.922142 1.265388,-2.077105 0.596637,-0.09529 1.25337,0.620783 1.25337,0.620783 l 1.050339,1.24149 c 0.463448,0.787862 -0.816449,0.812118 -1.348874,0.943031 -4.231568,1.039404 -7.530391,2.097712 -11.352435,2.662026 -5.340163,0.788512 -12.276084,1.505428 -16.175117,0.811793 -1.26582,-0.225227 -3.645327,-0.685427 -4.894364,-1.707072 -0.414722,-0.339032 2.188062,-0.962414 3.133584,-1.677175 1.060085,-0.80129 1.999326,-1.788013 2.769431,-2.870956 0.734155,-1.033015 1.439615,-2.153759 1.718983,-3.390204 0.321599,-1.421 0.338924,-2.91481 -0.108279,-4.369086 -0.480775,-1.583024 -1.912377,-2.922087 -3.425948,-3.581202 -0.97021,-0.422409 -2.199865,-0.517806 -3.366391,-0.47157 z m 36.898419,16.05579 0.955051,0.0249 c 1.265388,-0.09529 1.293324,0.09854 1.933815,0.334268 1.151367,0.424683 2.546715,1.540576 1.265389,1.93388 -1.516279,-0.173252 -2.218274,-0.490844 -3.103699,-1.217614 -0.166755,-0.19101 -1.050339,-1.074378 -1.050339,-1.074378 z"
         style="fill:#000000;stroke:#efe6ca;stroke-width:1.97555554;stroke-linecap:butt;stroke-miterlimit:4;stroke-dasharray:none;stroke-opacity:1" />
      <path
         style="fill:#000000;stroke:#000000;stroke-width:0.30559695;stroke-linecap:butt;stroke-miterlimit:4;stroke-dasharray:none;stroke-opacity:1"
         d="m 29.837614,28.716891 c -1.166526,0.04656 -2.267758,0.235948 -2.978416,0.38202 -1.319528,0.272006 -3.658754,1.605569 -3.658754,1.605569 -1.06983,0.665503 -2.148755,1.545894 -2.148755,1.545894 -0.556572,0.543361 -0.749314,0.834965 -0.650778,1.313118 l 0.006,0 c 0.120194,0.582668 1.260407,1.716114 1.360893,1.163895 0.281534,-1.546229 5.227658,-4.233733 8.445702,-4.392952 2.751023,-0.136003 3.764221,0.883585 4.786949,2.333757 0.858679,1.218263 0.773136,2.976088 0.49485,4.440682 -0.269623,1.419139 -1.255751,2.584073 -2.023473,3.83192 -3.012849,3.08371 -4.797343,3.022194 -7.520429,3.300686 -0.88575,0.09096 -1.835928,-0.122251 -2.61437,-0.555057 -0.296694,-0.164697 -1.042759,-0.748339 -0.703836,-0.734154 0.0758,0.003 0.155927,0.0024 0.251216,-2.71e-4 0.09745,-0.0028 0.20357,-0.0091 0.323763,-0.01516 0.121277,-0.0061 0.254465,-0.01191 0.400645,-0.01841 0.146182,-0.0061 0.151595,0.333943 0.32593,0.327879 0.437461,0.07255 0.947472,0.0061 1.302421,0.0091 0.06497,-0.04007 0.0758,-0.477851 0.816449,-0.327555 0.258795,0.05305 0.543578,0.03466 0.840271,0.06064 0.409308,0.003 -0.566316,-0.423384 -0.788295,-0.441684 -0.733071,-0.133512 -0.521921,-0.08879 -0.739568,-0.298535 0,0 -0.125608,-0.72116 -0.02166,-1.062358 0.555489,-1.929517 1.428353,-3.670102 3.479763,-7.454918 0.210068,-0.388085 0.06497,-0.840922 -0.178666,-1.134043 -0.25338,-0.300699 -0.72874,-0.396312 -1.12213,-0.38202 -0.29128,0.0091 -0.747149,0.06281 -0.800208,0.340225 0,0 0.400646,1.042109 -0.01088,1.551848 -0.70167,1.842177 -1.675453,3.641927 -2.369544,5.544914 -0.292362,0.80064 -0.201405,2.334331 -0.495933,2.506868 -0.256629,0.15062 -1.478055,0.406168 -1.683141,0.262476 -0.642115,-0.449913 -0.626956,0.638758 -0.173253,1.163895 0.524088,0.607681 1.225432,0.759277 2.047187,1.104211 1.331549,0.402593 2.434297,0.395879 3.479872,0.47157 0.768805,0.669401 1.054671,1.066148 1.55775,1.486207 2.047729,1.70952 5.629603,2.059824 9.209744,2.202443 5.595059,0.222737 10.739557,-1.163321 14.754559,-2.184532 3.390539,-0.862361 5.865983,-1.68521 8.857608,-2.268106 0.583642,-0.113694 1.766628,-0.238654 1.766628,-0.238654 0,0 0.982122,0.04765 1.408645,0.262477 0.678931,0.341847 1.049258,1.114182 1.671231,1.551849 0.777468,0.547151 1.636797,1.080333 2.530776,1.313119 0.94314,0.245693 2.244759,0.359497 2.769442,-0.334267 0.486838,-0.64374 0.01841,-1.725556 -0.453594,-2.172611 -0.58635,-0.556138 -1.125174,-0.835182 -1.766747,-1.098254 -0.701671,-0.287923 -1.472316,-0.374658 -2.22044,-0.501348 -0.899826,-0.152461 -2.063536,0.322681 -2.721678,-0.310338 -0.906323,-0.872214 -2.573114,-3.420673 -2.864935,-4.058727 -0.210068,-0.458684 1.492131,-2.172578 1.492131,-2.172578 l 1.348982,-1.432489 c 0.278286,-0.295503 0.04331,-0.646446 -0.166754,-0.769996 0,0 -0.760143,0.639732 -1.205617,1.104221 -0.988617,1.031822 -1.027599,1.111183 -1.87426,2.13679 -0.677847,0.820456 -1.623477,2.148712 -1.623477,2.148744 -0.452621,0.5321 -0.896579,1.058894 -1.372805,1.038538 0,0 0.08663,-1.073187 0.489436,-1.909983 l 1.026518,-2.55461 c 0.574979,-1.359117 1.055753,-2.836121 1.909992,-3.915458 0.707085,-0.782557 0.986454,-1.146299 1.026518,-1.504119 0,0 -0.981039,-1.743216 -1.766735,-1.611534 -0.590139,0.09854 -0.610713,1.245421 -0.859763,1.575714 l -2.632129,7.580245 -0.686509,2.172611 c 0,0 -0.544662,0.666802 -0.931229,0.805729 -0.450455,0.162316 -1.109137,0.317375 -1.438424,-0.03032 -0.295611,-1.227706 0.35625,-2.029407 0.859763,-2.847059 0.390899,-0.868857 1.685307,-2.417794 1.927859,-3.36038 0.186247,-0.725926 -1.040593,-2.383048 -1.563706,-1.635433 -2.498183,3.570136 -2.476094,3.140254 -4.034926,5.365858 -0.526254,0.751372 -1.540752,2.913587 -1.671232,2.942564 -0.384402,0.455219 -0.493767,0.128098 -0.5674,-0.304383 l 0.447207,-1.629433 c 0,0 0.205737,-0.610713 0.489436,-1.03258 0.690842,-1.028575 1.73436,-2.297732 1.933816,-3.127608 0.120193,-0.50113 -0.184081,-1.386037 -0.715747,-1.426523 -0.802372,-0.06064 -1.111951,1.401433 -1.40269,1.969689 -0.569566,1.113565 -0.898744,1.986506 -1.301121,3.002249 -0.251216,0.63486 -0.698422,1.927892 -0.698422,1.927892 -0.764473,1.445656 -2.282592,1.081633 -2.339658,0.978873 -0.482939,-0.425333 -0.285865,-1.909982 -0.285865,-1.909982 0.180831,-1.316444 1.216011,-3.02645 1.772691,-4.01692 0.151595,-0.315752 1.036263,-0.215157 0.734155,-0.614827 -0.178666,-0.236489 -1.707398,-2.00408 -1.760888,-1.301176 -0.04331,0.607247 -0.491602,1.824904 -1.038429,2.966461 -0.769888,1.608395 -0.604216,1.937065 -0.960464,3.70656 0,0 -1.086398,1.240321 -1.802578,1.181806 -0.403893,-0.03357 -0.919317,-0.728199 -0.895495,-0.823704 -0.08663,-1.463198 0.386568,-2.395791 1.438423,-3.718482 0.407141,-0.744117 1.224241,-1.358924 1.408646,-2.214386 0.110443,-0.510768 0.172169,-1.207468 -0.220896,-1.551882 -0.330262,-0.28944 -0.933395,-0.221871 -1.319097,-0.01191 -0.466696,0.253922 0.280452,1.171421 -0.847851,1.34295 -0.461282,0.07039 -2.535757,0.50817 -2.447181,-0.304381 0.08663,-0.811252 -1.465278,-0.427282 -2.220331,-0.441684 -0.378989,0.003 0.09745,0.848501 0.31077,1.092266 0.493768,0.55419 1.061168,0.003 0.90091,0.716288 -0.173252,0.768806 -0.71683,1.852291 -1.18775,3.157429 -0.146181,0.406276 -0.610713,1.200386 -0.340007,1.211659 0.580393,0.0249 1.001612,-1.229288 1.325052,-2.059197 0.285866,-0.733829 0.424467,-1.144133 0.615044,-1.563804 0.225227,-0.496907 1.014606,-0.610062 1.551904,-0.519322 0.319433,0.05414 0.600967,0.289114 0.769887,0.590898 0.367078,0.246342 -0.0758,0.993708 -0.519755,2.250173 -0.153762,0.532857 -0.408225,0.708383 -0.316185,2.196476 0.04331,0.637675 0.748231,1.117453 1.277408,1.348939 1.849896,0.41981 1.811889,-0.419378 2.76943,-0.901235 0.370326,1.381878 1.251529,1.373541 2.303925,1.074378 0.408225,-0.115862 0.930146,-0.718995 1.432468,-0.596853 0.318349,0.07688 0.526252,0.521272 0.632368,0.752022 1.217312,1.193997 1.372264,0.03682 1.897974,-0.847527 0.489437,-0.823379 0.837024,-1.782912 1.241566,-2.626238 0.16459,-0.34358 0.378989,-0.899718 1.110112,-1.319085 0.882501,-0.506004 -0.412555,1.599861 0.340007,3.026146 0.163506,0.310988 0.645363,0.98851 1.092244,1.068424 0.44829,0.08013 0.956134,0.179423 1.348982,-0.197075 0.259878,-0.248725 0.813201,-0.48987 1.122131,-0.256738 0.439627,1.600165 2.013186,0.441468 1.969656,0.399887 0.219814,-0.799665 0.615044,-1.922142 1.265388,-2.077105 0.596637,-0.09529 1.25337,0.620783 1.25337,0.620783 l 1.050339,1.24149 c 0.463448,0.787862 -0.816449,0.812118 -1.348874,0.943031 -4.231568,1.039404 -7.530391,2.097712 -11.352435,2.662026 -5.340163,0.788512 -12.276084,1.505428 -16.175117,0.811793 -1.26582,-0.225227 -3.645327,-0.685427 -4.894364,-1.707072 -0.414722,-0.339032 2.188062,-0.962414 3.133584,-1.677175 1.060085,-0.80129 1.999326,-1.788013 2.769431,-2.870956 0.734155,-1.033015 1.439615,-2.153759 1.718983,-3.390204 0.321599,-1.421 0.338924,-2.91481 -0.108279,-4.369086 -0.480775,-1.583024 -1.912377,-2.922087 -3.425948,-3.581202 -0.97021,-0.422409 -2.199865,-0.517806 -3.366391,-0.47157 z m 36.898419,16.05579 0.955051,0.0249 c 1.265388,-0.09529 1.293324,0.09854 1.933815,0.334268 1.151367,0.424683 2.546715,1.540576 1.265389,1.93388 -1.516279,-0.173252 -2.218274,-0.490844 -3.103699,-1.217614 -0.166755,-0.19101 -1.050339,-1.074378 -1.050339,-1.074378 z"
         id="path15054"
         inkscape:connector-curvature="0"
         sodipodi:nodetypes="cccccccsccccccsssccsccccccccccccccccsscccccsccscccccccccccccccccccccccccccccccccccccccccccccccccccccccccccccccccccccccccccccccccccscccccccc" />
      <path
         inkscape:connector-curvature="0"
         id="path15056"
         d="m 48.645401,32.272052 c -0.286949,0 -1.114226,0.624572 -1.23247,0.776601 -0.118029,0.15192 0.16892,0.877845 0.337841,0.945414 0.16892,0.06713 0.438543,0.574005 0.945304,0.405192 0.506763,-0.169028 1.164794,-0.894737 1.249255,-1.029873 0.08663,-0.135029 0.337841,-0.06713 0.03249,-0.438978 C 49.673547,32.559 48.644106,32.272052 48.644106,32.272052 Z"
         style="fill:#000000;stroke:none;stroke-width:0.02822222;stroke-linecap:butt;stroke-miterlimit:4;stroke-dasharray:none" />
      <path
         style="fill:#ffffff;stroke:#efe6ca;stroke-width:0.91679102;stroke-linecap:butt;stroke-miterlimit:4;stroke-dasharray:none;stroke-opacity:1"
         d="m 84.59441,21.163143 c 1.807786,-1.196845 2.587408,-0.735995 3.151462,0.907191 0.50622,0.937184 -0.516074,-0.655434 1.289253,-1.67122 0.89279,-0.502322 1.44978,0.345204 1.57573,0.90719 0.0931,0.413422 0.33275,-0.870266 0.71628,-1.050447 0.76686,-0.360256 1.79018,-0.173144 2.53071,0.238654 0.87363,0.485754 1.71318,1.393042 1.81448,2.387475 0.0855,0.842762 0.41711,1.048931 -1.09822,2.29196 0,0 1.33845,-1.056728 2.10098,-0.955051 0.71705,0.09528 1.30971,0.758085 1.67123,1.384694 0.52431,0.908921 0.82035,2.096791 0.52528,3.103731 -0.33275,1.13533 -1.45393,1.899478 -2.38747,2.626226 -0.42707,0.332427 -1.07655,0.356357 -1.43249,0.764041 -0.30135,0.345204 -0.45999,0.831284 -0.47742,1.289232 -0.0357,0.926356 0.7348,1.74744 0.76393,2.673969 0.0162,0.521054 -0.0357,1.100875 -0.33427,1.527962 -0.32419,0.463015 -0.88964,0.749747 -1.43249,0.907189 -0.53502,0.15517 -1.22994,-0.340114 -1.67112,-1e-5 -0.24764,0.190902 -0.18505,0.599235 -0.23876,0.907298 -0.15625,0.897228 -0.2053,1.811608 -0.23876,2.721711 -0.0422,1.145325 -0.0103,2.293345 0.0476,3.437976 0.0466,0.909573 0.31055,1.813806 0.23898,2.721722 -0.0877,1.11218 -0.0704,2.413734 -0.8118,3.246956 -0.59956,0.673408 -1.632093,0.881419 -2.53074,0.955051 -0.161775,0.01299 -0.372167,0.02815 -0.477418,-0.09529 -0.268648,-0.31521 -0.414504,-1.374493 -0.04765,-1.241479 0,0 1.938278,-0.227826 2.864978,-0.859546 0,0 -0.24125,-3.962519 -0.14326,-5.968699 0.1268,-2.594934 0.36253,-5.372095 0.81169,-8.021918 0.38841,-2.291342 1.08675,-4.519231 1.62351,-6.780438 0.19263,-0.81136 1.01179,-2.5392 0.57303,-2.435206 -0.26648,0.06281 -2.76976,0.08013 -4.154201,0.04765 -3.022508,-0.07039 -5.988926,-1.008217 -8.833678,-1.48022 -1.42439,-0.236273 -4.691455,-0.937618 -4.679457,-1.002696 l -0.334268,1.8145 c -0.06388,0.34477 -0.509469,-0.499399 -0.668535,-0.811686 -0.432697,-0.849692 -0.202705,-1.966039 -0.716288,-2.769473 -0.625872,-0.979089 -0.555056,-2.412478 0.477525,-3.390214 2.318207,-1.139867 3.241954,0.743142 6.541676,-1.718863 1.685968,-0.28251 2.888336,0.829118 2.196421,1.52795 1.516853,0.06497 0.810603,1.443264 1.1935,1.862144 z"
         id="path15058"
         inkscape:connector-curvature="0"
         sodipodi:nodetypes="ccssaaasaaaaaaaaaaaaaaaaasssaasssssascccc" />
      <path
         inkscape:connector-curvature="0"
         style="fill:#c1d1cf;fill-opacity:1;stroke:#efe6ca;stroke-width:0.30559695;stroke-linecap:butt;stroke-miterlimit:4;stroke-dasharray:none;stroke-opacity:1"
         d="m 71.821396,26.484596 c -1.158936,0.09096 -1.243937,0.857163 -2.459082,2.650102 -0.09745,0.716181 -0.286948,3.199236 -0.334593,3.437967 -0.04331,0.238655 -0.238221,4.96595 -0.238221,4.96595 0,0 -0.54466,2.501681 -0.137519,3.646875 0.281534,0.792952 1.665276,1.892073 1.665276,1.892073 0,0 1.575747,0.429664 1.910003,0.525278 0.334268,0.09529 1.432491,1.384747 1.432523,1.384747 l 0.811684,-3.915458 0.298427,-2.405386 -0.346179,2.357622 -1.193749,0.286515 c -0.230641,0.06606 -2.196659,-0.777467 -2.483045,-1.384726 0.08663,-1.537816 1.313152,-6.425964 0.668644,-9.454406 -0.136436,-0.641141 0.382779,-1.607897 0.954942,-1.718984 l 0.191011,0 c 0.726683,-0.04223 0.942165,0.952344 1.766714,1.098233 l 1.241522,0.143258 -0.256629,3.885605 0.304381,-3.933369 -0.09529,-2.530711 -2.100972,-0.811793 c -0.706,-0.107203 -1.213314,-0.149864 -1.599623,-0.119327 z m 3.491696,7.3952 -0.07796,1.032581 -0.465506,3.754324 0.417861,-2.847069 0.125283,-1.939836 z"
         id="path15060" />
      <path
         sodipodi:nodetypes="cacaacacsaacc"
         inkscape:connector-curvature="0"
         id="path15062"
         d="m 75.690359,24.725808 c -0.136977,3.003266 -0.07364,9.315643 -0.742708,13.910758 -0.450672,3.096682 -1.180074,6.111556 -2.192427,9.128326 2.115037,1.703736 5.39699,2.454686 8.26996,3.094245 1.783086,0.396964 3.64785,0.646662 5.462641,0.438219 1.434287,-0.164698 4.55255,-0.548884 4.12632,-1.31613 -0.15875,-3.935307 -0.0639,-7.545074 0.40519,-11.277167 0.39307,-3.125507 2.00943,-9.234269 2.00943,-9.234269 0,0 0.87535,-1.707895 0.47276,-2.160894 -0.15354,-0.172711 -2.84345,0.02924 -4.255325,-0.111855 -3.063774,-0.306873 -6.071665,-1.030308 -9.09884,-1.593376 -1.488656,-0.276878 -4.138001,-1.092818 -4.456936,-0.877845 z"
         style="fill:#c1d1cf;fill-opacity:1;stroke:#efe6ca;stroke-width:0.30559695;stroke-linecap:butt;stroke-miterlimit:4;stroke-dasharray:none;stroke-opacity:1" />
      <path
         sodipodi:nodetypes="cccccccccccccccccccccc"
         inkscape:connector-curvature="0"
         id="path15064"
         d="m 78.18891,27.899609 -1.147977,0.877845 0.04765,2.541507 -0.123876,4.45203 -0.866259,5.402253 -0.611145,3.810934 c 0,0 0.03357,0.810278 0.236272,1.080442 0.202596,0.270165 1.418087,0.911629 1.418087,0.911629 0.327231,-0.532966 1.646781,-0.159933 2.397232,-0.438977 1.076111,-0.337732 2.739686,0.460417 2.802425,0.91163 0.782557,0.07255 1.942705,-0.884234 3.916639,0.50687 l 1.745122,-0.115326 1.259845,-0.965229 -0.06713,-5.064606 c 0,0 0.405193,-4.794474 0.54022,-5.199635 0.13503,-0.405191 1.48562,-6.010029 1.48562,-6.010029 l -0.87784,-1.215481 -3.241348,0.472653 -2.228441,-0.945415 c 0,0 -2.093369,-0.202596 -2.430994,-0.337624 -1.448927,-0.132321 -2.959055,-0.437677 -4.254242,-0.675466 z"
         style="fill:#ecbd57;fill-opacity:1;stroke:none;stroke-width:0.02822222;stroke-linecap:butt;stroke-miterlimit:4;stroke-dasharray:none" />
      <path
         inkscape:connector-curvature="0"
         id="path15066"
         d="m 81.538432,28.277818 c -0.38202,0.57303 -1.718984,18.144815 -1.718984,18.144815 l 0.716288,0.04765 c 0.188088,-5.697009 1.007136,-11.822696 1.623479,-17.95383 z"
         style="fill:#ffffff;stroke:none;stroke-width:0.02822222;stroke-linecap:butt;stroke-miterlimit:4;stroke-dasharray:none"
         sodipodi:nodetypes="ccccc" />
      <path
         inkscape:connector-curvature="0"
         id="path15068"
         d="m 85.549396,29.328297 -1.623489,17.858334 0.764041,0.04765 c 0.291387,-5.929382 1.133998,-17.043964 1.623489,-17.858323 z"
         style="fill:#ffffff;stroke:none;stroke-width:0.02822222;stroke-linecap:butt;stroke-miterlimit:4;stroke-dasharray:none"
         sodipodi:nodetypes="ccccc" />
      <ellipse
         ry="0.50646025"
         rx="0.43893221"
         cy="41.371464"
         cx="77.750015"
         id="ellipse15070"
         style="fill:#efe6ca;fill-opacity:1;stroke:none;stroke-width:0.02822222;stroke-linecap:butt;stroke-miterlimit:4;stroke-dasharray:none" />
      <circle
         r="0.64151633"
         cy="35.834167"
         cx="88.554459"
         id="circle15072"
         style="fill:#efe6ca;fill-opacity:1;stroke:none;stroke-width:0.02822222;stroke-linecap:butt;stroke-miterlimit:4;stroke-dasharray:none" />
      <ellipse
         ry="0.40516821"
         rx="0.37140417"
         cy="38.70414"
         cx="87.338982"
         id="ellipse15074"
         style="fill:#efe6ca;fill-opacity:1;stroke:none;stroke-width:0.02822222;stroke-linecap:butt;stroke-miterlimit:4;stroke-dasharray:none" />
      <ellipse
         ry="0.43893221"
         rx="0.40516821"
         cy="33.470695"
         cx="78.661652"
         id="ellipse15076"
         style="fill:#efe6ca;fill-opacity:1;stroke:none;stroke-width:0.02822222;stroke-linecap:butt;stroke-miterlimit:4;stroke-dasharray:none" />
      <ellipse
         ry="0.67528033"
         rx="0.60775232"
         cy="36.678307"
         cx="79.606987"
         id="ellipse15078"
         style="fill:#efe6ca;fill-opacity:1;stroke:none;stroke-width:0.02822222;stroke-linecap:butt;stroke-miterlimit:4;stroke-dasharray:none" />
      <ellipse
         ry="0.43893221"
         rx="0.40516821"
         cy="39.953331"
         cx="83.050949"
         id="ellipse15080"
         style="fill:#efe6ca;fill-opacity:1;stroke:none;stroke-width:0.02822222;stroke-linecap:butt;stroke-miterlimit:4;stroke-dasharray:none" />
      <ellipse
         ry="0.57398826"
         rx="0.47269624"
         cy="31.309788"
         cx="83.793808"
         id="ellipse15082"
         style="fill:#efe6ca;fill-opacity:1;stroke:none;stroke-width:0.02822222;stroke-linecap:butt;stroke-miterlimit:4;stroke-dasharray:none" />
      <ellipse
         ry="0.47269624"
         rx="0.40516821"
         cy="44.106365"
         cx="87.71032"
         id="ellipse15084"
         style="fill:#efe6ca;fill-opacity:1;stroke:none;stroke-width:0.02822222;stroke-linecap:butt;stroke-miterlimit:4;stroke-dasharray:none" />
      <path
         sodipodi:nodetypes="ccssaaasaaaaaaaaaaaaaaaaasssaasssssascccc"
         inkscape:connector-curvature="0"
         id="path15086"
         d="m 84.59441,21.163143 c 1.807786,-1.196845 2.587408,-0.735995 3.151462,0.907191 0.50622,0.937184 -0.516074,-0.655434 1.289253,-1.67122 0.89279,-0.502322 1.44978,0.345204 1.57573,0.90719 0.0931,0.413422 0.33275,-0.870266 0.71628,-1.050447 0.76686,-0.360256 1.79018,-0.173144 2.53071,0.238654 0.87363,0.485754 1.71318,1.393042 1.81448,2.387475 0.0855,0.842762 0.41711,1.048931 -1.09822,2.29196 0,0 1.33845,-1.056728 2.10098,-0.955051 0.71705,0.09528 1.30971,0.758085 1.67123,1.384694 0.52431,0.908921 0.82035,2.096791 0.52528,3.103731 -0.33275,1.13533 -1.45393,1.899478 -2.38747,2.626226 -0.42707,0.332427 -1.07655,0.356357 -1.43249,0.764041 -0.30135,0.345204 -0.45999,0.831284 -0.47742,1.289232 -0.0357,0.926356 0.7348,1.74744 0.76393,2.673969 0.0162,0.521054 -0.0357,1.100875 -0.33427,1.527962 -0.32419,0.463015 -0.88964,0.749747 -1.43249,0.907189 -0.53502,0.15517 -1.22994,-0.340114 -1.67112,-1e-5 -0.24764,0.190902 -0.18505,0.599235 -0.23876,0.907298 -0.15625,0.897228 -0.2053,1.811608 -0.23876,2.721711 -0.0422,1.145325 -0.0103,2.293345 0.0476,3.437976 0.0466,0.909573 0.31055,1.813806 0.23898,2.721722 -0.0877,1.11218 -0.0704,2.413734 -0.8118,3.246956 -0.59956,0.673408 -1.632093,0.881419 -2.53074,0.955051 -0.161775,0.01299 -0.372167,0.02815 -0.477418,-0.09529 -0.268648,-0.31521 -0.414504,-1.374493 -0.04765,-1.241479 0,0 1.938278,-0.227826 2.864978,-0.859546 0,0 -0.24125,-3.962519 -0.14326,-5.968699 0.1268,-2.594934 0.36253,-5.372095 0.81169,-8.021918 0.38841,-2.291342 1.08675,-4.519231 1.62351,-6.780438 0.19263,-0.81136 1.01179,-2.5392 0.57303,-2.435206 -0.26648,0.06281 -2.76976,0.08013 -4.154201,0.04765 -3.022508,-0.07039 -5.988926,-1.008217 -8.833678,-1.48022 -1.42439,-0.236273 -4.691455,-0.937618 -4.679457,-1.002696 l -0.334268,1.8145 c -0.06388,0.34477 -0.509469,-0.499399 -0.668535,-0.811686 -0.432697,-0.849692 -0.202705,-1.966039 -0.716288,-2.769473 -0.625872,-0.979089 -0.555056,-2.412478 0.477525,-3.390214 2.318207,-1.139867 3.241954,0.743142 6.541676,-1.718863 1.685968,-0.28251 2.888336,0.829118 2.196421,1.52795 1.516853,0.06497 0.810603,1.443264 1.1935,1.862144 z"
         style="fill:#ffffff;stroke:none;stroke-width:0.02822222;stroke-linecap:butt;stroke-miterlimit:4;stroke-dasharray:none;stroke-opacity:1" />
      <path
         sodipodi:nodetypes="cccccccsssc"
         inkscape:connector-curvature="0"
         id="path15088"
         d="m 53.927957,83.940894 c 0.266376,0.485645 1.240051,0.61396 1.240051,0.61396 l -0.266376,2.079521 0.180833,0.352025 3.02162,-1.623596 -0.211151,-0.348561 -1.818495,-0.912496 c 0.168922,-0.431723 0.410391,-1.027817 0.175417,-1.43994 -0.314018,-0.557763 -1.018936,-0.930471 -1.782653,-0.591329 -0.727657,0.323656 -0.852182,1.300579 -0.540329,1.869658 z"
         style="fill:#efe6ca;fill-opacity:1;stroke:none;stroke-width:0.02822222;stroke-linecap:butt;stroke-miterlimit:4;stroke-dasharray:none" />
      <path
         sodipodi:nodetypes="ccccccccc"
         inkscape:connector-curvature="0"
         id="path15090"
         d="m 50.671148,81.077928 4.997233,-2.566055 2.430939,0.776602 2.836133,5.267202 -0.945305,2.701104 -4.389336,2.228412 -2.397264,-0.2026 -3.140081,-5.908688 z"
         style="fill:none;stroke:#efe6ca;stroke-width:0.6111939;stroke-linecap:butt;stroke-miterlimit:4;stroke-dasharray:none;stroke-opacity:1" />
    </g>
  </g>
</svg>
