<?xml version="1.0" encoding="UTF-8" standalone="no"?>
<!-- Created with Inkscape (http://www.inkscape.org/) -->

<svg
   xmlns:dc="http://purl.org/dc/elements/1.1/"
   xmlns:cc="http://creativecommons.org/ns#"
   xmlns:rdf="http://www.w3.org/1999/02/22-rdf-syntax-ns#"
   xmlns:svg="http://www.w3.org/2000/svg"
   xmlns="http://www.w3.org/2000/svg"
   xmlns:sodipodi="http://sodipodi.sourceforge.net/DTD/sodipodi-0.dtd"
   xmlns:inkscape="http://www.inkscape.org/namespaces/inkscape"
   width="250"
   height="300"
   viewBox="0 0 250 300"
   id="svg8266"
   version="1.1"
   inkscape:version="0.91 r13725"
   sodipodi:docname="cat_techsup.svg">
  <defs
     id="defs8268" />
  <sodipodi:namedview
     id="base"
     pagecolor="#ffffff"
     bordercolor="#666666"
     borderopacity="1.0"
     inkscape:pageopacity="0.0"
     inkscape:pageshadow="2"
     inkscape:zoom="0.98994949"
     inkscape:cx="76.629471"
     inkscape:cy="203.28912"
     inkscape:document-units="px"
     inkscape:current-layer="layer1"
     showgrid="false"
     units="px"
     inkscape:window-width="1920"
     inkscape:window-height="971"
     inkscape:window-x="0"
     inkscape:window-y="31"
     inkscape:window-maximized="1" />
  <metadata
     id="metadata8271">
    <rdf:RDF>
      <cc:Work
         rdf:about="">
        <dc:format>image/svg+xml</dc:format>
        <dc:type
           rdf:resource="http://purl.org/dc/dcmitype/StillImage" />
        <dc:title></dc:title>
      </cc:Work>
    </rdf:RDF>
  </metadata>
  <g
     inkscape:label="Layer 1"
     inkscape:groupmode="layer"
     id="layer1"
     transform="translate(0,-752.36216)">
    <g
       id="g8490"
       transform="translate(-182.04449,330.98721)">
      <rect
         y="421.55212"
         x="182.22165"
         height="299.64566"
         width="249.64568"
         id="rect8113"
         style="fill:none;stroke:#333333;stroke-width:0.35433075;stroke-miterlimit:4;stroke-dasharray:none" />
      <path
         sodipodi:nodetypes="ccscsscscsscsccccsccccsscssscsccccssccsccccccccscccccsccscccscsccc"
         inkscape:connector-curvature="0"
         id="path6166"
         d="m 282.34258,614.96539 c -2.89106,0.13394 -3.43042,-0.41317 -5.30327,-0.35355 -2.71471,0.0209 -6.8501,0.66291 -9.54595,0.88388 -2.69586,0.22096 -11.97663,0.61872 -11.97663,0.61872 -3.62392,0.17677 -7.2518,0.49398 -8.97141,0.61872 -1.84291,0.13369 -8.20587,0.35394 -8.88838,0.38749 -0.93816,0.0461 -3.17665,0.5406 -4.50245,0.62899 -1.32583,0.0884 -11.04856,-0.22096 -12.41858,-0.39775 -1.37002,-0.17678 -2.47486,-1.19324 -4.06587,-1.28163 -0.43877,0.32311 -3.13151,-4.60414 -4.38814,-6.05775 -0.47052,-0.54424 -0.20232,-2.35967 -0.50712,-3.3324 -0.21508,-0.6865 -0.49642,-0.95129 -0.5406,-1.57001 -0.0443,-0.61872 1.85616,-3.62392 2.60745,-4.72877 0.75132,-1.10486 13.30246,-20.77127 13.5676,-21.12482 0.26504,-0.35355 0.70711,-1.37002 0.44196,-2.38649 -0.26504,-1.01646 -1.50261,-2.74004 -1.72357,-3.7123 -0.2211,-0.97228 -0.9281,-9.23659 -0.97228,-9.98789 -0.0443,-0.7513 -1.85617,-12.41856 -1.90035,-13.70019 -0.0443,-1.28163 -0.99436,-18.2301 -0.86177,-18.89302 -0.34441,-0.0337 -0.44922,-0.67698 -0.48614,-0.95016 0.0443,-0.53034 0.35079,-1.03603 0.25724,-1.50478 -0.0939,-0.46875 -0.70469,-0.67992 -0.87657,-1.08617 -0.0393,-0.84819 -0.0177,-1.40357 -0.22111,-1.87232 -0.20303,-0.46875 -1.31028,-5.12768 -1.37278,-5.75268 -0.0624,-0.625 -0.46874,-9.46875 -0.28134,-10.0625 0.18744,-0.59375 0.40624,-1 0.40624,-1.40625 0,-0.40625 0,-12.34375 -0.0624,-13.09375 -0.0624,-0.75 -1.43749,-15.4375 -1.49999,-16.4375 -0.0624,-1 -0.31252,-5.40625 -0.12508,-6.25 0.18744,-0.84375 0.25016,-4.4375 0.5,-5.25 0.2498,-0.8125 0.3437,-3.21875 0.3437,-3.21875 l 8.4375,-6.62501 6.50002,-1.125 c 1.26623,-0.14587 1.41842,0.51406 3.62498,0.31249 1.52454,-0.11155 17.23202,-1.14877 34.4684,-2.58332 11.28321,-0.93908 21.75655,-2.00081 30.4964,-2.75862 7.99228,-0.69299 14.8477,-1.34556 14.8477,-1.34556 l 17.37499,-1.125 c 0,0 9.68751,-0.25002 12.75003,-0.6875 3.06248,-0.4375 19.99998,-1.5625 19.99998,-1.5625 2.60546,-0.31431 5.48011,-0.14413 8.375,0.0625 l 4,5.6875 1.49999,10.8125 -0.0283,15.8933 c 0.43732,9.93752 0.96637,13.29421 0.96637,13.29421 0.19701,16.68918 -0.36709,32.94336 0.60668,50.07637 0.22146,0.22153 0.007,1.36382 0.31996,4.36428 0.12048,3.64774 1.54545,8.68225 2.07326,13.3406 0.29906,2.63801 0.0213,1.9653 -0.31252,3.00001 0,0 -0.32811,0.53123 -0.25015,1.15625 0.12507,1.5625 0.17185,2.15625 0.14067,3.45312 -0.0319,1.29688 0.35939,1.46875 0.35939,1.46875 l 12.9504,14.74221 c 0,0 2.20971,2.60745 3.6681,3.66811 1.45843,1.06066 3.09359,3.18198 3.09359,3.18198 0,0 0.0882,0.75131 0.92807,1.85616 0.83969,1.10486 0.61873,1.10486 2.23182,3.51344 1.61309,2.40858 -1.65728,7.35833 -1.65728,7.35833 0,0 -0.97228,0.48613 -1.54679,1.39211 -0.57455,0.90598 -0.44196,1.48051 -0.81758,2.14342 -0.37567,0.66291 -42.20295,4.68458 -43.74975,4.81717 -1.54679,0.13259 -10.81428,-0.096 -12.62622,0.0366 -1.81198,0.13259 -32.87548,2.1914 -33.84776,2.1914 -0.97228,0 -10.75642,0.17079 -10.75642,0.17079 -4.65838,-0.375 -20.75265,1.09256 -20.75265,1.09256 z"
         style="fill:#000000;stroke:#999999;stroke-width:0.09999999;stroke-miterlimit:4;stroke-dasharray:none" />
      <path
         sodipodi:nodetypes="cccccccccccscscccccaaaaccacacccccccccccccccccccccccccsccccccc"
         inkscape:connector-curvature="0"
         id="path6172"
         d="m 377.99057,465.75383 c 0.15874,3.50499 0.4831,7.46249 0.45075,11.26076 -0.0142,4.30963 -0.0386,7.99275 -0.11551,12.36385 -0.11658,3.12064 -0.22004,6.10383 -0.4691,9.711 -0.0656,2.57977 0.28948,4.19503 0.38274,6.29306 0.57838,3.33163 0.41904,9.06258 0.64,13.47868 -0.0408,3.92462 0.51668,8.03436 0.24307,12.46973 0.17929,3.17658 0.10984,8.7263 0.58868,9.6321 0.19205,1.52882 -0.20976,4.72463 -0.0106,6.04112 1.02955,0.42434 0.91333,3.65184 1.02636,4.09913 0.20905,3.29675 0.24874,6.38309 0.63329,9.47114 -0.16264,1.19564 -0.0177,2.49513 0.51609,3.37283 0.42385,0.69482 0.87154,0.95178 0.55045,1.8116 -0.35044,1.05292 -3.81402,0.56047 -5.23814,0.89652 -3.11468,0.73501 -3.68664,0.40531 -8.2125,0.7873 -3.52343,0.297 -5.27425,0.34802 -8.41848,0.5518 -1.96536,0.04 -7.73004,0.65558 -9.66975,0.79549 -0.46751,0.0163 -1.58379,0.6093 -2.59909,1.16104 -1.3742,0.11299 -4.66111,-0.004 -7.63937,0.88196 -2.43553,0.53553 -4.67649,0.62176 -7.02687,0.80767 -4.21874,0.33367 -8.45561,0.37276 -12.68373,0.55117 -4.07123,0.17178 -8.14107,0.38534 -12.21431,0.50003 -2.70759,0.0763 -5.41772,0.0405 -8.12509,0.12501 -3.54387,0.11062 -6.96033,0.37954 -10.62503,0.50003 -4.51846,0.28889 -9.09457,0.97042 -13.69896,1.00007 -4.01378,0.37341 -7.73528,0.29933 -11.60234,0.46403 -5.86333,0.24974 -13.10815,0.93177 -17.58802,0.79487 -3.74964,0.47599 -4.27422,0.94456 -6.44737,0.96977 -3.02517,0.0351 -6.21475,-0.26968 -9.00407,-1.14148 -1.05977,-0.17475 -1.73024,-1.86772 -1.82137,-3.52285 -0.83573,-3.47464 -0.62068,-5.34052 -1.2943,-10.09482 -0.19559,-3.53814 -0.66742,-7.49722 -1.00701,-11.22805 -0.24094,-2.47911 -1.19831,-6.41389 -1.46232,-9.48416 -0.4838,-2.49907 -0.66005,-4.88334 -0.69828,-7.5664 -0.34724,-3.56731 -1.02703,-7.41543 -1.40474,-11.1637 -0.62341,-3.31996 -0.0354,-5.96238 -0.60233,-10.25563 0.26291,-1.26195 -0.0106,-1.58738 0.75185,-2.52622 0.15697,-2.15374 0.10063,-3.77464 -0.11055,-6.43047 -0.44401,-2.65739 -0.90429,-6.51029 -1.17134,-9.25896 -0.49376,-3.85528 -0.5669,-7.47039 -0.41999,-11.55698 -0.82127,-3.46923 -0.33343,-5.64062 -0.24307,-9.83352 0.45198,-3.33051 0.76613,-5.52116 1.39241,-8.55195 -0.23988,-1.46611 1.15313,-3.07794 2.74032,-4.06623 1.89216,-1.24512 3.27544,-1.37003 8.52998,-1.4365 3.16503,-0.73467 5.93363,-0.65804 8.2648,-0.81773 3.8278,-0.37823 6.47908,-0.95438 10.91626,-0.70716 4.18372,-0.0841 8.03271,-0.54267 12.44094,-0.99443 3.71463,-0.38748 6.953,-0.44 10.40832,-0.90615 2.91621,-0.36876 6.30581,-0.66227 8.15418,-0.64088 3.83588,-0.4048 7.35091,-0.48179 10.96055,-0.99451 3.95762,-0.24286 8.18574,0.0596 12.1095,-0.7735 3.06761,-0.51118 5.84617,-0.64319 8.98798,-1.01962 5.29739,-0.40178 12.90523,-0.95956 15.17043,-1.13518 3.49876,-0.3466 8.28007,-0.30114 12.18532,-0.5117 2.33292,-0.12579 4.67019,-0.56554 7.11872,-0.76805 3.13168,-0.0782 7.29574,-0.88321 11.22385,-0.81318 2.98265,-0.12412 6.07886,-0.18446 8.8566,-0.26139 1.42346,0.30452 2.71389,1.75737 3.98619,3.07975 1.31262,1.40073 1.0935,2.3087 1.1268,3.76152 0.50613,3.72188 0.86978,7.78125 1.26805,10.82837 z"
         style="fill:#ffffff;stroke:#999999;stroke-width:0.09999999;stroke-miterlimit:4;stroke-dasharray:none" />
      <path
         sodipodi:nodetypes="cccccccc"
         inkscape:connector-curvature="0"
         id="path6118"
         d="m 295.80371,458.99838 c -0.17398,1.00277 0.24271,2.15897 1.17577,2.64581 0.57455,0.29778 1.24895,0.17415 1.83363,-0.0241 0.83494,-0.2588 1.64299,-0.612 2.39205,-1.06292 0.50566,-0.37809 0.57795,-1.08995 0.46035,-1.66782 -0.1265,-0.63456 -0.57111,-1.28548 -1.10286,-1.69268 -1.92965,-1.36752 -4.1761,-0.18262 -4.75898,1.8018 z"
         style="fill:#000000;fill-rule:evenodd;stroke:#cccccc;stroke-width:0.09999999;stroke-linecap:butt;stroke-linejoin:miter;stroke-miterlimit:4;stroke-dasharray:none;stroke-opacity:1" />
      <path
         sodipodi:nodetypes="cccccccc"
         inkscape:connector-curvature="0"
         id="path5177"
         d="m 298.86183,458.12728 c -0.77974,-0.0117 -1.46736,0.74705 -1.38171,1.52175 0.0177,0.19538 0.13287,0.39437 0.33023,0.45272 0.48827,0.0241 0.81486,0.0563 1.04662,-0.017 0.38874,-0.0925 0.41078,-0.14964 0.71887,-0.37506 0.41584,-0.2295 0.39047,-0.73284 0.32032,-0.94884 -0.2902,-0.53432 -0.57806,-0.66752 -1.0343,-0.63361 z"
         style="fill:#ffffff;fill-rule:evenodd;stroke:#cccccc;stroke-width:0.09999999;stroke-linecap:butt;stroke-linejoin:miter;stroke-miterlimit:4;stroke-dasharray:none;stroke-opacity:1" />
      <path
         inkscape:connector-curvature="0"
         id="path6234"
         d="m 234.72514,472.12925 -0.0936,1.875 1.75001,16.15626 c 0,0 -0.0319,9.90624 0.18744,11.53125 0.21862,1.62499 0.68747,11.81249 0.90623,12.37499 0.21863,0.5625 0.68751,9.71875 0.65626,9.9375 -0.0319,0.21876 0.90624,9.28125 0.93749,9.6875 0.0319,0.40625 0.93749,10.5 0.90623,10.65625 -0.0319,0.15626 1.31252,14.875 1.31252,14.875 0,0 0.0624,2.5625 0.0624,2.6875 0,0.12501 1.125,2.53125 1.25001,2.6875 0.12507,0.15626 0.81248,1.34375 1.25,1.1875 0.4375,-0.15626 17.28124,-1.34375 17.59373,-1.34375 0.31252,0 10.71875,-0.40625 11.71878,-0.5 0.99999,-0.0937 10.49999,-0.5 10.81247,-0.5625 0.31252,-0.0625 48.15627,-2.6875 48.56255,-2.6875 0.40624,0 2.71874,-0.31249 3.15623,-0.28123 0.4375,0.0312 5.71876,-0.0625 6.56249,-0.18752 0.84377,-0.125 15.78125,-1.21875 16.03127,-1.25 0.2498,-0.0312 3.62498,-0.59375 4.12498,-0.71875 0.50003,-0.125 3.53126,-0.18751 5.0625,-0.65625 1.53127,-0.46875 3.375,-0.96875 3.5,-1.15625 0.12508,-0.18751 0.4375,-1.4375 0.71876,-1.96875 0.28134,-0.53125 0.18744,-2.875 0.0624,-3.15625 -0.12508,-0.28123 -0.59376,-12.125 -0.59376,-12.125 0,0 -0.93748,-16.9375 -0.99999,-17.53125 -0.0624,-0.59375 -1.31251,-18.68749 -1.21875,-19.03124 0.0935,-0.34374 -1,-17.15625 -1,-17.71875 0,-0.5625 0.0624,-10.90625 -0.12508,-11.3125 -0.18744,-0.40625 -1.125,-9.09375 -1.03124,-9.625 0.0935,-0.53125 -0.28134,-1.84375 -0.28134,-1.84375 0,0 0.18744,-0.65625 0.0939,-0.8125 -0.0939,-0.15626 -0.96878,-0.34374 -1.125,-0.4375 -0.15626,-0.0938 -3.12502,0 -3.31253,0 -0.18744,0 -5.74997,-0.0625 -5.99999,-0.12501 -0.2498,-0.0625 -1.34373,0.75 -2.1875,0.625 -0.84373,-0.12501 -1.75,0.28123 -2.25,0.25002 -0.49999,-0.0312 -5.6875,-0.0312 -5.90623,-0.0625 -0.21862,-0.0312 -18.31252,1.125 -18.68751,1.125 -0.37502,0 -17.56254,0.625 -17.78127,0.5625 -0.21862,-0.0625 -2.56252,0.0625 -2.68749,0.0938 -0.12508,0.0312 -9.84377,0.53125 -9.96878,0.5 -0.12507,-0.0312 -9.09375,0.59375 -9.24998,0.5625 -0.15626,-0.0312 -11.09377,0.65625 -11.09377,0.65625 l -21.65623,1.6875 c 0,0 -4.9375,0.46875 -5.18751,0.4375 -0.25016,-0.0312 -3.78124,0.34373 -3.78124,0.34373 0,0 -2.12499,0.12501 -2.34376,0.18752 -0.21862,0.0625 -4.28123,1.46875 -4.46875,1.46875 -0.18744,0 -1.90626,1.40625 -2.12499,1.46875 -0.21862,0.0625 -1.46877,1.53125 -1.46877,1.53125 z"
         style="fill:#000000;stroke:#999999;stroke-width:0.09999999;stroke-miterlimit:4;stroke-dasharray:none" />
      <path
         inkscape:connector-curvature="0"
         id="path6236"
         d="m 236.38138,473.348 c 0,0 0.5625,-0.84375 0.65622,-1 0.0935,-0.15626 0.46878,-0.78125 1.03128,-1.15625 0.5625,-0.375 1.75001,-0.90625 2.59374,-1.125 0.84377,-0.21876 2.71874,-0.625 3.3125,-0.71874 0.59375,-0.0938 2.46876,0 2.90625,-0.0625 0.43749,-0.0625 4.37499,-0.6875 4.56251,-0.75 0.18744,-0.0625 3.00001,-0.46875 3.46875,-0.5 0.46875,-0.0312 2.90626,-0.0938 3.9375,-0.18751 1.03125,-0.0938 19.6875,-1.75 20.06249,-1.78125 0.37499,-0.0312 12.71874,-0.0625 13.81248,-0.12501 1.09379,-0.0625 28.12504,-0.90625 28.2813,-0.9375 0.15626,-0.0312 1.84372,-0.31252 2.93747,-0.375 1.09375,-0.0625 18.34377,-1.15625 18.50003,-1.21875 0.15626,-0.0625 6.34373,-0.65625 6.65625,-0.625 0.31252,0.0312 8.96875,0.40625 9.87498,0.18751 0.90627,-0.21876 3.50001,-0.18751 3.74999,-0.18751 0.25016,0 1.71875,0.12501 1.87501,0.0938 0.15626,-0.0312 -0.37499,0.68749 -0.21862,1.0625 0.15626,0.375 0.74998,1.75 0.65622,2.0625 -0.0935,0.31248 0.5,4.40625 0.5,4.5625 0,0.15626 0.5625,8.21875 0.53128,8.46874 -0.0319,0.25002 0.31252,6.50001 0.31252,6.50001 l 0.46874,10.0625 0.84377,14.81249 c 0,0 0.15626,15.5625 0.15626,15.84375 0,0.28124 0.71876,19.5 0.71876,19.5 l 0.18744,3.03125 0.0319,0.78125 c 0,0 0.28134,1.5 0.28134,1.75 0,0.25002 0.12508,2.65625 0.15626,2.78125 0.0319,0.12501 -0.0319,0.875 -0.62497,1.125 -0.59375,0.24998 -2.18753,0.59375 -2.43751,0.625 -0.25016,0.0312 -10.25001,0.75 -10.46874,0.625 -0.21862,-0.12501 -9.46878,1.25 -10.09374,1.3125 -0.62501,0.0625 -8.53126,1.1875 -8.87503,1.125 -0.3437,-0.0625 -3.74999,0.12501 -4.56251,0.0625 -0.81248,-0.0625 -28.8125,1.3125 -29.12499,1.3125 -0.31252,0 -18.09375,0.65625 -18.31252,0.62499 -0.21862,-0.0312 -1.99998,-0.375 -2.25,-0.34373 -0.25016,0.0312 -10.87497,1.18749 -10.99998,1.0625 -0.12508,-0.12501 -11.31251,1.09374 -11.31251,1.09374 0,0 -10.96876,1.15626 -11.09374,1.125 -0.12508,-0.0312 -3.31249,0.21877 -3.31249,0.21877 0,0 -1.43752,-0.4375 -1.90627,-0.65625 -0.46874,-0.21876 -0.99999,-3.15625 -0.99999,-3.15625 l -1.12496,-14.5625 c 0,0 -1.15625,-13.21875 -1.21876,-13.84375 -0.0624,-0.625 -1.56249,-15.90625 -1.59374,-16.03125 -0.0319,-0.12501 -1.03125,-13.71875 -1.0625,-13.84374 -0.0319,-0.12501 -0.5,-12.75001 -0.5,-12.75001 l -0.75001,-10.37499 0.0319,-2.84376 z"
         style="fill:#ffffff;stroke:#999999;stroke-width:0.09999999;stroke-miterlimit:4;stroke-dasharray:none" />
      <path
         sodipodi:nodetypes="ccccccccc"
         inkscape:connector-curvature="0"
         id="path6132"
         d="m 240.26233,501.64636 c 8.48757,-9.81137 16.80314,-19.82052 24.74983,-30.86798 0.2785,0.36743 0.68382,0.73728 0.96243,1.31697 -0.35221,1.19736 -1.09148,2.20423 -1.71741,3.07293 -2.33993,2.58057 -3.63309,4.73361 -5.52352,7.12152 -2.1843,3.02931 -4.69233,5.67157 -7.02687,8.55064 -3.23717,3.59105 -5.54446,7.19834 -8.03385,10.87824 -0.33484,0.54487 -1.11295,1.18555 -1.44783,1.40563 z"
         style="fill:#000000;fill-rule:evenodd;stroke:#999999;stroke-width:0.09999999;stroke-linecap:butt;stroke-linejoin:miter;stroke-miterlimit:4;stroke-dasharray:none;stroke-opacity:1" />
      <path
         sodipodi:nodetypes="cccccccccccsascc"
         inkscape:connector-curvature="0"
         id="path6134"
         d="m 273.86961,480.24409 1.53719,1.22381 c 0.36436,0.41821 -0.14315,0.95376 -0.28842,1.24703 l -10.08107,12.13551 -8.67426,10.01897 -5.25338,6.08917 -4.46287,6.27851 c -0.50063,0.66245 -1.2201,1.60992 -1.86512,2.01948 -0.4849,-0.1885 -0.71979,-0.48994 -0.98501,-0.84323 -0.0478,-0.36701 0.0581,-0.69647 0.14918,-0.9477 0.81964,-1.43437 1.8529,-2.84505 3.03073,-4.43874 0.0177,-0.0728 2.95186,-3.30337 4.22405,-4.85662 2.30843,-2.81847 3.91333,-6.15814 6.1386,-9.04271 2.1622,-2.80281 4.77595,-5.23318 6.98464,-7.9995 3.03016,-3.79518 9.54531,-10.88408 9.54545,-10.88398 z"
         style="stroke:#999999;stroke-width:0.09999999;stroke-miterlimit:4;stroke-dasharray:none" />
      <path
         sodipodi:nodetypes="cccssaccccccaacac"
         inkscape:connector-curvature="0"
         id="path6136"
         d="m 251.64712,526.00242 c -0.24307,0.38281 -0.43891,0.74991 -0.32846,1.01486 0.25759,0.13142 0.60891,0.0757 0.985,-0.0298 0,0 1.20795,-0.3133 1.61185,-0.74622 2.04389,-2.19095 4.70661,-6.25906 7.83531,-9.86505 2.02589,-2.33494 4.46057,-5.21595 6.64137,-7.86518 1.35397,-1.64477 3.99975,-4.98477 3.99975,-4.98477 0.87644,-1.10527 1.68031,-2.13799 3.01475,-3.70126 0.29091,-0.38054 0.33485,-0.73367 0.26859,-1.07456 -0.0602,-0.14495 -0.10524,-0.29898 -0.3582,-0.32835 -0.38179,-0.0379 -0.68028,0.21596 -0.98504,0.44766 -2.33553,2.1753 -3.93983,4.71623 -5.85038,7.10403 0,0 -4.20984,4.88078 -6.3578,7.28313 -1.60065,1.79018 -3.30353,3.48897 -4.86538,5.3131 -0.95301,1.11305 -2.7461,3.43262 -2.7461,3.43262 0,0 -1.22425,1.80475 -1.86555,2.6864 -0.32351,0.44497 -0.70615,0.93436 -0.99992,1.31335 z"
         style="stroke:#999999;stroke-width:0.09999999;stroke-miterlimit:4;stroke-dasharray:none" />
      <path
         inkscape:connector-curvature="0"
         id="path6230"
         d="m 216.13971,608.33627 c 0,0 -0.35362,-1.67938 -0.17681,-2.12132 0.17681,-0.44194 4.99394,-11.53468 5.43589,-12.1534 0.44196,-0.61872 3.75651,-6.67332 4.11006,-7.29204 0.35362,-0.61872 1.76776,-2.82843 1.94453,-3.0494 0.17681,-0.22096 1.81198,-1.14905 1.81198,-1.14905 0,0 0.7071,-2.65165 0.75129,-2.82842 0.0443,-0.17678 0.2211,-1.06066 0.39777,-1.10486 0.17681,-0.0442 6.27555,0.26518 6.71751,0.48614 0.44192,0.22096 5.48008,0.39775 5.922,0.39775 0.44195,0 14.4073,-0.61872 15.33539,-0.7955 0.92807,-0.17678 18.47318,-1.14905 19.57802,-1.14905 1.10487,0 42.47061,-3.49134 43.13352,-3.31456 0.66292,0.17677 8.92722,-0.30937 9.59014,-0.35355 0.66292,-0.0442 3.84488,-0.0884 4.86135,-0.13259 1.01647,-0.0442 3.75651,-0.7071 5.3033,-0.92807 1.5468,-0.22096 8.83885,-1.19326 10.25306,-1.06066 1.4142,0.13259 14.62826,-1.591 14.62826,-1.591 0,0 8.61789,-0.7513 10.73919,-0.97228 2.12131,-0.22096 3.13778,-0.75129 4.33102,-0.53032 1.19325,0.22096 2.56327,0.92807 3.182,2.16551 0.6187,1.23744 3.49133,4.68459 4.55198,6.01042 1.06069,1.32581 7.38042,7.73398 8.61785,8.92721 1.23747,1.19324 2.16553,3.40296 3.04941,3.8449 0.88388,0.44194 3.35877,2.12132 3.75651,3.13779 0.39773,1.01646 1.37002,1.63518 1.14906,2.38648 -0.22111,0.7513 0.39773,1.90035 0,2.38649 -0.39774,0.48613 -0.61874,1.63517 -1.45839,1.72357 -0.8397,0.0884 -2.16553,1.19324 -3.00522,1.10486 -0.8397,-0.0884 -22.8926,2.12132 -24.30681,1.94453 -1.4142,-0.17677 -22.18546,0.70711 -23.55548,0.70711 -1.37002,0 -2.60745,0.53033 -3.27036,0.44195 -0.66292,-0.0884 -4.37524,0.0884 -4.90557,-0.13259 -0.53033,-0.221 -1.23743,-0.17678 -2.07712,-0.26519 -0.8397,-0.0884 -1.59098,0.39776 -2.65167,0.35356 -1.06066,-0.0442 -7.33621,0.26518 -8.13171,0.48613 -0.79551,0.22096 -45.91776,2.91682 -46.93423,2.82843 -1.01646,-0.0884 -17.32411,0.26515 -18.51735,0.22097 -1.19325,-0.0442 -10.7392,0.66291 -11.3579,0.66291 -0.61873,0 -4.37524,0.35355 -5.70107,0.17677 -1.3258,-0.17677 -7.60139,0.97227 -8.70623,0.97227 -1.10487,0 -7.5572,0.7513 -6.67332,0.61872 0.88388,-0.13259 -3.40296,0.13259 -4.46361,-0.0884 -1.06065,-0.22096 -3.8891,0.7513 -4.81716,0.7513 -0.9281,0 -3.53555,0.22096 -4.15428,0.0884 -0.6187,-0.13259 -3.00519,-0.70711 -3.49133,-1.01647 -0.48614,-0.30937 -0.79547,-0.79549 -0.79547,-0.79549 z"
         style="fill:#ffffff;stroke:#999999;stroke-width:0.09999999;stroke-miterlimit:4;stroke-dasharray:none" />
      <path
         sodipodi:nodetypes="ccscsssscscccccscccsssssscssscssccsscccccc"
         inkscape:connector-curvature="0"
         id="path6228"
         d="m 237.15404,584.38302 1.96664,-0.13255 c 0,0 1.01647,-0.57453 2.12134,-0.75131 1.10484,-0.17677 3.13778,-0.17677 3.53551,-0.26514 0.39777,-0.0884 5.83363,-0.22096 6.36396,-0.35355 0.53033,-0.1326 4.19846,-0.57452 4.41942,-0.57452 0.22111,0 4.68458,-0.39775 4.99394,-0.39775 0.30933,0 19.97579,-0.57452 20.19675,-0.53033 0.2211,0.0442 46.22354,-2.87357 46.66103,-2.99857 0.43749,-0.12501 4.5625,-0.81251 4.99999,-0.87501 0.43753,-0.0625 7.3125,-0.4375 7.68753,-0.5625 0.37499,-0.125 15.82575,-0.24852 16.13512,-0.33689 0.30933,-0.0884 8.17593,-0.66291 8.79463,-0.88389 0.61873,-0.22096 7.51302,-1.01646 7.95497,-1.14904 0.44192,-0.13259 1.14903,0.22096 1.76776,0.0442 0.61869,-0.17677 2.07712,-0.61872 2.56326,-0.61872 0.48614,0 1.23743,-0.022 1.63517,0.33148 0.39777,0.35355 6.36782,6.76914 6.52408,7.11289 0.15626,0.34374 6.65624,8.3125 6.78125,8.68751 0.28949,0.36473 2.44906,3.16632 1.86434,4.60625 -0.59346,1.46145 -4.69144,2.31366 -6.19823,2.78424 -1.33856,0.41803 -3.73443,1.04961 -8.72837,0.93912 -4.99394,-0.11048 -9.74481,0.7955 -10.27513,0.61872 -0.53033,-0.17677 -14.93763,0.28726 -15.1144,0.28726 -0.17681,0 -10.25306,0.26518 -13.34665,0.97227 -3.09359,0.70711 -26.03037,0 -26.03037,0 0,0 -8.22012,0.13259 -10.34146,0.30937 -2.12131,0.17678 -17.41249,1.67938 -19.35706,1.59099 -1.94453,-0.0884 -1.94453,0.66291 -4.46361,0.53033 -2.51907,-0.13259 -9.45754,0.48614 -10.5182,0.44194 -1.06065,-0.0442 -10.25305,0.7955 -12.68372,0.44194 -2.43068,-0.35355 -5.96623,1.14905 -7.60143,1.28164 -1.63516,0.13259 -5.30326,-0.0884 -6.85006,-0.0442 -1.54679,0.0442 -15.15862,2.16552 -15.90991,2.2539 -0.75132,0.0884 -0.92806,-0.13259 -1.06065,-0.30936 -0.13252,-0.17678 -0.39777,-1.23744 -0.35362,-1.76777 0.0443,-0.53033 1.01646,-3.40295 0.97224,-3.57973 -0.0443,-0.17678 2.03294,-3.35876 2.56327,-3.84489 0.53032,-0.48614 4.55201,-7.07107 4.81716,-7.64559 0.26504,-0.57453 1.32583,-3.31457 1.54679,-3.71232 0.22111,-0.39774 1.34795,-1.5247 1.34795,-1.5247 z"
         style="fill:#000000;stroke:#999999;stroke-width:0.09999999;stroke-miterlimit:4;stroke-dasharray:none" />
      <path
         inkscape:connector-curvature="0"
         id="path6178"
         d="m 351.02034,592.33798 c 0.17681,0.0442 2.51908,-0.83969 4.81719,-0.97228 2.29809,-0.13259 7.20365,-0.22096 7.20365,-0.22096 0,0 1.06066,1.45841 1.19321,2.47488 0.13252,1.01646 0.26504,2.29809 0.26504,2.29809 0,0 -3.80069,0.70711 -6.58492,0.7955 -2.78426,0.0884 -6.14299,0.0884 -6.14299,0.0884 0,0 -0.66278,-2.03296 -0.61859,-2.56329 0.0443,-0.53033 -0.13252,-1.90035 -0.13252,-1.90035 z"
         style="fill:#ffffff;stroke:#999999;stroke-width:0.09999999;stroke-miterlimit:4;stroke-dasharray:none" />
      <path
         inkscape:connector-curvature="0"
         id="path6180"
         d="m 365.47186,591.01215 c 0,0 0.61869,2.09922 0.86176,2.71794 0.24307,0.61872 0.88388,2.16552 1.19325,2.276 0.30933,0.11048 3.75651,0.30937 4.94975,0.19889 1.19324,-0.11048 3.04941,-0.44195 3.46925,-0.61872 0.41985,-0.17678 0.86177,-0.61872 0.86177,-0.61872 0,0 -1.01647,-3.97748 -1.25954,-4.19845 -0.24307,-0.22096 -4.86135,-0.0663 -4.97183,-0.13259 -0.11055,-0.0663 -2.961,-0.11049 -3.29247,-0.022 -0.3313,0.0884 -0.7734,0.26518 -1.03855,0.26518 -0.26504,0 -0.77339,0.13259 -0.77339,0.13259 z"
         style="fill:#ffffff;stroke:#999999;stroke-width:0.09999999;stroke-miterlimit:4;stroke-dasharray:none" />
      <path
         inkscape:connector-curvature="0"
         id="path6182"
         d="m 377.9567,590.30504 c -0.0886,0.022 -0.48614,1.14905 0.46403,2.98311 0.95017,1.83406 0.8618,1.85616 0.8618,1.85616 0,0 0.70711,0.59662 1.4805,0.50823 0.7734,-0.0884 6.36396,-0.13259 7.38043,-0.35355 1.01647,-0.22096 3.51344,-0.70711 3.8891,-1.28164 0.37562,-0.57452 -0.9281,-2.76213 -0.9281,-2.76213 0,0 -0.55244,-1.06066 -1.34791,-1.41421 -0.79551,-0.35355 -4.08795,-0.48614 -5.25912,-0.46404 -1.17113,0.022 -4.19843,0.30937 -4.64038,0.41984 -0.44193,0.11048 -1.90035,0.50823 -1.90035,0.50823 z"
         style="fill:#ffffff;stroke:#999999;stroke-width:0.09999999;stroke-miterlimit:4;stroke-dasharray:none" />
      <path
         inkscape:connector-curvature="0"
         id="path6184"
         d="m 375.34925,584.36093 c 0,0 -0.17681,1.25953 0.48614,2.34229 0.66292,1.08276 0.83966,1.59099 0.83966,1.59099 0,0 0.68503,0.28726 2.76215,-0.0884 2.07712,-0.37564 6.9385,-0.28725 7.51301,-0.35355 0.57452,-0.0663 1.06066,-0.022 1.10484,-0.50824 0.0443,-0.48613 -1.19324,-2.03293 -2.09919,-2.71794 -0.90599,-0.68501 -0.8397,-1.14905 -1.43632,-1.21534 -0.59662,-0.0663 -3.18199,0.64082 -4.11006,0.59662 -0.9281,-0.0442 -5.06023,0.35355 -5.06023,0.35355 z"
         style="fill:#ffffff;stroke:#999999;stroke-width:0.09999999;stroke-miterlimit:4;stroke-dasharray:none" />
      <path
         inkscape:connector-curvature="0"
         id="path6186"
         d="m 372.32195,577.13518 c 0,0 0,2.07713 0.86177,3.35876 0.86181,1.28163 0.39777,1.32582 0.99436,1.63518 0.59662,0.30937 0.61873,0.66291 0.70714,0.66291 0.0886,0 3.99954,-0.13259 4.79505,-0.22096 0.79551,-0.0884 1.74568,0.0442 2.49697,-0.30937 0.75132,-0.35355 1.19324,-0.55242 1.19324,-0.55242 l -2.76215,-3.73441 c 0,0 -0.90595,-1.12695 -1.56887,-1.30373 -0.66291,-0.17678 -2.69585,-0.0884 -2.80633,-0.11048 -0.11055,-0.022 -2.69586,0.33144 -2.69586,0.33144 0,0 -0.86176,0.35355 -1.08276,0.28725 -0.2211,-0.0663 -0.13252,-0.0442 -0.13252,-0.0442 z"
         style="fill:#ffffff;stroke:#999999;stroke-width:0.09999999;stroke-miterlimit:4;stroke-dasharray:none" />
      <path
         inkscape:connector-curvature="0"
         id="path6188"
         d="m 361.09662,578.4831 c 0,0 -0.39774,0.41985 -0.13252,1.39212 0.26504,0.97227 0.81761,2.60746 1.19324,3.09359 0.37566,0.48614 0.66292,0.72921 0.66292,0.72921 0,0 5.50219,-0.221 5.92203,-0.28726 0.41985,-0.0663 2.54116,-0.13259 2.80634,-0.48613 0.26504,-0.35355 -0.9281,-4.15426 -0.9281,-4.15426 0,0 -0.66292,-1.01646 -0.92806,-1.21534 -0.26504,-0.19888 -2.29809,0 -2.43068,0 -0.13252,0 -3.29247,0.24307 -3.93328,0.41985 -0.64081,0.17678 -2.14342,0.48614 -2.14342,0.48614 z"
         style="fill:#ffffff;stroke:#999999;stroke-width:0.09999999;stroke-miterlimit:4;stroke-dasharray:none" />
      <path
         inkscape:connector-curvature="0"
         id="path6190"
         d="m 363.21796,585.70885 c 0,0 0.64081,2.49697 1.21532,2.98311 0.57451,0.48613 1.70149,0.30937 1.70149,0.30937 0,0 4.70665,0.24307 5.61264,0.022 0.90599,-0.22096 2.23182,-0.57451 2.54119,-0.59661 0.30933,-0.022 -0.55244,-1.96665 -1.03858,-2.51908 -0.48614,-0.55241 -0.7734,-1.17114 -0.7734,-1.17114 0,0 -2.4086,-0.17677 -3.49133,-0.0884 -1.08276,0.0884 -2.82844,0.39775 -3.1157,0.35355 -0.28736,-0.0442 -1.67938,0.33144 -1.92245,0.39775 -0.24307,0.0663 -0.72918,0.30937 -0.72918,0.30937 z"
         style="fill:#ffffff;stroke:#999999;stroke-width:0.09999999;stroke-miterlimit:4;stroke-dasharray:none" />
      <path
         inkscape:connector-curvature="0"
         id="path6192"
         d="m 349.65035,586.26128 c 0,0 -0.17681,0.64081 0.11055,1.81196 0.28737,1.17114 0.28737,1.63518 0.28737,1.63518 0,0 0.46403,0.57453 1.19324,0.57453 0.72918,0 2.51904,-0.55243 2.961,-0.41985 0.44196,0.13259 2.01083,0 2.65167,-0.0663 0.64081,-0.0663 3.60181,-0.22096 4.04373,-0.35356 0.44195,-0.13259 1.41424,-0.28725 1.54683,-0.50824 0.13252,-0.22096 0.13252,-0.90598 -0.26504,-1.63518 -0.39774,-0.7292 -1.01647,-1.5468 -1.01647,-1.5468 0,0 -0.11055,-0.13259 -0.57451,-0.19888 -0.46407,-0.0663 -4.5962,-0.022 -5.3033,0.0663 -0.70711,0.0884 -2.87263,0.22096 -3.46926,0.22096 -0.59662,0 -1.19324,0.11048 -1.19324,0.11048 z"
         style="fill:#ffffff;stroke:#999999;stroke-width:0.09999999;stroke-miterlimit:4;stroke-dasharray:none" />
      <path
         inkscape:connector-curvature="0"
         id="path6194"
         d="m 348.65596,579.69844 c 0,0 -0.44196,-0.41984 -0.37563,0.48614 0.0663,0.90598 0.22111,2.40858 0.22111,2.40858 0,0 0.13251,1.10486 0.37562,1.28163 0.24307,0.17677 1.03858,0.53033 1.14906,0.53033 0.11055,0 3.99958,0.11048 4.37524,0.0442 0.37563,-0.0663 0.30933,-0.26518 0.81758,-0.35355 0.50822,-0.0884 2.03294,-0.022 2.62956,0 0.59662,0.022 1.37002,-0.0663 1.61309,-0.11048 0.24307,-0.0442 -0.0663,-0.17677 0.26504,-0.26518 0.3313,-0.0884 0.57455,-0.0442 0.59662,-0.13259 0.0213,-0.0884 -1.5689,-4.35313 -1.87823,-4.66249 -0.30933,-0.30936 -0.68503,-0.0884 -0.88388,-0.17677 -0.19878,-0.0884 -0.68503,0.30936 -1.01647,0.26514 -0.33165,-0.0442 -3.29248,0.0442 -3.29248,0.0442 0,0 -0.81758,0.28725 -1.70149,0.28725 -0.88388,0 -1.65728,0.22096 -1.65728,0.22096 z"
         style="fill:#ffffff;stroke:#999999;stroke-width:0.09999999;stroke-miterlimit:4;stroke-dasharray:none" />
      <path
         inkscape:connector-curvature="0"
         id="path6196"
         d="m 336.96662,580.29506 c 0.53033,-0.0442 1.74565,-0.19889 2.78423,-0.24307 1.03854,-0.0442 4.50779,-0.0884 4.64038,-0.0884 0.13252,0 0.59663,-0.46404 1.17114,-0.39775 0.57451,0.0663 0.79551,0.57452 0.79551,0.57452 0,0 0.57451,2.36439 0.61869,2.87263 0.0443,0.50823 0.46407,1.01646 0.19878,0.97227 -0.26504,-0.0442 -0.83969,0.24307 -0.83969,0.24307 0,0 0.24307,0.41984 -0.44196,0.39774 -0.68499,-0.022 -3.07148,0.13259 -3.15985,0.13259 -0.0882,0 -2.01086,0.41984 -2.78426,0.26515 -0.7734,-0.15467 -2.07712,0.0442 -2.40856,0.022 -0.3313,-0.022 -0.61873,-1.61309 -0.61873,-1.61309 0,0 -0.13252,-2.18761 -0.22111,-2.36439 -0.0886,-0.17678 0.26504,-0.7734 0.26504,-0.7734 z"
         style="fill:#ffffff;stroke:#999999;stroke-width:0.09999999;stroke-miterlimit:4;stroke-dasharray:none" />
      <path
         sodipodi:nodetypes="cccccscccsccsscccc"
         inkscape:connector-curvature="0"
         id="path6198"
         d="m 338.02728,586.8579 c -0.53033,0.24307 -0.44196,0.68501 -0.44196,0.68501 0,0 -0.0886,2.07712 0.28736,2.78423 0.37566,0.70711 0.55244,0.72921 0.55244,0.72921 0,0 3.97747,0.022 4.30894,-0.0442 0.3313,-0.0663 0.37563,-0.37565 0.81759,-0.37565 0.44192,0 1.74568,-0.0663 1.98875,-0.0442 0.24307,0.022 0.0213,-0.26518 0.66288,-0.28725 0.64084,-0.022 1.52472,0.0442 1.72357,-0.0663 0.19878,-0.11048 0.46407,-0.41984 0.46407,-0.95017 0,-0.53033 -0.46407,-2.01084 -0.57455,-2.40858 -0.11055,-0.39775 -0.37562,-0.99437 -0.37562,-0.99437 0,0 -1.03858,-0.24307 -1.81198,-0.11048 -0.7734,0.13259 -2.05501,0.30936 -2.23182,0.30936 -0.17681,0 -2.18761,0.13259 -2.51905,0.11048 -0.3313,-0.022 -0.72921,0.26515 -0.97228,0.28726 -0.24307,0.022 -1.10491,0.022 -1.10491,0.022 -0.0886,0.022 -0.24307,0.11044 -0.77343,0.35351 z"
         style="fill:#ffffff;stroke:#999999;stroke-width:0.09999999;stroke-miterlimit:4;stroke-dasharray:none" />
      <path
         inkscape:connector-curvature="0"
         id="path6202"
         d="m 237.53764,586.62925 c -0.28134,0.15626 -0.40628,0.53125 -0.53125,0.6875 -0.12508,0.15626 -1.75001,3.6875 -1.75001,3.6875 l -0.25015,0.40625 c 0,0 0,0.25001 0.68747,0.15626 0.68751,-0.0937 3.59376,-0.375 3.59376,-0.375 0,0 2.62499,-0.46875 3.06252,-0.46875 0.43749,0 0.84373,0 0.90623,-0.18751 0.0624,-0.18752 0.78127,-2.84376 0.96874,-3.18751 0.18745,-0.34373 0.37503,-1.71874 0.31252,-1.96875 -0.0624,-0.24998 -0.74997,-0.0625 -1.15625,-0.0312 -0.40624,0.0312 -2.56248,0.40625 -2.90622,0.53125 -0.3437,0.12501 -2.93751,0.75 -2.93751,0.75 z"
         style="fill:#ffffff;stroke:#999999;stroke-width:0.09999999;stroke-miterlimit:4;stroke-dasharray:none" />
      <path
         inkscape:connector-curvature="0"
         id="path6200"
         d="m 338.47515,593.4105 c -0.0939,-0.12501 -0.25016,1.34375 -0.28134,2.15625 -0.0319,0.8125 0.31252,1.53125 0.46875,1.84375 0.15626,0.31248 0.25015,0.90625 0.49999,0.8125 0.25016,-0.0937 0.59376,-0.28123 1.125,-0.40625 0.53125,-0.12501 2.50002,-0.375 3.06252,-0.375 0.5625,0 3.375,-0.0937 3.87499,-0.21876 0.5,-0.12501 0.71876,-0.34374 1.25001,-0.40626 0.53125,-0.0625 1.0625,0.46876 1.09375,-0.0625 0.0319,-0.53125 -0.0319,-1.96875 -0.0319,-2.09375 0,-0.12501 0.25016,0.0312 -0.25016,-1.1875 -0.49999,-1.21875 -0.5625,-1.09375 -0.75001,-1.1875 -0.18744,-0.0937 -2.78125,-0.28123 -3.15623,-0.21876 -0.37503,0.0625 -3.18753,0.0625 -3.375,0.15626 -0.18745,0.0937 -0.62501,0.53125 -1.50003,0.53125 -0.87498,0 -1.71875,0.40625 -1.71875,0.40625 z"
         style="fill:#ffffff;stroke:#999999;stroke-width:0.09999999;stroke-miterlimit:4;stroke-dasharray:none" />
      <path
         inkscape:connector-curvature="0"
         id="path6204"
         d="m 247.75636,585.12925 c 0.2498,-0.0937 1.25,-0.46875 1.50002,-0.5 0.25016,-0.0312 0.99999,-0.25002 1.21876,-0.25002 0.21862,0 5.46874,-0.28126 5.71872,-0.18751 0.2498,0.0937 0.40627,0.5 0.31252,0.71875 -0.0935,0.21877 -1.37498,4.25 -1.40624,4.5 -0.0319,0.24998 -0.46874,1.25 -0.46874,1.25 0,0 -3.75002,-0.0625 -4.21877,-0.12501 -0.46874,-0.0625 -2.8125,-0.0312 -3.06248,-0.0312 -0.25016,0 0.12508,-0.65625 -0.12508,-1.09374 -0.2498,-0.4375 0.0319,-2.09376 0.0319,-2.09376 z"
         style="fill:#ffffff;stroke:#999999;stroke-width:0.09999999;stroke-miterlimit:4;stroke-dasharray:none" />
      <path
         inkscape:connector-curvature="0"
         id="path6206"
         d="m 259.38138,584.098 c -0.28134,-0.15626 -0.81252,0.12501 -0.81252,0.12501 l -0.37498,0.15626 -1.25001,4.9375 -0.21862,0.8125 c 0,0 0.625,0.25001 0.84376,0.18751 0.21863,-0.0625 0.5625,0.28123 0.5625,0.28123 l 5.65626,-0.0312 c 0,0 -0.0319,-0.21876 0.3437,-0.28123 0.37498,-0.0625 1.90622,-0.12501 1.90622,-0.12501 0,0 0.15626,-0.21876 0.4375,-0.21876 0.28134,0 1.15625,-0.0312 1.15625,-0.0312 0,0 0.0935,-0.12501 0.46874,-0.18752 0.37503,-0.0625 0.96878,-0.0625 0.96878,-0.0625 0,0 0.90623,-2.65625 0.99999,-2.90625 0.0935,-0.24998 0.3437,-1.40625 0.3437,-1.40625 0,0 0.12508,-1.4375 0.0935,-1.625 -0.0319,-0.18751 -0.81251,-0.24998 -0.99999,-0.31249 -0.18744,-0.0625 -1.71875,0.0625 -1.71875,0.0625 l -2.65624,0.24998 c 0,0 -2.18753,0.0625 -2.34376,0.0937 -0.15626,0.0312 -3.40625,0.28123 -3.40625,0.28123 z"
         style="fill:#ffffff;stroke:#999999;stroke-width:0.09999999;stroke-miterlimit:4;stroke-dasharray:none" />
      <path
         inkscape:connector-curvature="0"
         id="path6208"
         d="m 273.41263,583.62925 c -0.12508,-0.0312 -0.78127,-0.0625 -0.78127,-0.0625 l -0.53124,1.31249 -0.28134,1.78126 -0.3437,1.5625 0.21862,1.03125 c 0,0 1.06249,0.0312 1.59374,-0.0625 0.53125,-0.0937 2.43751,-0.0937 2.78125,-0.0312 0.3437,0.0625 4.59376,-0.28123 4.59376,-0.28123 0,0 0.6875,-2.125 0.65625,-2.34375 -0.0319,-0.21876 0.28134,-1.625 0.28134,-1.9375 0,-0.31248 -0.12508,-1.03125 -0.12508,-1.03125 l -0.93749,-0.31248 c 0,0 -2.375,0.375 -2.65627,0.34373 -0.28134,-0.0312 -1.59375,0.18752 -1.74997,0.15626 -0.15626,-0.0312 -2.71878,-0.125 -2.71878,-0.125 z"
         style="fill:#ffffff;stroke:#999999;stroke-width:0.09999999;stroke-miterlimit:4;stroke-dasharray:none" />
      <path
         inkscape:connector-curvature="0"
         id="path6210"
         d="m 272.41264,590.62925 c -0.12508,-0.0312 -0.75002,0.15626 -0.87502,0.0937 -0.12508,-0.0625 -0.81248,0.43751 -0.81248,0.43751 l -0.65626,1.53124 -0.40628,0.87501 c 0,0 -0.0319,1.46875 0,1.71874 0.0319,0.25002 -0.12507,0.59376 0.37503,0.4375 0.49999,-0.15626 1.40623,-0.24998 1.84376,-0.28123 0.43749,-0.0312 4.06247,-0.28123 4.18748,-0.31248 0.12508,-0.0312 1.09375,0 1.46873,-0.0625 0.37503,-0.0625 2.8125,0 2.8125,0 0,0 -0.21862,-1.6875 -0.12507,-2 0.0935,-0.31248 0.6875,-1.84375 0.6875,-2.125 0,-0.28123 -0.0319,-0.96875 -0.0319,-0.96875 0,0 -1.75,0.4375 -2.03123,0.34374 -0.28134,-0.0937 -1.53128,-0.0625 -1.75001,-0.0937 -0.21862,-0.0312 -0.49999,0.28123 -0.49999,0.28123 0,0 -0.84377,0.0625 -0.99999,0.0625 -0.15626,0 -3.18753,0.0625 -3.18753,0.0625 z"
         style="fill:#ffffff;stroke:#999999;stroke-width:0.09999999;stroke-miterlimit:4;stroke-dasharray:none" />
      <path
         inkscape:connector-curvature="0"
         id="path6212"
         d="m 271.44386,596.6605 c -0.25016,0 -0.25016,-0.12501 -0.81248,0.0937 -0.5625,0.21877 -1.15625,0.59375 -1.28126,0.78125 -0.12508,0.18752 -0.78126,1.09376 -0.81252,1.28125 -0.0319,0.18752 -0.15626,1.56251 -0.15626,1.90625 0,0.34374 0.0319,0.71876 0.37503,0.8125 0.3437,0.0937 0.84373,-0.0937 1.34373,-0.125 0.50003,-0.0312 2.3125,-0.0312 2.84375,-0.0937 0.53125,-0.0625 1.87501,-0.15626 2.40626,-0.28123 0.53125,-0.12501 1.31251,0.0625 1.93751,0 0.62501,-0.0625 1.15626,0.0625 1.78122,-0.0937 0.62501,-0.15626 1.09379,-0.21876 1.00003,-0.6875 -0.0935,-0.46875 -0.12508,-1.0625 -0.12508,-1.5625 0,-0.49999 0.0319,-1.03125 0.0935,-1.46875 0.0624,-0.43749 0.18744,-0.90625 -0.0319,-1.0625 -0.21863,-0.15626 -0.59376,0.0312 -0.84377,-0.0312 -0.2498,-0.0625 -0.46875,-0.0625 -0.87499,-0.0625 -0.40627,0 -1.37501,0.0937 -2.00002,0.18751 -0.625,0.0937 -1.1875,0 -1.53124,0.0312 -0.3437,0.0312 -0.93748,0.31249 -1.09374,0.28123 -0.15626,-0.0312 -1.09375,-0.15626 -1.53124,-0.0625 -0.43753,0.0937 -0.68751,0.15626 -0.68751,0.15626 z"
         style="fill:#ffffff;stroke:#999999;stroke-width:0.09999999;stroke-miterlimit:4;stroke-dasharray:none" />
      <path
         sodipodi:nodetypes="ssccsscccscccccscccscs"
         inkscape:connector-curvature="0"
         id="path6216"
         d="m 254.94388,602.22301 c 0.5,-0.0625 2.1875,0.125 2.59374,0.0625 0.40624,-0.0625 1.87501,-0.0937 2.46876,-0.12501 0.59376,-0.0312 2.09374,0.15626 2.40623,-0.0625 0.31252,-0.21877 0.65625,-0.34374 1.03128,-0.34374 0.37499,0 0.3437,0.0625 0.81248,-0.0625 0.46874,-0.12501 0.43749,-0.0312 0.90623,-0.12501 0.46878,-0.0937 0.65626,0.12501 0.81252,-0.46875 0.15626,-0.59375 0.0935,-0.875 0.31252,-1.28125 0.21862,-0.40625 0.46874,-0.8125 0.53125,-1.21875 0.0624,-0.40625 0.15626,-1.0625 0,-1.25 -0.15626,-0.18751 -0.5,0.0312 -0.62501,-0.12501 -0.12508,-0.15626 -0.71872,-0.0312 -1.03124,-0.0625 -0.31252,-0.0312 -4,0.12501 -4.15626,0.0937 -0.15626,-0.0312 -1.65625,-0.125 -1.96874,-0.0937 -0.31252,0.0312 -1.71875,0.24998 -1.87501,0.24998 -0.15626,0 -1.21872,0.14063 -1.21872,0.14063 -0.53125,0.0469 -0.78126,0.17192 -0.99999,0.23443 -0.21862,0.0625 -0.84377,0.18751 -1.125,0.625 -0.28134,0.4375 -0.37502,0.40625 -0.5625,1.625 -0.18744,1.21875 -0.0429,2.0703 -0.0429,2.0703 0.60541,0.14843 1.23042,0.17968 1.73041,0.11718 z"
         style="fill:#ffffff;stroke:#999999;stroke-width:0.09999999;stroke-miterlimit:4;stroke-dasharray:none" />
      <path
         inkscape:connector-curvature="0"
         id="path6218"
         d="m 243.29703,598.32629 c -0.35362,0.0663 -0.55243,0.48613 -0.72921,0.68501 -0.17681,0.19889 -0.86177,1.63518 -0.99436,1.78986 -0.13252,0.15466 -0.61873,1.81196 -0.59662,1.92245 0.0213,0.11048 -0.61873,0.24307 0,0.53033 0.61873,0.28725 1.5468,0.19888 1.65728,0.19888 0.11055,0 2.23182,-0.24307 2.36437,-0.26514 0.13252,-0.022 1.65731,-0.17678 1.90039,-0.0663 0.24307,0.11048 0.75128,0 1.03854,-0.11048 0.28736,-0.11048 0.88388,-0.15466 0.88388,-0.15466 0,0 -0.11055,-0.28733 0.11055,-0.55247 0.2211,-0.26519 1.12698,-2.3423 1.23746,-2.56327 0.11055,-0.22096 0.37563,-1.06066 0.28736,-1.25953 -0.0882,-0.19889 -1.19324,-0.13259 -1.30372,-0.15467 -0.11055,-0.022 -2.78426,-0.0663 -3.07152,-0.022 -0.28736,0.0442 -2.76211,-0.0442 -2.76211,-0.0442 z"
         style="fill:#ffffff;stroke:#999999;stroke-width:0.09999999;stroke-miterlimit:4;stroke-dasharray:none" />
      <path
         inkscape:connector-curvature="0"
         id="path6220"
         d="m 246.54532,591.78555 c -0.19878,-0.0442 -0.37566,0.0884 -0.50825,0.15467 -0.13252,0.0663 -0.81758,1.01645 -0.97228,1.19324 -0.15449,0.17677 -1.06065,2.03293 -1.12695,2.12131 -0.0663,0.0884 -0.30933,1.21534 -0.30933,1.21534 0,0 0.0663,0.53033 0.24307,0.48615 0.17681,-0.0442 0.53033,-0.0663 0.64084,0 0.11055,0.0663 0.26504,0.37564 0.46403,0.35355 0.19878,-0.022 2.82841,-0.0884 2.93893,-0.0884 0.11055,0 0.81758,-0.15466 1.03854,-0.24307 0.22111,-0.0884 0.88388,-0.0884 1.08277,-0.11048 0.19878,-0.022 1.37002,0.11048 1.63516,0.0442 0.26504,-0.0663 0.30933,-0.0663 0.46407,-0.50823 0.15484,-0.44194 0.83966,-1.63518 0.99436,-2.07713 0.15484,-0.44194 0.44192,-1.39211 0.48614,-1.63518 0.0443,-0.24307 0.39774,-0.35355 0.0213,-0.50823 -0.37566,-0.1547 -0.44196,-0.13259 -0.90599,-0.13259 -0.46403,0 -1.01647,-0.0442 -1.25954,0 -0.24307,0.0442 0.0213,-0.0884 -0.59662,-0.13259 -0.6187,-0.0442 -0.79547,0 -1.3921,-0.0884 -0.59662,-0.0884 -2.32019,-0.0442 -2.32019,-0.0442 z"
         style="fill:#ffffff;stroke:#999999;stroke-width:0.09999999;stroke-miterlimit:4;stroke-dasharray:none" />
      <path
         inkscape:connector-curvature="0"
         id="path6224"
         d="m 234.5687,593.06718 c 0.24307,-0.0663 -0.35362,0.24307 -0.59662,0.41984 -0.24307,0.17677 -1.25954,1.50261 -1.61309,2.05503 -0.35363,0.55243 -0.99436,1.81196 -1.10488,1.98874 -0.11055,0.17677 -0.39773,0.68501 0.26504,0.57453 0.66292,-0.11048 1.90035,-0.13259 2.16553,-0.26518 0.26504,-0.13259 1.39209,0.11048 1.87823,0.0442 0.48615,-0.0663 0.72922,-0.30936 1.21536,-0.35355 0.48614,-0.0442 1.03854,0.0663 1.45839,0.022 0.41985,-0.0442 0.79551,0.022 1.17117,0 0.37562,-0.022 0.92806,0.15467 1.08276,-0.11048 0.15484,-0.26515 0.3313,-1.08275 0.5524,-1.39211 0.22111,-0.30937 0.61874,-1.41422 0.75133,-1.78987 0.13252,-0.37565 0.44192,-1.23743 0.37562,-1.59099 -0.0663,-0.35355 -0.41984,-0.37565 -0.88388,-0.41984 -0.46403,-0.0442 -1.76775,0.11048 -2.20971,0.11048 -0.44192,0 -1.74564,0.15467 -2.01082,0.17678 -0.26504,0.022 -0.97225,0 -1.28162,0.0884 -0.30933,0.0884 -1.21535,0.44194 -1.21535,0.44194 z"
         style="fill:#ffffff;stroke:#999999;stroke-width:0.09999999;stroke-miterlimit:4;stroke-dasharray:none" />
      <path
         inkscape:connector-curvature="0"
         id="path6226"
         d="m 229.83991,600.18244 c 0.0663,-0.0884 0.26504,-0.37565 0.66291,-0.57452 0.39774,-0.19889 0.8397,-0.22096 1.14906,-0.28726 0.30933,-0.0663 1.23743,-0.0663 1.25954,-0.17677 0.0213,-0.11048 0.19878,-0.022 0.5524,0 0.35363,0.022 0.75133,-0.022 1.65728,-0.15467 0.90599,-0.13259 1.14906,-0.15466 1.52472,-0.19888 0.37563,-0.0442 0.99436,-0.15467 1.43632,-0.13259 0.44192,0.022 1.17113,-0.15467 1.4805,0.28725 0.30933,0.44194 0.0663,1.08275 -0.0213,1.37001 -0.0882,0.28726 -1.06066,2.67375 -1.06066,2.67375 0,0 0,0.61872 -0.61873,0.50823 -0.61873,-0.11048 -1.70146,0.17678 -1.96664,0.17678 -0.26504,0 -1.59098,0.19888 -2.01083,0.24307 -0.41985,0.0442 -3.86699,0.33144 -4.97186,-0.0884 -1.10484,-0.41984 -0.99436,-0.88388 -0.88388,-0.99437 0.11055,-0.11048 0.48614,-0.7292 0.55244,-1.03856 0.0663,-0.30936 0.61869,-1.03856 0.72921,-1.21534 0.11055,-0.17677 0.53033,-0.39775 0.53033,-0.39775 z"
         style="fill:#ffffff;stroke:#999999;stroke-width:0.09999999;stroke-miterlimit:4;stroke-dasharray:none" />
      <path
         inkscape:connector-curvature="0"
         id="path6222"
         d="m 256.31224,592.11701 c -0.0882,0.0663 -0.2211,0.39774 -0.41985,0.7071 -0.19878,0.30936 -0.8618,2.23181 -0.8618,2.23181 0,0 -0.24307,0.90598 -0.0663,1.12695 0.17681,0.22096 0.61873,0.0884 0.90599,0.0663 0.28736,-0.022 2.1213,0.0884 2.23178,0.0442 0.11056,-0.0442 -0.24307,-0.17677 0.44196,-0.28725 0.68499,-0.11048 2.01083,0.0663 2.29808,-0.022 0.28737,-0.0884 2.56327,0.022 2.56327,0.022 0,0 -0.28737,-0.33144 0.35362,-0.35355 0.64081,-0.022 1.7015,-0.022 1.81198,-0.0442 0.11055,-0.022 0.81758,0.0663 1.03854,0.0442 0.2211,-0.022 0.68503,-0.17678 0.83969,-0.41985 0.15449,-0.24307 0.30933,-0.90598 0.46403,-1.37001 0.15485,-0.46404 0.66292,-1.96665 0.59663,-2.25391 -0.0663,-0.28726 -0.28737,-0.19889 -0.53033,-0.28726 -0.24307,-0.0884 -1.43632,0.022 -1.59098,0 -0.15484,-0.022 -1.14906,0.19885 -1.3921,0.19885 -0.24307,0 -1.17117,0.0663 -1.17117,0.0663 0,0 0.46404,0.15466 -0.75128,0.17677 -1.21536,0.022 -2.67375,0.17678 -2.82845,0.13259 -0.15484,-0.0442 -0.75129,0.0442 -1.01647,0.0442 -0.26504,0 -2.91681,0.17677 -2.91681,0.17677 z"
         style="fill:#ffffff;stroke:#999999;stroke-width:0.09999999;stroke-miterlimit:4;stroke-dasharray:none" />
      <path
         inkscape:connector-curvature="0"
         id="path6232"
         d="m 218.50409,612.82198 c 0,0 -0.77336,0.30937 -0.92806,0.77339 -0.15485,0.46404 0.13251,0.61872 0.13251,0.61872 0,0 1.10484,0.86179 1.67939,0.95018 0.57451,0.0884 2.78423,0.57452 3.15989,0.66291 0.37566,0.0884 4.90553,0.15467 5.54637,0.15467 0.64081,0 2.03294,-0.11049 2.56326,-0.22097 0.53033,-0.11048 6.98266,-0.0442 7.49091,-0.19888 0.50822,-0.15467 7.09317,-0.0663 7.38043,-0.17678 0.28736,-0.11048 2.74003,-0.33147 3.35877,-0.44194 0.61869,-0.11048 5.56845,-0.61872 6.16507,-0.68501 0.59662,-0.0663 1.6352,-0.37565 2.27601,-0.33144 0.6408,0.0442 2.74003,-0.0442 3.38084,-0.13259 0.64081,-0.0884 8.17594,0.0442 8.48527,-0.0442 0.30933,-0.0884 2.12134,-0.44194 2.78426,-0.48613 0.66291,-0.0442 10.12046,-0.19888 10.47401,-0.15466 0.35362,0.0442 6.31977,-0.0884 6.45233,-0.11048 0.13252,-0.022 27.35621,-1.37002 27.70976,-1.43631 0.35362,-0.0663 5.98833,-0.24307 6.31977,-0.33144 0.3313,-0.0884 11.24741,-0.86179 12.83839,-1.08277 1.59102,-0.22096 4.35313,-1.06066 5.54638,-1.10485 1.19324,-0.0442 14.69459,-0.7071 15.88783,-0.68501 1.19321,0.022 8.79463,-0.50824 9.63433,-0.57452 0.83969,-0.0663 14.20841,-0.95018 14.95973,-1.03856 0.75129,-0.0884 15.37955,-2.05503 15.37955,-2.05503 0,0 2.71584,-0.15474 3.70024,-0.65475 0.98437,-0.5 2.85934,-1.90625 3.0156,-2.14063 0.15626,-0.23439 0.29693,-0.39062 0.14067,-0.46874 -0.15626,-0.0781 -0.31252,0.10938 -0.85939,0.0625 -0.54684,-0.0469 -4.24999,0.64062 -4.51559,0.67187 -0.26575,0.0312 -17.85941,1.90625 -18,1.85938 -0.14067,-0.0469 -11.79691,1.03125 -12.29691,1.0625 -0.5,0.0312 -7.95309,-0.20313 -8.60935,-0.35938 -0.65626,-0.15626 -4.89065,-0.10938 -5.29689,-0.0781 -0.40624,0.0312 -4.59376,0.54687 -5.23439,0.53124 -0.64063,-0.0156 -9.23435,0.34374 -9.85935,0.40625 -0.62501,0.0625 -10.29689,0.79688 -10.79689,0.78125 -0.49999,-0.0156 -29.28125,2.26563 -29.62498,2.26563 -0.3437,0 -4.18752,0.0937 -4.53126,0.0625 -0.3437,-0.0312 -4.53125,0.4375 -5.28126,0.5 -0.75001,0.0625 -2.71874,0.18751 -2.90626,0.12501 -0.18744,-0.0625 -17.24998,0.53125 -17.62497,0.46875 -0.37503,-0.0625 -6.82994,0.20806 -8.02318,0.42902 -1.19325,0.22096 -9.8774,1.14905 -12.08711,1.21534 -2.20971,0.0663 -9.96576,0.46404 -11.71144,0.50823 -1.74569,0.0442 -7.88865,0.61872 -8.94934,0.7513 -1.06065,0.13259 -6.89428,0.15466 -7.09316,0.17677 -0.19878,0.022 -2.23179,-0.0442 -2.23179,-0.0442 z"
         style="fill:#ffffff;stroke:#999999;stroke-width:0.09999999;stroke-miterlimit:4;stroke-dasharray:none" />
      <path
         sodipodi:nodetypes="cccasssssccssacsccscccsascaccc"
         inkscape:connector-curvature="0"
         id="path6146"
         d="m 286.86401,615.6003 c -4.00082,4.34924 -5.77445,8.75875 -3.30091,13.76568 2.727,3.99012 2.34521,4.01755 12.21559,7.24652 5.31131,1.28024 11.02004,1.8112 16.57237,1.70639 4.45928,-0.0842 9,-0.51484 13.24863,-1.87181 2.90215,-0.92692 5.45071,-2.43864 6.2493,-4.20118 0.81648,-1.80208 1.32502,-5.46532 -0.28594,-6.1806 -1.93433,-0.85892 -12.20744,0.16554 -18.26465,0.84951 -4.84204,0.54674 -9.73315,0.79863 -14.60374,0.653 -8.17757,-0.24453 -10.49131,-4.3677 -5.2869,-10.71053 1.07908,-1.58399 1.88993,-2.41481 3.25091,-3.90869 3.89286,-0.62265 9.04202,0.0535 13.97034,-0.75725 5.9007,-0.97071 13.28219,-2.25207 18.26943,-6.3353 4.63437,-3.79431 5.97678,-5.71935 7.27243,-9.48754 1.84333,-5.3611 0.62486,-11.3583 0.14208,-17.00686 -1.52992,-14.6868 -3.25378,-31.05381 -5.14605,-42.91261 -1.01356,-6.35178 -1.32721,-8.56115 -2.83918,-14.85962 -0.0719,-0.97665 -1.5751,-5.0397 -2.7507,-5.60065 -1.54024,0.10053 -1.10512,2.31033 -7.58307,4.0451 -5.09935,1.36558 -9.38339,0.54965 -14.09676,-0.50151 -3.33177,-0.66001 -8.51942,-3.17662 -9.26657,-3.92017 0,0 -0.61685,-0.0594 -1.00367,-0.022 -3.04427,1.56962 -4.21367,9.16596 -5.25742,13.75018 -1.01945,4.47733 -1.45322,9.17556 -2.24203,13.7529 -1.42802,8.28669 -2.62591,16.95503 -4.50903,24.82026 -1.85415,7.74419 -4.21973,14.80612 -4.60187,21.32482 -0.63851,5.16551 2.33617,9.70549 5.12582,13.70717 2.3479,3.36798 6.83642,6.81572 9.33204,8.03842 -1.5401,1.55539 -3.4251,3.32492 -4.61062,4.61631 z"
         style="fill:#000000;stroke:#999999;stroke-width:0.09999999;stroke-miterlimit:4;stroke-dasharray:none" />
      <ellipse
         transform="matrix(1,0,-0.08118453,0.99669909,0,0)"
         ry="6.2476354"
         rx="6.2270112"
         style="fill:#ffffff;stroke:#999999;stroke-width:0.1001655;stroke-miterlimit:4;stroke-dasharray:none"
         id="circle6144"
         cx="346.09476"
         cy="536.12988" />
      <circle
         r="1.5348465"
         cy="534.30042"
         cx="302.47974"
         id="path6138"
         style="fill:#000000;stroke:#999999;stroke-width:0.10000002;stroke-miterlimit:4;stroke-dasharray:none" />
      <ellipse
         transform="matrix(1,0,-0.05298353,0.99859539,0,0)"
         ry="6.2653389"
         rx="6.2565379"
         cy="535.052"
         cx="344.14127"
         id="circle6142"
         style="fill:#ffffff;stroke:#999999;stroke-width:0.1000703;stroke-miterlimit:4;stroke-dasharray:none" />
      <circle
         style="fill:#000000;stroke:#999999;stroke-width:0.10000002;stroke-miterlimit:4;stroke-dasharray:none"
         id="circle6140"
         cx="315.91177"
         cy="534.30042"
         r="1.5348465" />
      <path
         inkscape:connector-curvature="0"
         id="path6240"
         d="m 215.17309,640.09324 -1.6582,0.0215 c -0.99252,0.0528 -1.30055,1.49824 -0.82618,2.17382 -0.0354,1.17633 -0.19531,2.78551 -0.19531,4.69336 0.004,7.81379 0.2837,14.31642 0.63672,21.57813 0.0535,1.19067 -0.51592,2.60648 0.87695,3.01172 1.45453,0.12306 2.42692,-0.59548 3.45508,-1.16211 1.90931,-1.05226 3.61656,-2.40004 4.63477,-3.86719 0.94454,-1.29337 1.54604,-2.84635 2.03906,-4.35156 0.48841,-2.08376 0.54532,-4.06869 0.53125,-6.11524 -0.0106,-1.60826 -0.0852,-3.27315 -0.48437,-4.80078 -0.46531,-1.60825 -0.0245,-2.32248 -2.72657,-7.08984 -0.5879,-1.03792 -1.57645,-1.72886 -2.49023,-2.57031 -1.81662,-1.08591 -2.93666,-1.24984 -3.79297,-1.52149 z m -0.11914,2.60352 0.002,0 c 1.03146,-0.0394 2.52696,0.76371 3.46094,1.83789 0.87775,0.99413 1.74661,2.41946 2.17383,3.31054 0.9107,1.89951 1.39353,4.5988 1.50195,5.48047 0.23634,1.92519 0.19957,4.66483 -0.0449,6.1211 -0.38204,2.27483 -1.36307,5.29973 -2.58594,6.54101 -1.24242,1.26112 -3.37203,2.52812 -3.55664,2.57422 -0.43607,0.1271 -0.53834,0.0453 -0.53125,-0.29883 0.14354,-8.51287 -0.99064,-16.79048 -0.41992,-25.5664 z"
         style="fill:#000000;stroke:#999999;stroke-width:0.09999999;stroke-miterlimit:4;stroke-dasharray:none" />
      <path
         inkscape:connector-curvature="0"
         id="path6242"
         d="m 267.56567,677.82566 c -1.13779,-0.0595 -2.23646,0.44908 -3.01953,1.19727 -1.11101,1.06152 -1.58832,2.69733 -1.89454,4.20312 -0.5344,2.62812 -0.63867,5.4903 0.17774,8.04493 0.49932,1.56246 1.32056,3.29415 2.76562,4.07031 0.77361,0.41552 1.8765,0.47569 2.63282,0.0293 1.82724,-1.07806 2.57646,-3.66614 3.01367,-5.60547 0.6295,-2.79219 0.42342,-6.5405 -0.0352,-7.94336 -0.21862,-0.66857 -1.14893,-3.86584 -3.64062,-3.9961 z m -0.0762,1.40821 c 1.00498,0 1.7395,1.29637 2.13086,2.17968 0.68832,1.55362 0.63691,3.36607 0.58203,5.06446 -0.0539,1.66055 -0.26367,3.26534 -0.88672,4.90429 -0.44288,1.16498 -1.00283,2.71832 -2.34571,2.92188 -0.67138,0.10176 -1.29059,-0.58613 -1.69336,-1.13281 -0.9097,-1.23464 -1.11442,-2.88917 -1.31054,-4.41016 -0.20764,-1.61158 -0.0647,-3.26348 0.1582,-4.87305 0.17079,-1.23443 0.53059,-2.82364 1.46875,-3.81054 0.47636,-0.50108 0.8915,-0.84375 1.89649,-0.84375 z"
         style="fill:#000000;stroke:#999999;stroke-width:0.09999999;stroke-miterlimit:4;stroke-dasharray:none" />
      <path
         sodipodi:nodetypes="csssssassssaasssssssaaaaassasac"
         inkscape:connector-curvature="0"
         id="path6246"
         d="m 253.68286,641.56675 c -0.3976,-0.13475 -1.05623,0.0779 -1.29689,0.42186 -0.35918,0.51349 -0.15165,1.7357 -0.20303,2.76562 -0.1676,3.36416 -0.36397,6.87406 -0.45312,10.25 -0.0893,3.38424 -0.0609,6.7813 -0.0142,10.15625 0.0283,2.16838 0.2133,4.77756 0.23775,6.52746 0.007,0.40015 0.75405,0.89544 1.25791,0.84943 0.5315,-0.0485 1.07965,-0.50638 1.14265,-1.12153 0.0971,-0.94685 -0.0957,-4.03365 -0.15414,-6.09911 -0.0985,-3.47351 -0.14633,-6.96571 -0.0213,-10.42645 0.084,-2.33935 0.25725,-6.95102 0.32315,-7.32734 0.0691,-0.39471 0.37584,0.70084 0.54043,1.0625 1.34965,2.96621 2.49144,6.02347 3.65815,9.06629 1.3095,3.41527 2.42422,6.9035 3.74998,10.3125 0.7272,1.86986 1.01456,4.08839 1.70961,4.75065 0.22996,0.2193 0.64528,0.18667 0.94855,0.0988 0.54489,-0.15789 0.96154,-0.50039 0.94096,-1.35767 -0.0397,-1.64942 -0.13359,-4.71714 -0.25725,-7.3229 -0.22996,-4.84693 -0.0893,-9.55469 -0.0918,-14.41886 -10e-4,-2.43419 0.0808,-4.96999 -0.15626,-7.25 -0.045,-0.43444 -0.22783,-0.93816 -0.60155,-1.16407 -0.33661,-0.20338 -0.82714,-0.16639 -1.1797,0.008 -0.28949,0.14304 -0.49089,0.45948 -0.59376,0.76563 -0.14421,0.42956 0.0142,0.90622 0.0142,1.35937 0.0142,3.00732 -0.0177,6.01474 -0.007,9.0221 0.0106,3.4524 0.16973,10.15812 0.0716,10.35701 -0.2041,0.41391 -0.93675,-2.16535 -1.28066,-3.05062 -1.4844,-3.82097 -2.83993,-7.69326 -4.41702,-11.47692 -0.67447,-1.61813 -1.43851,-3.19999 -2.15624,-4.79687 -0.36135,-0.80392 -0.88927,-1.68248 -1.71078,-1.96093 z"
         style="fill:#000000;stroke:#999999;stroke-width:0.09999999;stroke-miterlimit:4;stroke-dasharray:none" />
      <path
         sodipodi:nodetypes="csaaaasaaccc"
         inkscape:connector-curvature="0"
         id="path6248"
         d="m 271.26099,641.973 c -0.47399,0.93099 -0.1428,1.05713 -0.0142,1.4375 0.0985,0.29381 0.11693,1.09225 0.14067,1.64063 0.0319,0.7285 -0.35256,1.54922 0,2.1875 0.1846,0.33392 0.58999,0.56375 0.96874,0.60937 0.32704,0.0394 0.69611,-0.0883 0.93748,-0.31248 0.3267,-0.30345 0.53345,-0.75014 0.51563,-1.23438 -0.0319,-0.82843 0.0542,-1.61548 0.0142,-2.42187 -0.0248,-0.51249 0.0578,-1.0649 -0.15626,-1.53125 -0.17043,-0.37171 -0.4567,-0.75853 -0.84373,-0.89063 -0.81702,-0.11515 -1.11763,-0.16246 -1.56253,0.51563 z"
         style="fill:#000000;stroke:#999999;stroke-width:0.09999999;stroke-miterlimit:4;stroke-dasharray:none" />
      <path
         sodipodi:nodetypes="caaacccaaacscaaasccssacc"
         inkscape:connector-curvature="0"
         id="path6250"
         d="m 282.89948,660.70705 c -0.0361,-1.47803 0.0177,-3.00904 0.0213,-4.51357 0.004,-1.60526 -0.0177,-3.21064 0.003,-4.81579 0.0177,-1.59469 0.056,-3.18927 0.11091,-4.78313 0.0248,-0.76286 0.34653,-1.82923 0.10417,-2.28758 -1.25412,0.0987 -3.01684,-0.10527 -4.43746,0.0571 -1.31694,0.053 -1.25727,-2.38167 -0.0142,-2.47039 1.36776,-0.13691 2.34752,-0.011 3.5201,0.0337 1.11111,0.0423 2.22102,0.12143 3.32837,0.22206 1.11774,0.10159 2.25156,0.13185 3.34492,0.38522 0.96215,0.22298 2.45923,-0.10587 2.79252,0.99031 0.40748,1.90761 -1.3364,1.66158 -2.33501,1.44164 -1.68601,-0.37132 -3.24889,-0.49537 -3.77532,-0.24101 -0.12012,0.93228 -0.0687,1.90603 -0.0907,2.85939 -0.0446,1.95096 -0.074,3.90237 -0.0826,5.85382 -0.007,1.68791 0.0213,3.3758 0.0283,5.06371 0.007,1.28195 -0.0904,2.57862 0.0142,3.84585 0.13606,1.63248 0.0896,3.07052 0.32209,4.90786 0.0709,0.93206 0.7246,2.3249 -0.26079,2.9661 -0.55113,0.20399 -1.11696,0.23305 -1.50952,-0.097 -0.41251,-0.34682 -0.49301,-1.02947 -0.5547,-1.5862 -0.15307,-1.38076 -0.27426,-2.81164 -0.36744,-4.22085 -0.0794,-1.20235 -0.17008,-2.42937 -0.16264,-3.61124 z"
         style="fill:#000000;stroke:#999999;stroke-width:0.09999999;stroke-miterlimit:4;stroke-dasharray:none" />
      <path
         sodipodi:nodetypes="saaccssccsassccaassssssssasasasaaaasss"
         inkscape:connector-curvature="0"
         id="path6254"
         d="m 309.03814,643.18297 c 0.51296,1.45226 0.8602,2.84651 1.2697,4.27577 0.46531,1.62405 0.90532,3.25525 1.34898,4.88534 0.36145,1.32794 0.76206,2.6392 1.06965,3.98779 0.93334,3.6796 1.75596,6.99605 2.51447,10.50217 0.28878,0.94356 0.51247,1.85938 0.74629,2.86476 0.14103,0.60663 0.54564,1.41168 1.43572,1.4464 0.85765,0.0333 1.14119,-0.88201 1.2488,-1.27891 0.82396,-2.83061 1.06693,-5.25421 1.46902,-7.96735 0.14776,-0.98541 0.22961,-2.73656 0.58149,-2.75102 0.44012,-0.0181 0.60098,2.32951 0.88827,3.49756 0.36316,1.47644 0.66253,2.96877 1.05605,4.4374 0.47314,1.76574 0.43905,4.42511 2.07684,4.45368 1.05753,0.0184 1.38965,-1.49494 1.6031,-2.75187 0.51849,-2.91754 1.16468,-5.7974 1.55282,-8.62429 0.20374,-1.53646 0.3612,-3.07865 0.53854,-4.61835 0.1715,-1.48894 0.29906,-2.98342 0.50826,-4.46753 0.22429,-1.59189 0.57316,-3.1383 0.80075,-4.75597 0.23988,-1.70436 1.27895,-4.54618 -0.13217,-4.98609 -1.45077,-0.45222 -1.75975,0.93356 -1.80418,1.36438 -0.16937,1.64286 -0.46676,3.41181 -0.71103,5.03765 -0.30367,2.02264 -0.57728,3.89332 -0.79803,5.55922 -0.22677,1.7099 -0.20267,2.41209 -0.38944,3.60681 -0.25087,1.60324 -0.47346,3.32645 -0.68779,4.81706 -0.15733,1.09517 -0.34087,2.91409 -0.63312,2.98463 -0.35079,0.0847 -0.75806,-2.87178 -1.11462,-4.31335 -0.40312,-1.62994 -0.72808,-3.28323 -1.15845,-4.90215 -0.37318,-1.40382 -0.53444,-3.82978 -1.96175,-3.80676 -1.08641,0.0174 -1.27697,1.8247 -1.39901,2.94418 -0.16937,1.55363 -0.41368,3.14098 -0.65816,4.7059 -0.28772,1.8417 -0.4781,5.50076 -0.95159,5.51058 -0.43746,0.009 -1.18219,-4.35713 -1.76092,-6.539 -0.37963,-1.4314 -0.76334,-2.86185 -1.12266,-4.2985 -0.34335,-1.37341 -0.61172,-2.76583 -0.98763,-4.13073 -0.33768,-1.22556 -0.78091,-2.41984 -1.13722,-3.64007 -0.35292,-1.20872 -0.65559,-2.43161 -0.99096,-3.64533 -0.22784,-0.82457 -0.44784,-2.05582 -1.68644,-1.67349 -1.13127,0.34923 -0.96594,1.30026 -0.62358,2.26948 z"
         style="fill:#000000;stroke:#999999;stroke-width:0.09999999;stroke-miterlimit:4;stroke-dasharray:none" />
      <path
         inkscape:connector-curvature="0"
         id="path6260"
         d="m 358.87426,640.97605 c -0.47431,-0.017 -0.95764,0.0292 -1.33203,0.50586 -0.51109,0.65046 -0.1654,1.34054 -0.12891,1.82813 0.2243,2.63749 0.25735,6.20828 0.40039,9.50391 0.11587,2.67003 0.0533,5.33463 0.0703,8.00195 0.0106,1.73273 0.0321,3.46453 0.0215,5.19726 -0.0106,1.69067 -0.0679,3.19239 -0.082,5.07227 0.0177,1.14486 0.74374,1.44204 1.39648,1.34961 0.63883,-0.0905 1.04279,-0.56025 1.04102,-1.29297 -0.007,-2.67828 10e-4,-5.63512 0.0625,-8.23633 0.0404,-1.70117 -0.0965,-3.39803 0.0371,-5.10547 1.03117,-0.54384 2.78048,-0.45748 3.57227,0.11328 0.79178,0.57075 1.07564,1.40972 1.41796,2.2168 0.75802,1.78729 0.87993,3.78084 1.34375,5.66602 0.29977,1.2176 0.39458,2.7152 0.92969,3.64453 0.53511,0.92932 1.20323,0.91943 1.69922,0.58398 0.78885,-0.53351 0.60194,-1.38568 0.14453,-2.85351 -0.34795,-1.11666 -0.70206,-2.70444 -0.81445,-3.83008 -0.20587,-1.65929 -0.70928,-3.19607 -1.3418,-4.73438 -0.47718,-1.16061 -1.03155,-2.01391 -2.51562,-3.06445 0.41329,-0.47378 0.96998,-1.23443 1.30468,-1.89062 0.51431,-1.00825 0.60104,-2.48554 0.47657,-3.67188 -0.17327,-1.65 -0.96024,-3.24964 -1.76563,-4.65234 -0.32244,-0.549 -0.64932,-1.06088 -1.08203,-1.5 -0.8803,-0.89334 -1.90441,-1.66831 -3.01758,-2.2461 -0.57217,-0.297 -1.39611,-0.58951 -1.83789,-0.60547 z m 1.0918,2.96094 c 0.0438,-0.009 0.0967,-0.004 0.16015,0.0137 0.36681,0.20762 0.82886,0.59925 1.18946,0.95899 0.70508,0.70337 1.26889,1.38029 1.88086,2.32031 0.6509,0.91667 1.05145,2.30354 1.11523,3.43359 0.0151,0.90338 -0.21583,1.93542 -0.75781,2.69532 -0.52636,0.73802 -1.37066,1.27362 -2.23438,1.54882 -0.37296,0.11892 -0.95326,0.49355 -1.17578,0.0137 3.6e-4,-0.54023 -0.0584,-1.29068 -0.0762,-1.93555 -0.0273,-1.00073 -0.0164,-1.92843 -0.0547,-3.00195 -0.0376,-1.72509 -0.0495,-3.26315 -0.18164,-4.89258 -0.036,-0.44404 -0.17173,-1.09472 0.13477,-1.1543 z"
         style="fill:#000000;stroke:#999999;stroke-width:0.09999999;stroke-miterlimit:4;stroke-dasharray:none" />
      <path
         sodipodi:nodetypes="sssaascsascscscasscaasss"
         inkscape:connector-curvature="0"
         id="path6266"
         d="m 399.28266,667.72757 c -0.24839,-2.13391 -0.0889,-4.86928 -0.0106,-7.07108 0.0475,-1.33755 0.47498,-2.93481 -0.25122,-4.00731 -0.98125,-1.44889 -1.47859,-3.23469 -2.18215,-4.86774 -0.49106,-1.13987 -0.96285,-2.28811 -1.42306,-3.4408 -0.47275,-1.18414 -0.92062,-2.37807 -1.37434,-3.56962 -0.39611,-1.04017 -1.46916,-2.47232 -0.41988,-3.36767 0.88072,-0.51743 1.86392,-0.32822 2.37933,1.56711 0.34228,1.259 0.78388,2.34064 1.2116,3.49815 0.48483,1.31195 1.1088,2.573 1.53499,3.90515 0.34158,1.06774 0.88204,2.24373 1.5524,3.60029 0.46962,1.16631 1.12567,-0.80188 1.41718,-1.44816 0.70065,-1.55339 1.58339,-3.37106 2.12602,-4.86972 0.83395,-1.99211 1.30599,-2.63191 2.07765,-6.03149 0.22039,-0.97155 1.96395,-1.01305 2.21244,-0.1429 0.32846,1.19195 -0.49787,2.58077 -0.88508,3.83388 -0.35529,1.14977 -0.90029,2.23255 -1.31397,3.36263 -0.6149,1.67988 -1.48507,3.30332 -2.28851,5.02207 -0.70353,1.50488 -1.94613,3.53927 -1.96402,5.1126 0.0822,1.41851 0.0106,2.35653 -0.003,3.53466 -0.0142,1.21209 -0.1265,2.42397 -0.0868,3.6355 0.0319,0.97512 0.10949,1.95136 0.26008,2.91531 0.16086,1.02995 0.19275,2.6473 -1.17262,2.6569 -1.46633,0.0103 -1.23573,-2.4498 -1.39614,-3.82776 z"
         style="fill:#000000;stroke:#999999;stroke-width:0.09999999;stroke-miterlimit:4;stroke-dasharray:none" />
      <path
         sodipodi:nodetypes="caaasccsssscssc"
         inkscape:connector-curvature="0"
         id="path6271"
         d="m 214.00724,679.51225 c 0.0712,0.79216 -0.0875,1.59947 -0.11126,2.39996 -0.0283,0.90981 -0.0319,1.82019 -0.0365,2.73038 -0.007,1.1686 0.0106,2.33722 0.0106,3.50584 -9.6e-4,1.04717 -0.0631,2.09539 -0.0142,3.14147 0.0386,0.84423 0.0283,1.50601 0.25122,2.52372 0.17894,0.61892 0.26717,1.69954 1.07299,1.44718 0.78534,-0.18709 0.37137,-1.12399 0.23279,-1.66807 -0.16334,-0.64264 -0.17468,-1.37332 -0.21933,-1.95702 -0.13216,-1.73443 -0.14775,-2.88236 -0.11586,-4.38867 0.0283,-1.32689 0.16051,-2.65006 0.225,-3.97517 0.0719,-1.47249 -0.0142,-3.02992 0.11196,-4.22376 -0.0808,-0.60387 -0.26787,-0.67003 -0.76549,-0.67867 -0.62309,-0.011 -0.68485,0.66009 -0.64138,1.14281 z"
         style="fill:#000000;stroke:#999999;stroke-width:0.09999999;stroke-miterlimit:4;stroke-dasharray:none" />
      <path
         sodipodi:nodetypes="ssaaacccccccacsssssaasccaacsccaasscsacscaccscs"
         inkscape:connector-curvature="0"
         id="path6273"
         d="m 223.69216,680.05916 c -0.0248,0.73822 -0.0106,1.36575 -0.0588,1.99924 -0.0634,0.85243 -0.14031,1.67137 -0.14031,2.50902 -1.8e-4,1.09533 0.13429,2.18665 0.18248,3.28091 0.0386,0.87405 0.0758,1.74846 0.0857,2.62331 0.0106,1.00531 0.0213,1.91403 -0.0319,3.01596 0.0369,0.59948 -0.52363,1.93063 0.56005,1.72923 1.03426,-0.14673 0.74895,-1.2411 0.77861,-1.97454 0.002,-1.25136 -0.12047,-2.502 -0.0319,-3.75455 -3.2e-4,-0.67769 -0.10098,-1.35374 -0.0836,-2.03502 -0.039,-1.17601 -0.17292,-2.42852 -0.19418,-3.6034 -0.0641,-0.47309 0.3228,-1.24044 0.52771,-0.56618 0.13535,0.8253 0.25724,1.79407 0.40096,2.68882 0.16689,1.03964 0.35256,1.97941 0.53458,3.11323 0.22323,0.88802 0.23598,1.43034 0.47292,2.33672 0.0638,0.24389 0.17008,0.92476 0.3313,1.18196 0.16122,0.25721 0.28347,0.39333 0.56828,0.38975 0.5119,-0.006 0.72592,-0.343 0.77945,-0.79476 0.0535,-0.45175 0.0865,-1.32104 0.16335,-1.99527 0.0932,-0.81688 0.27425,-1.62135 0.41907,-2.4307 0.11976,-0.66991 0.25086,-1.33774 0.37194,-2.00744 0.13925,-0.77134 0.2622,-1.54874 0.40766,-2.31587 0.057,-0.30172 0.36145,-1.74879 0.54885,-0.6101 0.0815,0.87813 0.007,2.00512 0.0319,2.90689 0.007,0.91192 -0.007,1.463 -4.2e-4,2.19444 0.0213,1.80718 -0.0177,3.61849 0.11941,5.42057 0.05,0.65611 -0.16335,1.42781 0.25583,1.9574 0.58468,0.67057 1.20578,-0.044 1.18459,-0.66009 -0.0283,-0.80683 -0.13039,-1.87126 -0.15944,-2.80369 0.007,-0.86335 -0.18284,-1.70972 -0.0925,-2.57035 -0.0106,-0.82538 0.004,-1.59117 -0.001,-2.38672 -0.007,-0.91255 -0.0411,-1.8248 -0.0457,-2.73737 -0.004,-1.01033 0.0213,-2.02061 0.0177,-3.03095 -5.6e-4,-0.83707 -0.0783,-1.75866 -0.17929,-2.41639 -0.0964,-0.63025 -0.13323,-1.53913 -0.91906,-1.60323 -0.87102,0.0135 -0.95287,1.14565 -1.11749,1.90427 -0.37679,1.73644 -0.55127,2.57731 -0.80419,3.87055 -0.18992,0.97122 -0.24342,1.54285 -0.53557,2.92014 -0.18531,0.84641 -0.27673,2.3709 -0.59308,2.36655 -0.34547,-0.005 -0.36662,-1.65375 -0.63053,-3.02395 -0.1389,-0.78838 -0.25547,-1.39281 -0.39036,-2.0879 -0.14776,-0.76139 -0.30189,-1.52026 -0.45791,-2.2812 -0.24838,-0.8924 -0.33696,-1.62771 -0.64803,-2.44051 -0.25158,-0.73018 -0.43012,-0.98087 -0.95595,-0.96099 -0.51459,0.0195 -0.60056,0.5272 -0.6424,0.84701 0.0656,0.60687 -0.007,1.22372 -0.0283,1.8352 z"
         style="fill:#000000;stroke:#999999;stroke-width:0.09999999;stroke-miterlimit:4;stroke-dasharray:none" />
      <path
         sodipodi:nodetypes="csssaccsscssaaacccsscassscc"
         inkscape:connector-curvature="0"
         id="path6275"
         d="m 246.06308,683.92634 c 0.71724,-0.0177 0.92161,0.34498 0.88898,0.74129 -0.0461,0.55814 -0.63198,0.62307 -0.96984,0.62791 -0.46481,0.007 -1.74486,-0.16101 -1.86232,-0.006 -0.16406,0.21586 -0.0617,1.2557 -0.0571,1.88396 0.007,0.92911 0.10275,1.82883 0.12543,2.78459 0.0918,1.02839 0.13996,2.12033 0.22748,2.97134 0.0142,0.68777 0.0588,1.38318 0.0177,1.88915 -0.0408,0.50597 -0.20445,0.66376 -0.54741,0.67439 -0.23315,0.007 -0.6239,-0.058 -0.69831,-0.59793 -0.0549,-0.49044 0.0248,-1.08428 -0.0659,-1.96063 -0.068,-0.65587 -0.12933,-1.72968 -0.17681,-2.35693 -0.0563,-0.73976 0.007,-1.3656 0.007,-2.04839 -0.001,-0.86278 -0.0319,-1.72568 -0.0142,-2.58828 0.0436,-2.13152 -0.25759,-4.33099 0.29941,-6.38888 0.14776,-0.54538 0.28559,-1.10467 0.78563,-1.50198 0.70448,-0.54668 1.60384,-0.45721 2.44647,-0.46237 0.82634,0.11632 1.7026,0.0973 2.09803,0.38553 0.27354,0.34144 0.29693,0.71771 0.13394,0.91527 -0.163,0.19754 -0.61147,0.32134 -0.96655,0.28491 -0.59098,-0.0606 -1.05813,-0.21862 -1.70514,-0.26762 0,0 -0.7881,-0.0589 -1.06781,0.16823 -0.41067,0.33354 -0.47523,0.96221 -0.56332,1.48391 -0.0996,0.58896 -0.13464,1.19209 -0.2087,1.81962 -0.15838,1.34139 -0.10275,1.54539 0.11091,1.55385 0.45637,0.0181 1.23799,-0.003 1.76446,-0.005 z"
         style="fill:#000000;stroke:#999999;stroke-width:0.09999999;stroke-miterlimit:4;stroke-dasharray:none" />
      <path
         sodipodi:nodetypes="ccccsccaacsssccccaaassccsccac"
         inkscape:connector-curvature="0"
         id="path6277"
         d="m 306.28584,680.77651 c 0.0843,0.90289 -0.0142,1.81787 -0.0283,2.7234 0.007,0.61979 -0.16122,1.25035 -0.001,1.86309 0.54922,-0.10856 1.0828,-0.0682 1.81318,-0.10218 0.3707,-0.0614 0.67649,0.28785 0.7525,0.58789 0.0758,0.30005 -0.1793,0.59774 -0.603,0.68327 -0.62249,0.14145 -1.38257,-0.0828 -1.93681,0.0502 -0.10063,0.57815 -0.0177,1.2 -0.0283,1.8 -0.0142,0.93705 -0.0379,1.87402 -0.0418,2.81118 -0.003,0.79317 -0.1024,1.61279 0.0142,2.37948 -0.007,0.64807 1.06622,0.47027 1.62716,0.43926 0.52321,-0.029 0.98586,-0.35305 1.54432,-0.28771 0.39922,0.0467 0.46176,0.32045 0.5142,0.56961 0.0631,0.29966 -0.0744,0.70965 -0.47257,0.75239 -0.61196,0.0938 -1.26404,0.16104 -1.89124,0.19644 -0.74491,0.044 -1.36765,0.0924 -2.05257,-0.21448 -0.57426,-0.25809 -0.54117,-0.39168 -0.58018,-0.99825 -0.10559,-1.09753 -0.0549,-2.39352 -0.0563,-3.5905 -0.002,-1.33436 0.0641,-2.66841 0.0535,-4.00273 -0.007,-0.7465 -0.0755,-1.49213 -0.0659,-2.2386 0.0106,-0.8016 0.0758,-1.60169 0.13288,-2.40134 0.0783,-1.10126 -0.0783,-2.02774 0.10594,-3.17702 0.0638,-0.39701 0.39132,-0.46371 1.04159,-0.50164 0.83105,0.0262 1.77236,0.10779 2.53825,0.28825 0.32492,0.10672 0.8786,0.38699 0.83392,0.89511 -0.0283,0.31411 -0.3842,0.65123 -0.77262,0.71328 -0.39997,-0.0245 -0.63238,-0.32683 -1.04184,-0.50868 -0.36939,-0.0998 -0.98451,-0.34271 -1.30936,-0.0507 -0.32811,0.29501 -0.0624,0.79671 -0.0896,1.32103 z"
         style="fill:#000000;stroke:#999999;stroke-width:0.09999999;stroke-miterlimit:4;stroke-dasharray:none" />
      <path
         sodipodi:nodetypes="cssaaaassssaaaaaaaaasccc"
         inkscape:connector-curvature="0"
         id="path6279"
         d="m 318.99564,679.48084 c -0.38306,-0.0213 -0.98025,-0.0301 -1.62478,0.15417 -0.99422,0.28439 -1.42448,0.70622 -1.92334,1.30046 -0.6165,0.73434 -0.8639,1.7287 -1.09878,2.65828 -0.21473,0.84995 -0.28347,1.73946 -0.27071,2.61603 0.0142,0.94516 0.12968,1.89791 0.37417,2.81099 0.2491,0.92991 0.55056,1.8801 1.10084,2.67003 0.48979,0.7031 1.2218,1.31415 1.88971,1.74278 1.32754,0.85197 1.6835,0.10598 2.42373,0.45809 0.3577,0.17015 0.4005,0.85807 0.13181,1.12173 -0.45326,0.44467 -2.12215,-0.0347 -2.65546,-0.20367 -0.69339,-0.21962 -1.06901,-0.53267 -1.53719,-0.89705 -0.40922,-0.31851 -0.77517,-0.69797 -1.08999,-1.11004 -0.40915,-0.53551 -0.75249,-1.12711 -1.01948,-1.74587 -0.33555,-0.77798 -0.55449,-1.60707 -0.71756,-2.43854 -0.1272,-0.64825 -0.17964,-1.31138 -0.20019,-1.97166 -0.0283,-0.88182 -0.0358,-1.77369 0.10488,-2.64463 0.15307,-0.94805 0.34051,-1.92397 0.7982,-2.76826 0.40585,-0.74879 0.9962,-1.4132 1.67074,-1.93323 0.65051,-0.5015 1.40878,-0.91663 2.21294,-1.08387 0.82807,-0.17221 2.06135,-0.23932 2.53474,0.11505 0.44486,0.333 0.22287,0.94795 0.12259,1.0946 -0.566,0.38308 -0.6362,0.14807 -1.22743,0.0546 z"
         style="fill:#000000;stroke:#999999;stroke-width:0.09999999;stroke-miterlimit:4;stroke-dasharray:none" />
      <path
         sodipodi:nodetypes="csssssssssssssassssaaaassssssssc"
         inkscape:connector-curvature="0"
         id="path6281"
         d="m 324.12327,681.65999 c 0.004,1.55715 -0.0142,3.09834 -0.0415,4.67129 -0.0319,1.73873 -0.0283,3.48871 0.0358,5.20317 0.0358,0.92945 0.11445,1.86418 0.22465,2.65895 0.0461,0.33222 0.14527,1.07546 0.70706,1.03707 0.60924,-0.0416 0.76858,-0.30313 0.72677,-0.80305 -0.0418,-0.49993 -0.31287,-1.22944 -0.33236,-1.65451 -0.0213,-0.49137 -0.3684,-1.57581 0.24165,-1.54016 0.4983,0.0291 1.85421,0.0488 2.48506,0.32755 0.17646,0.0779 -0.0698,1.77915 -0.0142,2.55139 0.0358,0.48714 -0.1474,1.0902 0.64683,1.11975 0.51208,0.0191 0.6317,-0.39277 0.62837,-1.04818 -0.003,-0.65541 0.0142,-1.7704 0.0248,-2.57451 0.0142,-1.04102 0.0928,-1.96766 0.0964,-2.96056 0.004,-1.09602 0.0319,-2.18112 0.0517,-3.27161 0.0142,-0.76171 0.0361,-1.52007 0.0471,-2.28502 0.0177,-1.27868 0.095,-2.37951 0.0804,-3.92071 -0.007,-0.71083 0.32847,-2.07093 -0.67237,-2.02046 -0.84873,0.0428 -0.64907,1.08464 -0.62522,1.52735 0.0436,0.81064 0.007,0.93977 0.0106,1.40967 0.002,0.61537 0.0142,1.23091 0,1.84613 -0.0213,0.97245 -0.0964,1.94305 -0.13216,2.91509 -0.0283,0.79817 -0.0457,1.59675 -0.0673,2.39517 -0.0283,1.01951 0.0737,3.05006 -0.0783,3.05862 -0.29729,0.0167 -1.7931,-0.45813 -2.68073,-0.29494 -0.19772,0.0364 -0.12898,-0.71914 -0.15201,-1.08295 -0.0712,-1.12465 -0.0709,-2.30923 -0.0177,-3.34365 0.0492,-0.96048 0.11551,-1.87414 0.14633,-2.80233 0.0525,-1.5738 0.2615,-3.71575 0.18319,-4.26108 -0.0422,-0.29331 -0.13322,-0.7422 -0.74941,-0.74198 -0.40411,1.5e-4 -0.68502,0.34151 -0.73002,0.66835 -0.095,0.68925 -0.0493,2.19484 -0.0436,3.21615 z"
         style="fill:#000000;stroke:#999999;stroke-width:0.09999999;stroke-miterlimit:4;stroke-dasharray:none" />
      <path
         sodipodi:nodetypes="csaaaaaaassaassaaaaaaaaaaasc"
         inkscape:connector-curvature="0"
         id="path6285"
         d="m 344.72909,679.20404 c -0.59223,-0.6516 -1.35755,-0.38549 -1.63917,-0.12217 -0.45471,0.42521 -0.74672,1.03766 -0.88505,1.64465 -0.1676,0.73541 -0.16724,1.55636 0.10311,2.26046 0.26894,0.69974 0.9287,1.17811 1.42792,1.73726 0.62072,0.69518 1.36903,1.27564 1.94574,2.00771 0.46601,0.59154 0.93313,1.20768 1.20915,1.90832 0.3026,0.76786 0.46559,1.60803 0.45733,2.43328 -0.007,0.83933 -0.0914,1.74008 -0.51448,2.46499 -0.46896,0.80342 -1.26667,1.67465 -2.09839,1.83994 -0.87657,0.17423 -1.52213,0.0954 -2.04969,-0.0216 -0.64535,-0.14297 -1.12231,-0.53328 -1.53443,-0.9784 -0.42095,-0.45467 -1.03419,-1.04048 -0.87591,-1.63954 0.0755,-0.28527 0.45415,-0.49572 0.74831,-0.47278 0.75753,0.0591 0.98646,1.40184 1.78842,1.68139 0.68456,0.2386 1.55533,0.20881 2.1674,-0.17968 0.55807,-0.35423 0.83573,-1.07564 0.9894,-1.71852 0.1878,-0.78541 0.0928,-1.6426 -0.12862,-2.41923 -0.21225,-0.74499 -0.64648,-1.42287 -1.11855,-2.03707 -0.61448,-0.79947 -1.52586,-1.32842 -2.18768,-2.08916 -0.51895,-0.59653 -1.11096,-1.18402 -1.385,-1.92568 -0.39629,-1.07255 -0.54557,-2.3038 -0.28878,-3.41806 0.19311,-0.83807 0.60459,-1.73932 1.31984,-2.21686 0.74923,-0.50022 1.83781,-0.71983 2.67481,-0.3867 0.671,0.26706 1.49676,0.99261 1.34479,1.69861 -0.068,0.31642 -0.5406,0.47958 -0.86251,0.4459 -0.26043,-0.0273 -0.60778,-0.49717 -0.60778,-0.49717 z"
         style="fill:#000000;stroke:#999999;stroke-width:0.09999999;stroke-miterlimit:4;stroke-dasharray:none" />
      <path
         sodipodi:nodetypes="ssccccaassssssacaasss"
         inkscape:connector-curvature="0"
         id="path6287"
         d="m 352.03404,678.67502 c -0.70349,-0.0364 -0.79586,0.49223 -0.83594,0.94168 -0.24661,2.76595 -0.315,3.86539 -0.43093,5.9475 -0.13713,1.44128 0.0879,2.90245 0.0453,4.34123 10e-4,1.25433 0.25477,2.95424 0.95896,3.99005 0.6019,0.8164 1.42438,1.33913 2.41321,1.47416 1.25188,0.007 1.97961,-0.54345 2.54246,-1.31361 0.96608,-1.32185 0.72202,-3.20816 0.82304,-4.84229 0.0974,-1.57645 -0.27779,-2.93334 -0.2126,-4.7336 0.0432,-1.19395 -0.0701,-2.35587 0.0553,-3.58377 0.0723,-0.70809 0.19807,-1.86282 -0.60527,-2.04772 -0.3702,-0.0852 -0.75965,0.31964 -0.77595,0.83468 -0.0478,1.51297 -0.0354,3.0476 -0.051,4.49587 -0.0177,1.44146 0.13075,2.89552 0.11941,4.40335 -0.0106,1.52549 0.463,3.89983 -0.82152,4.99297 -0.44773,0.38102 -1.08046,0.578 -1.76371,0.004 -0.53419,-0.66872 -0.81057,-1.09128 -0.99993,-1.7298 -0.59796,-2.01642 -0.315,-4.19781 -0.33094,-6.30096 -0.007,-0.96127 0.0439,-1.70389 0.10807,-2.88185 0.0737,-1.3544 0.30933,-1.97261 0.32209,-3.18221 0.004,-0.4374 -0.26008,-0.79446 -0.56006,-0.80998 z"
         style="fill:#000000;stroke:#999999;stroke-width:0.09999999;stroke-miterlimit:4;stroke-dasharray:none" />
      <path
         inkscape:connector-curvature="0"
         id="path6289"
         d="m 361.85473,677.76902 c -0.29195,-0.0376 -0.55076,0.002 -0.74805,0.15039 -0.13039,0.0978 -0.11325,0.75579 -0.10156,1.13477 0.0461,1.33123 0.14267,2.72746 0.18555,3.87695 0.0319,0.9251 0.0569,1.87344 0.0781,2.77539 0.0698,1.30091 0.0363,2.61311 0.0742,3.90625 0.0319,1.06176 0.0358,2.03865 0.0273,3.21094 -0.007,0.89007 -0.26973,2.4264 0.57617,2.55078 0.70526,0.10368 0.57084,-1.25552 0.60351,-1.93164 0.0443,-0.91955 -0.0104,-1.95547 0,-2.96875 0.0142,-1.03174 -0.10537,-2.07353 -0.0625,-3.18945 0.83357,-0.27153 1.47284,-0.34297 2.23047,-0.79688 1.00889,-0.70829 1.5713,-1.77904 1.63086,-2.88086 0.0819,-1.5135 -0.82882,-3.08805 -1.80078,-4.17578 -0.65021,-0.73308 -1.81751,-1.54927 -2.69336,-1.66211 z m 0.69727,1.56836 c 0.65338,0.0902 2.03932,2.29 2.31836,3.16211 0.39539,1.23565 -0.1285,2.27743 -0.74415,2.84961 -0.44872,0.41703 -1.45763,1.0734 -1.57031,0.52344 -0.1272,-0.62233 0.002,-2.61846 -0.0586,-4.11719 -0.0291,-0.72951 -0.13427,-2.30091 -0.0684,-2.4082 l 0.002,0 c 0.0365,-0.0138 0.0775,-0.0158 0.1211,-0.01 z"
         style="fill:#000000;stroke:#999999;stroke-width:0.09999999;stroke-miterlimit:4;stroke-dasharray:none" />
      <path
         inkscape:connector-curvature="0"
         id="path6313"
         d="m 344.51098,641.27098 c -1.95544,-0.10223 -3.84367,0.77277 -5.18945,2.05859 -1.90939,1.82431 -2.72769,4.63676 -3.25391,7.22461 -0.91842,4.51665 -1.09814,9.43386 0.30469,13.82422 0.85808,2.68524 2.26848,5.6622 4.75195,6.99609 1.32952,0.71411 3.22557,0.81766 4.52539,0.0508 3.14029,-1.85273 4.4283,-6.2999 5.17969,-9.63281 1.08184,-4.79862 0.72759,-11.24141 -0.0606,-13.65234 -0.37566,-1.149 -1.97569,-6.64528 -6.25781,-6.86914 z m -0.13086,2.41992 c 1.72715,0 2.99151,2.22804 3.66406,3.74609 1.18297,2.67003 1.09433,5.78626 1,8.70508 -0.0921,2.85382 -0.45456,5.61104 -1.52539,8.42773 -0.76114,2.00211 -1.72339,4.67166 -4.03125,5.02149 -1.15384,0.1749 -2.21793,-1.00774 -2.91015,-1.94727 -1.56338,-2.12184 -1.91687,-4.96612 -2.25391,-7.58007 -0.35709,-2.76965 -0.10959,-5.60687 0.27344,-8.37305 0.29374,-2.12149 0.91304,-4.85471 2.52539,-6.55078 0.81864,-0.86116 1.53063,-1.44922 3.25781,-1.44922 z"
         style="fill:#000000;stroke:#999999;stroke-width:0.09999999;stroke-miterlimit:4;stroke-dasharray:none" />
      <path
         style="fill:#000000;stroke:#999999;stroke-width:0.09999999;stroke-miterlimit:4;stroke-dasharray:none"
         d="m 295.78592,689.20182 c -0.0213,-0.86436 0.0106,-1.75973 0.0106,-2.6396 0.002,-0.93878 -0.0106,-1.87763 0.002,-2.81635 0.0106,-0.9326 0.0319,-1.86513 0.0648,-2.79725 0.0142,-0.44613 0.20267,-1.06975 0.0606,-1.33781 -0.73343,0.0578 -1.76429,-0.0614 -2.59508,0.0326 -0.77018,0.0301 -0.73528,-1.39283 -0.007,-1.44472 0.79987,-0.08 1.37285,-0.006 2.05859,0.0195 0.64981,0.0241 1.29887,0.0709 1.94648,0.12993 0.65367,0.0593 1.31676,0.0771 1.95619,0.22536 0.56264,0.1305 1.43819,-0.0619 1.63307,0.57915 0.23847,1.11559 -0.78151,0.97172 -1.36555,0.8431 -0.986,-0.21721 -1.89999,-0.2896 -2.20784,-0.14099 -0.0702,0.54521 -0.04,1.11467 -0.0532,1.67221 -0.0248,1.14095 -0.0432,2.28217 -0.0482,3.4234 -0.004,0.98712 0.0106,1.97423 0.0177,2.96134 0.004,0.7497 -0.0528,1.50801 0.007,2.24911 0.0794,0.9547 0.0524,1.79568 0.1885,2.87019 0.0415,0.54508 0.42375,1.35964 -0.15271,1.73463 -0.32245,0.11927 -0.65321,0.13624 -0.88282,-0.0567 -0.2413,-0.20275 -0.28842,-0.60205 -0.32421,-0.92763 -0.0893,-0.80749 -0.16051,-1.64429 -0.21508,-2.46842 -0.0464,-0.70316 -0.0992,-1.42072 -0.095,-2.1119 z"
         id="path6321"
         inkscape:connector-curvature="0"
         sodipodi:nodetypes="caaacccaaacscaaasccssacc" />
      <path
         inkscape:connector-curvature="0"
         id="path6353"
         d="m 383.2766,677.91941 c -1.13587,-0.0594 -2.23386,0.44839 -3.01562,1.19532 -1.10913,1.05972 -1.58494,2.69206 -1.89062,4.19531 -0.53349,2.62368 -0.63727,5.48093 0.17773,8.03125 0.49844,1.55983 1.31714,3.28961 2.75977,4.06445 0.77233,0.41482 1.87581,0.47489 2.63085,0.0293 1.82417,-1.07623 2.57132,-3.65965 3.00782,-5.5957 0.6284,-2.78747 0.42267,-6.5292 -0.0352,-7.92969 -0.21827,-0.66744 -1.14729,-3.8602 -3.63477,-3.99024 z m -0.0762,1.40625 c 1.00329,0 1.73822,1.29396 2.12891,2.17579 0.68719,1.55099 0.63486,3.35917 0.58008,5.05468 -0.0535,1.65776 -0.2648,3.26029 -0.88672,4.89649 -0.44214,1.163 -1.00119,2.7128 -2.3418,2.91601 -0.67025,0.10159 -1.28732,-0.5851 -1.68945,-1.13086 -0.90815,-1.23255 -1.11283,-2.88392 -1.30859,-4.40234 -0.20764,-1.60886 -0.0643,-3.25643 0.1582,-4.86328 0.17079,-1.23235 0.53019,-2.81946 1.4668,-3.80469 0.47551,-0.50024 0.88925,-0.8418 1.89257,-0.8418 z"
         style="fill:#000000;stroke:#999999;stroke-width:0.09999996;stroke-miterlimit:4;stroke-dasharray:none" />
      <path
         style="fill:#000000;stroke:#999999;stroke-width:0.09999996;stroke-miterlimit:4;stroke-dasharray:none"
         d="m 218.74521,678.38242 c -0.25476,0.50045 -0.0769,0.56825 -0.007,0.7727 0.0528,0.15796 0.0631,0.58713 0.0755,0.8819 0.0142,0.39159 -0.18957,0.83275 0,1.17586 0.0992,0.17943 0.31712,0.30313 0.52076,0.32765 0.17574,0.0227 0.37417,-0.0476 0.50392,-0.16785 0.1754,-0.16306 0.28666,-0.40322 0.27709,-0.66351 -0.0142,-0.44532 0.0283,-0.86838 0.007,-1.30184 -0.0142,-0.27553 0.0319,-0.57242 -0.084,-0.8231 -0.0918,-0.19974 -0.24555,-0.40773 -0.45354,-0.47874 -0.43916,-0.0618 -0.60077,-0.0874 -0.83991,0.27709 z"
         id="path6469"
         inkscape:connector-curvature="0"
         sodipodi:nodetypes="csaaaasaaccc" />
      <path
         inkscape:connector-curvature="0"
         id="path8007"
         d="m 377.37426,640.97605 c -0.47431,-0.017 -0.95764,0.0292 -1.33203,0.50586 -0.51109,0.65046 -0.1654,1.34054 -0.12891,1.82813 0.2243,2.63749 0.25735,6.20828 0.40039,9.50391 0.11587,2.67003 0.0533,5.33463 0.0703,8.00195 0.0106,1.73273 0.0321,3.46453 0.0215,5.19726 -0.0106,1.69067 -0.0679,3.19239 -0.082,5.07227 0.0177,1.14486 0.74374,1.44204 1.39648,1.34961 0.63883,-0.0905 1.04279,-0.56025 1.04102,-1.29297 -0.007,-2.67828 10e-4,-5.63512 0.0625,-8.23633 0.0404,-1.70117 -0.0965,-3.39803 0.0371,-5.10547 1.03117,-0.54384 2.78048,-0.45748 3.57227,0.11328 0.79178,0.57075 1.07564,1.40972 1.41796,2.2168 0.75802,1.78729 0.87993,3.78084 1.34375,5.66602 0.29977,1.2176 0.39458,2.7152 0.92969,3.64453 0.53511,0.92932 1.20323,0.91943 1.69922,0.58398 0.78885,-0.53351 0.60194,-1.38568 0.14453,-2.85351 -0.34795,-1.11666 -0.70206,-2.70444 -0.81445,-3.83008 -0.20587,-1.65929 -0.70928,-3.19607 -1.3418,-4.73438 -0.47718,-1.16061 -1.03155,-2.01391 -2.51562,-3.06445 0.41329,-0.47378 0.96998,-1.23443 1.30468,-1.89062 0.51431,-1.00825 0.60104,-2.48554 0.47657,-3.67188 -0.17327,-1.65 -0.96024,-3.24964 -1.76563,-4.65234 -0.32244,-0.549 -0.64932,-1.06088 -1.08203,-1.5 -0.8803,-0.89334 -1.90441,-1.66831 -3.01758,-2.2461 -0.57217,-0.297 -1.39611,-0.58951 -1.83789,-0.60547 z m 1.0918,2.96094 c 0.0438,-0.009 0.0967,-0.004 0.16015,0.0137 0.36681,0.20762 0.82886,0.59925 1.18946,0.95899 0.70508,0.70337 1.26889,1.38029 1.88086,2.32031 0.6509,0.91667 1.05145,2.30354 1.11523,3.43359 0.0151,0.90338 -0.21583,1.93542 -0.75781,2.69532 -0.52636,0.73802 -1.37066,1.27362 -2.23438,1.54882 -0.37296,0.11892 -0.95326,0.49355 -1.17578,0.0137 3.6e-4,-0.54023 -0.0584,-1.29068 -0.0762,-1.93555 -0.0273,-1.00073 -0.0164,-1.92843 -0.0547,-3.00195 -0.0376,-1.72509 -0.0495,-3.26315 -0.18164,-4.89258 -0.036,-0.44404 -0.17173,-1.09472 0.13477,-1.1543 z"
         style="fill:#000000;stroke:#999999;stroke-width:0.09999999;stroke-miterlimit:4;stroke-dasharray:none" />
      <path
         inkscape:connector-curvature="0"
         id="path8021"
         d="m 391.59887,677.73973 c -0.2739,-0.01 -0.55325,0.0156 -0.76953,0.29101 -0.29516,0.37576 -0.0955,0.77497 -0.0742,1.05664 l 0.002,0 c 0.12969,1.52363 0.14791,3.58642 0.23047,5.49024 0.067,1.54242 0.0325,3.08219 0.041,4.62304 0.007,1.00097 0.0169,2.00099 0.01,3.00196 -0.007,0.97666 -0.0387,1.84372 -0.0469,2.92968 0.0106,0.66137 0.42956,0.8327 0.80664,0.7793 0.36903,-0.0523 0.60259,-0.32282 0.60156,-0.74609 -0.004,-1.54719 -1.7e-4,-3.25515 0.0352,-4.75782 0.0248,-0.98273 -0.0558,-1.96286 0.0215,-2.94921 0.5957,-0.31419 1.60705,-0.2633 2.06446,0.0664 0.4574,0.32971 0.6206,0.81307 0.81835,1.2793 0.43789,1.03248 0.50944,2.18441 0.77735,3.27344 0.17327,0.70339 0.22792,1.56861 0.53711,2.10547 0.30897,0.53685 0.69396,0.53165 0.98047,0.33789 0.4557,-0.3082 0.34831,-0.8005 0.084,-1.64844 -0.2009,-0.64507 -0.40579,-1.56263 -0.4707,-2.21289 -0.11906,-0.95854 -0.41001,-1.84573 -0.77539,-2.73438 -0.27567,-0.67046 -0.59579,-1.1646 -1.45313,-1.77148 0.23882,-0.27369 0.56055,-0.71272 0.75391,-1.0918 0.29728,-0.58244 0.34732,-1.43577 0.27539,-2.12109 -0.10028,-0.95317 -0.55426,-1.87719 -1.01953,-2.6875 -0.18638,-0.31716 -0.37502,-0.61352 -0.625,-0.86719 -0.5085,-0.51606 -1.1011,-0.9631 -1.74414,-1.29687 -0.33059,-0.17157 -0.80536,-0.3404 -1.06055,-0.34961 z m 0.61523,1.71875 c 0.21189,0.11993 0.47916,0.34492 0.6875,0.55273 0.40731,0.40632 0.73232,0.79877 1.08594,1.3418 0.37602,0.52954 0.60768,1.32961 0.64453,1.98242 0.009,0.52186 -0.12427,1.11766 -0.4375,1.55664 -0.30408,0.42634 -0.79204,0.73554 -1.29101,0.89453 -0.21543,0.0686 -0.54911,0.28504 -0.67774,0.008 3.6e-4,-0.31207 -0.0343,-0.74465 -0.0449,-1.11718 -0.0142,-0.5781 -0.01,-1.11423 -0.0312,-1.73438 -0.0216,-0.99655 -0.0289,-1.88488 -0.10547,-2.82617 -0.0237,-0.29316 -0.12346,-0.74112 0.16992,-0.6582 z"
         style="fill:#000000;stroke:#999999;stroke-width:0.09999999;stroke-miterlimit:4;stroke-dasharray:none" />
      <path
         style="fill:#000000;stroke:#999999;stroke-width:0.09999999;stroke-miterlimit:4;stroke-dasharray:none"
         d="m 403.16917,689.11929 c -0.0213,-0.85794 0.007,-1.74663 0.0106,-2.61996 0.002,-0.9318 -0.0106,-1.86366 0.002,-2.79539 0.007,-0.92566 0.0319,-1.85124 0.0652,-2.77643 0.0106,-0.44281 0.20091,-1.0618 0.0613,-1.32785 -0.72797,0.0573 -1.75113,-0.0611 -2.57573,0.0326 -0.76444,0.0301 -0.72982,-1.38247 -0.007,-1.43397 0.79391,-0.0794 1.36261,-0.006 2.04325,0.0195 0.64499,0.0241 1.28927,0.0704 1.93206,0.12894 0.64874,0.059 1.30691,0.0765 1.94155,0.22369 0.55846,0.12947 1.42746,-0.0615 1.621,0.57483 0.23633,1.1073 -0.77578,0.9645 -1.35546,0.83683 -0.97859,-0.21558 -1.88578,-0.28747 -2.1914,-0.13993 -0.0698,0.54115 -0.0407,1.10638 -0.0528,1.65977 -0.0248,1.13246 -0.0418,2.26518 -0.0478,3.39793 -0.004,0.97977 0.0106,1.95952 0.0177,2.9393 0.004,0.74412 -0.0528,1.49679 0.007,2.23237 0.0794,0.94759 0.0531,1.78232 0.18708,2.84883 0.0404,0.54102 0.42063,1.34951 -0.152,1.72171 -0.31926,0.11841 -0.64839,0.13521 -0.87626,-0.0563 -0.23918,-0.20126 -0.2863,-0.59756 -0.32138,-0.92072 -0.0889,-0.80149 -0.1598,-1.63206 -0.21295,-2.45005 -0.0464,-0.69792 -0.0985,-1.41015 -0.0943,-2.09618 z"
         id="path8025"
         inkscape:connector-curvature="0"
         sodipodi:nodetypes="caaacccaaacscaaasccssacc" />
      <path
         inkscape:connector-curvature="0"
         id="path8033"
         d="m 370.64965,677.76902 c -0.29195,-0.0376 -0.55075,0.002 -0.74805,0.15039 -0.13039,0.0978 -0.11325,0.75579 -0.10156,1.13477 0.0461,1.33123 0.14268,2.72746 0.18555,3.87695 0.0319,0.9251 0.0569,1.87344 0.0781,2.77539 0.0698,1.30091 0.0363,2.61311 0.0742,3.90625 0.0319,1.06176 0.0358,2.03865 0.0274,3.21094 -0.007,0.89007 -0.26972,2.4264 0.57617,2.55078 0.70526,0.10368 0.57085,-1.25552 0.60351,-1.93164 0.0443,-0.91955 -0.0104,-1.95547 0,-2.96875 0.0142,-1.03174 -0.10537,-2.07353 -0.0625,-3.18945 0.83357,-0.27153 1.47284,-0.34297 2.23047,-0.79688 1.00889,-0.70829 1.5713,-1.77904 1.63086,-2.88086 0.0819,-1.5135 -0.82881,-3.08805 -1.80078,-4.17578 -0.6502,-0.73308 -1.81751,-1.54927 -2.69336,-1.66211 z m 0.69727,1.56836 c 0.65338,0.0902 2.03932,2.29 2.31836,3.16211 0.39539,1.23565 -0.12849,2.27743 -0.74414,2.84961 -0.44873,0.41703 -1.45764,1.0734 -1.57032,0.52344 -0.1272,-0.62233 0.002,-2.61846 -0.0586,-4.11719 -0.0291,-0.72951 -0.13426,-2.30091 -0.0684,-2.4082 l 0.002,0 c 0.0365,-0.0138 0.0775,-0.0158 0.1211,-0.01 z"
         style="fill:#000000;stroke:#999999;stroke-width:0.09999999;stroke-miterlimit:4;stroke-dasharray:none" />
      <path
         style="fill:#000000;stroke:#999999;stroke-width:0.09999999;stroke-miterlimit:4;stroke-dasharray:none"
         d="m 275.12964,680.05916 c -0.0248,0.73822 -0.0106,1.36575 -0.0588,1.99924 -0.0634,0.85243 -0.14031,1.67137 -0.14031,2.50902 -1.4e-4,1.09533 0.13429,2.18665 0.18248,3.28091 0.0386,0.87405 0.0758,1.74846 0.0857,2.62331 0.0106,1.00531 0.0213,1.91403 -0.0319,3.01596 0.0369,0.59948 -0.52363,1.93063 0.56009,1.72923 1.03422,-0.14673 0.74891,-1.2411 0.77857,-1.97454 0.002,-1.25136 -0.12047,-2.502 -0.0319,-3.75455 -3.2e-4,-0.67769 -0.10098,-1.35374 -0.0833,-2.03502 -0.039,-1.17601 -0.17291,-2.42852 -0.19417,-3.6034 -0.0641,-0.47309 0.32279,-1.24044 0.52774,-0.56618 0.13535,0.8253 0.25724,1.79407 0.40092,2.68882 0.16689,1.03964 0.35256,1.97941 0.53458,3.11323 0.22323,0.88802 0.23599,1.43034 0.47293,2.33672 0.0638,0.24389 0.17008,0.92476 0.3313,1.18196 0.16122,0.25721 0.28346,0.39333 0.56827,0.38975 0.51194,-0.006 0.72592,-0.343 0.7795,-0.79476 0.0535,-0.45175 0.0865,-1.32104 0.16334,-1.99527 0.0932,-0.81688 0.27425,-1.62135 0.41907,-2.4307 0.11976,-0.66991 0.25086,-1.33774 0.37194,-2.00744 0.13925,-0.77134 0.2622,-1.54874 0.40766,-2.31587 0.0574,-0.30172 0.36145,-1.74879 0.54882,-0.6101 0.0815,0.87813 0.007,2.00512 0.0319,2.90689 0.007,0.91192 -0.007,1.463 -4.3e-4,2.19444 0.0213,1.80718 -0.0177,3.61849 0.11941,5.42057 0.05,0.65611 -0.16334,1.42781 0.25583,1.9574 0.58472,0.67057 1.20579,-0.044 1.1846,-0.66009 -0.0284,-0.80683 -0.13039,-1.87126 -0.15945,-2.80369 0.007,-0.86335 -0.18283,-1.70972 -0.0925,-2.57035 -0.0106,-0.82538 0.004,-1.59117 -10e-4,-2.38672 -0.007,-0.91255 -0.0411,-1.8248 -0.0457,-2.73737 -0.007,-1.01033 0.0213,-2.02061 0.0177,-3.03095 -6e-4,-0.83707 -0.0783,-1.75866 -0.17929,-2.41639 -0.0964,-0.63025 -0.13322,-1.53913 -0.91906,-1.60323 -0.87105,0.0135 -0.95287,1.14565 -1.11749,1.90427 -0.37683,1.73644 -0.5513,2.57731 -0.80419,3.87055 -0.18992,0.97122 -0.24342,1.54285 -0.5356,2.92014 -0.18532,0.84641 -0.27674,2.3709 -0.59305,2.36655 -0.34547,-0.005 -0.36666,-1.65375 -0.63053,-3.02395 -0.1389,-0.78838 -0.25582,-1.39281 -0.39036,-2.0879 -0.14776,-0.76139 -0.30189,-1.52026 -0.45791,-2.2812 -0.24838,-0.8924 -0.33696,-1.62771 -0.64803,-2.44051 -0.25122,-0.73018 -0.43012,-0.98087 -0.95599,-0.96099 -0.51455,0.0195 -0.60051,0.5272 -0.64236,0.84701 0.0656,0.60687 -0.007,1.22372 -0.0283,1.8352 z"
         id="path8039"
         inkscape:connector-curvature="0"
         sodipodi:nodetypes="ssaaacccccccacsssssaasccaacsccaasscsacscaccscs" />
      <path
         inkscape:connector-curvature="0"
         id="path8045"
         d="m 238.85278,641.31395 c -1.96126,-0.10255 -3.85529,0.7748 -5.20508,2.06445 -1.91505,1.82973 -2.7359,4.65055 -3.26367,7.24609 -0.92116,4.53008 -1.10052,9.45987 0.30664,13.86328 0.86063,2.69322 2.27283,5.67972 4.76367,7.01758 1.33349,0.71623 3.23733,0.82191 4.54102,0.0527 3.14964,-1.85825 4.44168,-6.31929 5.19531,-9.66211 1.08506,-4.81288 0.72815,-11.27331 -0.0625,-13.69141 -0.3768,-1.15241 -1.98052,-6.6661 -6.27539,-6.89062 z m -0.13282,2.42773 c 1.73233,0 3.00121,2.23329 3.67579,3.75586 1.18647,2.67796 1.09851,5.80297 1.0039,8.73047 -0.0925,2.8623 -0.45528,5.62805 -1.52929,8.45312 -0.76341,2.00806 -1.73019,4.68429 -4.04493,5.03516 -1.15724,0.17543 -2.22365,-1.01081 -2.91797,-1.95313 -1.56802,-2.12814 -1.92169,-4.97788 -2.25976,-7.59961 -0.35816,-2.77787 -0.11066,-5.62402 0.27344,-8.39843 0.29445,-2.1278 0.91607,-4.8692 2.5332,-6.57032 0.82109,-0.86371 1.53334,-1.45312 3.26562,-1.45312 z"
         style="fill:#000000;stroke:#999999;stroke-width:0.10000002;stroke-miterlimit:4;stroke-dasharray:none" />
      <path
         inkscape:connector-curvature="0"
         id="path8055"
         d="m 253.13793,677.73973 c -0.27389,-0.01 -0.55328,0.0156 -0.76953,0.29101 -0.29516,0.37576 -0.0955,0.77497 -0.0742,1.05664 l 0.002,0 c 0.12968,1.52363 0.14791,3.58642 0.23046,5.49024 0.067,1.54242 0.0325,3.08219 0.041,4.62304 0.007,1.00097 0.0168,2.00099 0.01,3.00196 -0.007,0.97666 -0.0387,1.84372 -0.0469,2.92968 0.0106,0.66137 0.42956,0.8327 0.80664,0.7793 0.36904,-0.0523 0.60259,-0.32282 0.60156,-0.74609 -0.004,-1.54719 0.002,-3.25515 0.0371,-4.75782 0.0248,-0.98273 -0.0558,-1.96286 0.0215,-2.94921 0.5957,-0.31419 1.60509,-0.2633 2.0625,0.0664 0.45737,0.32971 0.62256,0.81307 0.82031,1.2793 0.43788,1.03248 0.50745,2.18441 0.77539,3.27344 0.17327,0.70339 0.22792,1.56861 0.53711,2.10547 0.30898,0.53685 0.69588,0.53165 0.98242,0.33789 0.45571,-0.3082 0.34832,-0.8005 0.084,-1.64844 -0.20091,-0.64507 -0.40771,-1.56263 -0.47266,-2.21289 -0.11905,-0.95854 -0.40805,-1.84573 -0.77344,-2.73438 -0.27567,-0.67046 -0.59777,-1.1646 -1.45507,-1.77148 0.23881,-0.27369 0.56058,-0.71272 0.7539,-1.0918 0.29693,-0.58244 0.34732,-1.43577 0.27539,-2.12109 -0.0999,-0.95317 -0.55429,-1.87719 -1.01953,-2.6875 -0.18638,-0.31716 -0.37502,-0.61352 -0.625,-0.86719 -0.50853,-0.51606 -1.1011,-0.9631 -1.74414,-1.29687 -0.33059,-0.17157 -0.80536,-0.3404 -1.06055,-0.34961 z m 0.61524,1.71875 c 0.21189,0.11993 0.47915,0.34492 0.6875,0.55273 0.4073,0.40632 0.73427,0.79877 1.08789,1.3418 0.37601,0.52954 0.60768,1.32961 0.64453,1.98242 0.009,0.52186 -0.12427,1.11766 -0.4375,1.55664 -0.30409,0.42634 -0.794,0.73554 -1.29297,0.89453 -0.21543,0.0686 -0.54911,0.28504 -0.67773,0.008 3.5e-4,-0.31207 -0.0323,-0.74465 -0.043,-1.11718 -0.0142,-0.5781 -0.012,-1.11423 -0.0332,-1.73438 -0.0216,-0.99655 -0.0273,-1.88488 -0.10351,-2.82617 -0.0237,-0.29316 -0.12542,-0.74112 0.16797,-0.6582 z"
         style="fill:#000000;stroke:#999999;stroke-width:0.09999999;stroke-miterlimit:4;stroke-dasharray:none" />
    </g>
  </g>
</svg>
