<?xml version="1.0" encoding="UTF-8" standalone="no"?>
<svg
   xmlns:dc="http://purl.org/dc/elements/1.1/"
   xmlns:cc="http://creativecommons.org/ns#"
   xmlns:rdf="http://www.w3.org/1999/02/22-rdf-syntax-ns#"
   xmlns:svg="http://www.w3.org/2000/svg"
   xmlns="http://www.w3.org/2000/svg"
   xmlns:xlink="http://www.w3.org/1999/xlink"
   xmlns:sodipodi="http://sodipodi.sourceforge.net/DTD/sodipodi-0.dtd"
   xmlns:inkscape="http://www.inkscape.org/namespaces/inkscape"
   width="543.95715"
   height="1200.5605"
   viewBox="0 0 543.95714 1200.5605"
   overflow="visible"
   enable-background="new 0 0 350 750"
   xml:space="preserve"
   id="svg4304"
   sodipodi:version="0.32"
   inkscape:version="0.48.1 "
   sodipodi:docname="Floppy_disk_internal_diagram.svg"
   version="1.1"
   style="overflow:visible"><sodipodi:namedview
   inkscape:window-height="1128"
   inkscape:window-width="1600"
   inkscape:pageshadow="2"
   inkscape:pageopacity="0.0"
   guidetolerance="10.0"
   gridtolerance="10.0"
   objecttolerance="10.0"
   borderopacity="1.0"
   bordercolor="#666666"
   pagecolor="#ffffff"
   id="base"
   inkscape:zoom="1.0961"
   inkscape:cx="181.824"
   inkscape:cy="837.59192"
   inkscape:window-x="-4"
   inkscape:window-y="49"
   inkscape:current-layer="svg4304"
   showgrid="false"
   inkscape:window-maximized="1"
   showguides="true"
   inkscape:guide-bbox="true"
   inkscape:snap-global="false"
   fit-margin-top="1"
   fit-margin-left="1"
   fit-margin-right="1"
   fit-margin-bottom="1"
   units="cm" /><title
   id="title4856">Anatomy of a 3.5&quot; diskette</title><metadata
   id="metadata4901"><rdf:RDF><cc:Work
       rdf:about=""><dc:format>image/svg+xml</dc:format><dc:type
         rdf:resource="http://purl.org/dc/dcmitype/StillImage" /><dc:title>Anatomy of a 3.5&quot; diskette</dc:title><dc:contributor><cc:Agent><dc:title>Daniel Beardsmore</dc:title></cc:Agent></dc:contributor><cc:license
         rdf:resource="http://creativecommons.org/licenses/publicdomain/" /><dc:creator><cc:Agent><dc:title>Fastfission</dc:title></cc:Agent></dc:creator><dc:date>2011-04-17</dc:date><dc:source>http://commons.wikimedia.org/wiki/File:Floppy_disk_internal_diagram.svg</dc:source></cc:Work><cc:License
       rdf:about="http://creativecommons.org/licenses/publicdomain/"><cc:permits
         rdf:resource="http://creativecommons.org/ns#Reproduction" /><cc:permits
         rdf:resource="http://creativecommons.org/ns#Distribution" /><cc:permits
         rdf:resource="http://creativecommons.org/ns#DerivativeWorks" /></cc:License></rdf:RDF></metadata><defs
   id="defs4899"><linearGradient
     gradientTransform="matrix(1,0,0,-1,17,770.899)"
     y2="527.7818"
     x2="192.0014"
     y1="623.37549"
     x1="32.4277"
     gradientUnits="userSpaceOnUse"
     id="Metal_gradient">
<stop
   id="stop4595"
   style="stop-color: rgb(43, 43, 43);"
   offset="0" />
<stop
   id="stop4597"
   style="stop-color: rgb(133, 133, 133);"
   offset="0.2753" />
<stop
   id="stop4599"
   style="stop-color: rgb(240, 240, 240);"
   offset="0.691" />
<stop
   id="stop4601"
   style="stop-color: rgb(235, 235, 235);"
   offset="0.7161" />
<stop
   id="stop4603"
   style="stop-color: rgb(220, 220, 220);"
   offset="0.7464" />
<stop
   id="stop4605"
   style="stop-color: rgb(195, 195, 195);"
   offset="0.7794" />
<stop
   id="stop4607"
   style="stop-color: rgb(178, 178, 178);"
   offset="0.7978" />
<stop
   id="stop4609"
   style="stop-color: rgb(92, 92, 92);"
   offset="0.9101" />
</linearGradient><marker
     inkscape:stockid="Arrow2Sendc"
     orient="auto"
     refY="0"
     refX="0"
     id="Arrow2Sendc"
     style="overflow:visible"><path
       id="path6931"
       style="font-size:12px;fill:#ff0000;fill-rule:evenodd;stroke:#ff0000;stroke-width:0.625;stroke-linejoin:round"
       d="M 8.7185878,4.0337352 -2.2072895,0.01601326 8.7185884,-4.0017078 c -1.7454984,2.3720609 -1.7354408,5.6174519 -6e-7,8.035443 z"
       transform="matrix(-0.3,0,0,-0.3,0.69,0)"
       inkscape:connector-curvature="0" /></marker><marker
     inkscape:stockid="Arrow2Send0"
     orient="auto"
     refY="0"
     refX="0"
     id="Arrow2Send0"
     style="overflow:visible"><path
       id="path7643"
       style="font-size:12px;fill:#ff0000;fill-rule:evenodd;stroke:#ff0000;stroke-width:0.625;stroke-linejoin:round"
       d="M 8.7185878,4.0337352 -2.2072895,0.01601326 8.7185884,-4.0017078 c -1.7454984,2.3720609 -1.7354408,5.6174519 -6e-7,8.035443 z"
       transform="matrix(-0.3,0,0,-0.3,0.69,0)"
       inkscape:connector-curvature="0" /></marker><marker
     inkscape:stockid="Arrow2SendcF"
     orient="auto"
     refY="0"
     refX="0"
     id="Arrow2SendcF"
     style="overflow:visible"><path
       id="path7646"
       style="font-size:12px;fill:#ff0000;fill-rule:evenodd;stroke:#ff0000;stroke-width:0.625;stroke-linejoin:round"
       d="M 8.7185878,4.0337352 -2.2072895,0.01601326 8.7185884,-4.0017078 c -1.7454984,2.3720609 -1.7354408,5.6174519 -6e-7,8.035443 z"
       transform="matrix(-0.3,0,0,-0.3,0.69,0)"
       inkscape:connector-curvature="0" /></marker><marker
     inkscape:stockid="Arrow2Sendi"
     orient="auto"
     refY="0"
     refX="0"
     id="Arrow2Sendi"
     style="overflow:visible"><path
       id="path7649"
       style="font-size:12px;fill:#ff0000;fill-rule:evenodd;stroke:#ff0000;stroke-width:0.625;stroke-linejoin:round"
       d="M 8.7185878,4.0337352 -2.2072895,0.01601326 8.7185884,-4.0017078 c -1.7454984,2.3720609 -1.7354408,5.6174519 -6e-7,8.035443 z"
       transform="matrix(-0.3,0,0,-0.3,0.69,0)"
       inkscape:connector-curvature="0" /></marker><marker
     inkscape:stockid="Arrow2Sendq"
     orient="auto"
     refY="0"
     refX="0"
     id="Arrow2Sendq"
     style="overflow:visible"><path
       id="path7652"
       style="font-size:12px;fill:#ff0000;fill-rule:evenodd;stroke:#ff0000;stroke-width:0.625;stroke-linejoin:round"
       d="M 8.7185878,4.0337352 -2.2072895,0.01601326 8.7185884,-4.0017078 c -1.7454984,2.3720609 -1.7354408,5.6174519 -6e-7,8.035443 z"
       transform="matrix(-0.3,0,0,-0.3,0.69,0)"
       inkscape:connector-curvature="0" /></marker><marker
     inkscape:stockid="Arrow2SendK"
     orient="auto"
     refY="0"
     refX="0"
     id="Arrow2SendK"
     style="overflow:visible"><path
       id="path7655"
       style="font-size:12px;fill:#ff0000;fill-rule:evenodd;stroke:#ff0000;stroke-width:0.625;stroke-linejoin:round"
       d="M 8.7185878,4.0337352 -2.2072895,0.01601326 8.7185884,-4.0017078 c -1.7454984,2.3720609 -1.7354408,5.6174519 -6e-7,8.035443 z"
       transform="matrix(-0.3,0,0,-0.3,0.69,0)"
       inkscape:connector-curvature="0" /></marker><marker
     inkscape:stockid="Arrow2Sendp"
     orient="auto"
     refY="0"
     refX="0"
     id="Arrow2Sendp"
     style="overflow:visible"><path
       id="path7658"
       style="font-size:12px;fill:#ff0000;fill-rule:evenodd;stroke:#ff0000;stroke-width:0.625;stroke-linejoin:round"
       d="M 8.7185878,4.0337352 -2.2072895,0.01601326 8.7185884,-4.0017078 c -1.7454984,2.3720609 -1.7354408,5.6174519 -6e-7,8.035443 z"
       transform="matrix(-0.3,0,0,-0.3,0.69,0)"
       inkscape:connector-curvature="0" /></marker><marker
     inkscape:stockid="Arrow2SendD"
     orient="auto"
     refY="0"
     refX="0"
     id="Arrow2SendD"
     style="overflow:visible"><path
       id="path7661"
       style="font-size:12px;fill:#ff0000;fill-rule:evenodd;stroke:#ff0000;stroke-width:0.625;stroke-linejoin:round"
       d="M 8.7185878,4.0337352 -2.2072895,0.01601326 8.7185884,-4.0017078 c -1.7454984,2.3720609 -1.7354408,5.6174519 -6e-7,8.035443 z"
       transform="matrix(-0.3,0,0,-0.3,0.69,0)"
       inkscape:connector-curvature="0" /></marker><marker
     inkscape:stockid="Arrow2SendV"
     orient="auto"
     refY="0"
     refX="0"
     id="Arrow2SendV"
     style="overflow:visible"><path
       id="path7664"
       style="font-size:12px;fill:#ff0000;fill-rule:evenodd;stroke:#ff0000;stroke-width:0.625;stroke-linejoin:round"
       d="M 8.7185878,4.0337352 -2.2072895,0.01601326 8.7185884,-4.0017078 c -1.7454984,2.3720609 -1.7354408,5.6174519 -6e-7,8.035443 z"
       transform="matrix(-0.3,0,0,-0.3,0.69,0)"
       inkscape:connector-curvature="0" /></marker><linearGradient
     inkscape:collect="always"
     xlink:href="#Metal_gradient"
     id="linearGradient4278"
     gradientUnits="userSpaceOnUse"
     gradientTransform="matrix(1.7795945,0,0,-1.7795948,-0.69261211,1369.5904)"
     x1="85.278969"
     y1="677.74493"
     x2="140.68231"
     y2="628.83405" /><linearGradient
     inkscape:collect="always"
     xlink:href="#Metal_gradient"
     id="linearGradient4247"
     gradientUnits="userSpaceOnUse"
     gradientTransform="matrix(1.3292818,0,0,-1.55,54.023234,1219.2514)"
     x1="20.830982"
     y1="632.73584"
     x2="196.77652"
     y2="523.10162" /></defs>
<use
   x="0"
   y="0"
   xlink:href="#use4923"
   id="use4153"
   transform="translate(0.00443,-790.03311)"
   width="543.95715"
   height="1200.5605" /><use
   x="0"
   y="0"
   xlink:href="#use4923"
   id="use4151"
   transform="translate(0.00443,-395.68936)"
   width="543.95715"
   height="1200.5605" /><path
   inkscape:connector-curvature="0"
   id="circle4708"
   d="m 194.40182,57.301108 c -82.64207,0 -149.63375,66.991812 -149.63375,149.634232 0,82.64144 66.99168,149.63326 149.63375,149.63326 82.64207,0 149.63375,-66.99182 149.63375,-149.63326 0,-82.64242 -66.99168,-149.634232 -149.63375,-149.634232 z M 172.25994,188.52996 c 0.72487,0 1.38248,0.5439 1.56188,1.225 l 6.30875,28.0525 c 0.24132,0.99078 -0.21165,1.9257 -1.53125,2.14326 l -16.59875,3.52212 c -0.93692,0.1666 -2.02337,-0.17052 -2.205,-1.62288 l -4.22625,-21.805 c -0.91594,-5.635 1.40852,-8.35646 4.96125,-9.1875 l 11.42312,-2.29712 c 0.10463,-0.0196 0.2027,-0.0294 0.30625,-0.0294 z"
   style="fill:#2c1d19;fill-opacity:1" /><path
   style="color:#000000;fill:#000000;fill-opacity:0.32941176;stroke:none;stroke-width:1;marker:none;visibility:visible;display:inline;overflow:visible;enable-background:accumulate"
   d="m 42.301881,46.630358 0,35.031 2.686159,0 0,-31.296 17.532591,0 0,-3.735 -8.407296,0 c -0.780115,-1.08455 -2.245209,-1.255795 -3.196569,0 z"
   id="rect4183"
   inkscape:connector-curvature="0"
   sodipodi:nodetypes="ccccccccc" /><g
   id="g4386"
   transform="translate(0,-0.22186566)"><rect
     style="color:#000000;fill:#333333;fill-opacity:1;fill-rule:evenodd;stroke:none;stroke-width:8;marker:none;visibility:visible;display:inline;overflow:visible;enable-background:accumulate"
     id="rect4367"
     width="20.044405"
     height="16.521982"
     x="42.51487"
     y="65.045639" /><rect
     y="67.04245"
     x="45.042427"
     height="12.528358"
     width="14.989286"
     id="rect3247"
     style="color:#000000;fill:#000000;fill-opacity:1;fill-rule:evenodd;stroke:none;stroke-width:1;marker:none;visibility:visible;display:inline;overflow:visible;enable-background:accumulate" /></g><path
   style="fill:#027abb;stroke:#000000;stroke-width:1"
   d="M 42.59375,40.90625 C 39.0892,40.90625 36.25,43.793 36.25,47.375 l 0,284.0625 c 0.576291,0.0105 1.491991,0.0312 1.84375,0.0312 4.614536,0 8.34375,3.859 8.34375,8.625 0,4.766 -3.729214,8.625 -8.34375,8.625 -0.358909,0 -1.271851,0.0258 -1.84375,0.0312 l 0,19.34375 c 0,3.582 2.83765,6.5 6.34375,6.5 l 26.03125,0 0,-0.96875 167.28125,0 12.53125,-15.6415 8.625,0 0,10.86025 33.9375,-0.0312 3.9375,4.8125 28.21875,0 0.84375,0.96875 12.09375,0 17.53125,-17.78125 0,-8.09375 c -0.62397,-0.006 -1.29462,0 -1.46875,0 -4.61453,0 -8.34375,-3.859 -8.34375,-8.625 0,-4.766 3.72922,-8.625 8.34375,-8.625 0.17066,0 0.84501,0.005 1.46875,0 l 0,-284.09375 c 0,-3.582 -2.8392,-6.46875 -6.34375,-6.46875 l -25.625,0 0,0.9375 -253.34375,0 0,-0.9375 z m -0.15625,5.3125 8.422185,0 c 0.989414,-1.084549 2.264236,-1.027468 3.310731,0 l 8.548334,0 0,35.53125 -8.605415,0 c -0.921847,0.901466 -2.177228,0.883472 -3.196569,0 l -8.479266,0 z m 285.8125,19.25 16.375,0 0,12.8125 -16.375,0 z M 194.59375,159.3125 c 26.07967,0 47.21875,21.3475 47.21875,47.6875 0,26.341 -21.13908,47.6875 -47.21875,47.6875 -26.07967,0 -47.21875,-21.3465 -47.21875,-47.6875 0,-26.34 21.13908,-47.6875 47.21875,-47.6875 z m -16.28125,116.46875 32.9375,0 0,83.25 -32.9375,0 z M 338.25,304.4375 c 3.827,0 6.90625,3.1105 6.90625,6.9375 0,3.827 -3.07925,6.9375 -6.90625,6.9375 l -2.34375,0 c -3.67608,-0.17 -6.59375,-3.2195 -6.59375,-6.9375 0,-3.747 2.97089,-6.78125 6.6875,-6.90625 0.0791,10e-4 2.1702,0 2.25,0 z m -284.1875,3.15625 c 3.827004,0 6.90625,3.1105 6.90625,6.9375 0,3.827 -3.079246,6.9375 -6.90625,6.9375 -3.827004,0 -6.9375,-3.1105 -6.9375,-6.9375 0,-3.827 3.110496,-6.9375 6.9375,-6.9375 z"
   id="jacket"
   inkscape:connector-curvature="0"
   sodipodi:nodetypes="sscssscsscccccccccccccssscssccccsccccccccccccccsssssccccccsscscccsssss"
   transform="translate(0,-8.7379582e-6)" /><path
   sodipodi:nodetypes="ccsscc"
   inkscape:connector-curvature="0"
   style="fill:none;stroke:#000000;stroke-width:1;stroke-miterlimit:4;stroke-opacity:0.40394089999999999;stroke-dasharray:none"
   d="m 282.96247,368.76362 c 0.0532,-25.83911 0,-67.38931 0,-96.85927 -0.1828,-0.96826 1.24296,-8.063 -7.936,-8.063 l -198.50882,0 c -8.43251,0 -7.9375,7.032 -7.9375,8.063 -0.002,32.5782 0.0413,101.75319 0.0413,101.75319"
   id="path4145" /><path
   style="fill:#027abb;stroke:#000000;stroke-width:1"
   d="m 42.59375,830.93749 c -3.50455,0 -6.34375,2.88675 -6.34375,6.46875 l 0,320.71876 c 0,3.583 2.83765,6.5 6.34375,6.5 l 24.25,0 0,-4.125 12.34375,0 3.1875,3.1562 153.53125,0 12.53125,-15.6562 8.625,0 0,10.8438 33.9375,0 3.9375,4.8124 28.21875,0 0.84375,0.9688 12.09375,0 17.53125,-17.7812 0,-309.43756 c 0,-3.582 -2.8392,-6.46875 -6.34375,-6.46875 l -25.625,0 0,0.9375 -253.34375,0 0,-0.9375 -25.71875,0 z m 285.65625,24.5625 16.375,0 0,12.8125 -16.375,0 0,-12.8125 z m -283.90625,0.0312 16.40625,0 0,12.78125 -16.40625,0 0,-12.78125 z m 133.96875,210.37496 32.90625,0 0,83.2813 -32.90625,0 0,-83.2813 z"
   id="use4923"
   inkscape:connector-curvature="0" /><path
   inkscape:connector-curvature="0"
   style="fill:#2c1d19;fill-opacity:1"
   d="m 194.40182,846.89634 c -82.64207,0 -149.63375,66.99169 -149.63375,149.63375 0,82.64211 66.99168,149.63371 149.63375,149.63371 82.64207,0 149.63375,-66.9916 149.63375,-149.63371 0,-82.64206 -66.99168,-149.63375 -149.63375,-149.63375 z m -22.14188,131.22813 c 0.72487,-0.002 1.38248,0.54445 1.56188,1.225 l 6.30875,28.05253 c 0.24132,0.991 -0.21165,1.9259 -1.53125,2.1437 l -16.59875,3.5219 c -0.93692,0.1672 -2.02337,-0.1702 -2.205,-1.6231 l -4.22625,-21.80503 c -0.91594,-5.63468 1.40852,-8.35652 4.96125,-9.1875 l 11.42312,-2.29688 c 0.10463,-0.0232 0.2027,-0.0303 0.30625,-0.0306 z"
   id="path4929" /><line
   style="fill:none;stroke:#e7b98a;stroke-width:1"
   id="line4957"
   y2="996.52515"
   x2="134.36949"
   y1="996.52515"
   x1="50.835117" /><line
   style="fill:none;stroke:#e7b98a;stroke-width:1"
   id="line4959"
   y2="996.52515"
   x2="337.76965"
   y1="996.52515"
   x1="254.2338" /><line
   style="fill:none;stroke:#e7b98a;stroke-width:1"
   id="line4961"
   y2="936.59448"
   x2="194.30011"
   y1="853.06012"
   x1="194.30011" /><line
   style="fill:none;stroke:#e7b98a;stroke-width:1"
   id="line4963"
   y2="1139.99"
   x2="194.30011"
   y1="1056.4543"
   x1="194.30011" /><line
   style="fill:none;stroke:#e7b98a;stroke-width:1"
   id="line4965"
   y2="895.08026"
   x2="295.74957"
   y1="954.14648"
   x1="236.68022" /><line
   style="fill:none;stroke:#e7b98a;stroke-width:1"
   id="line4967"
   y2="895.08026"
   x2="92.855209"
   y1="954.14648"
   x1="151.92305" /><line
   style="fill:none;stroke:#e7b98a;stroke-width:1"
   id="line4969"
   y2="1097.9701"
   x2="295.74957"
   y1="1038.9006"
   x1="236.68022" /><line
   style="fill:none;stroke:#e7b98a;stroke-width:1"
   id="line4971"
   y2="1097.9701"
   x2="92.855209"
   y1="1038.9006"
   x1="151.92305" /><path
   style="fill:#f0f0f0;stroke:#000000;stroke-width:1"
   id="path4973"
   d="M 262.59739,1129.6974"
   inkscape:connector-curvature="0" /><path
   style="fill:#f0f0f0;stroke:#000000;stroke-width:1"
   id="path4975"
   d="M 262.59739,1129.6974"
   inkscape:connector-curvature="0" /><use
   x="0"
   y="0"
   xlink:href="#hub_shadow"
   id="use8426"
   transform="translate(-0.57580661,790.08799)"
   width="542.5"
   height="1162.5" /><path
   style="fill:#f0f0f0;stroke:#000000;stroke-width:1"
   id="path4576"
   d="M 264.65252,311.38835"
   inkscape:connector-curvature="0" /><path
   style="fill:#f0f0f0;stroke:#000000;stroke-width:1"
   id="path4580"
   d="M 264.65252,311.38835"
   inkscape:connector-curvature="0" /><rect
   style="color:#000000;fill:none;stroke:#000000;stroke-width:0.99999994;stroke-opacity:0.66500005;marker:none;visibility:visible;display:inline;overflow:visible;enable-background:accumulate"
   id="rect3158"
   width="168.58975"
   height="3.706007"
   x="71.720451"
   y="362.03632"
   ry="1.6339092"
   rx="2.0971601" /><path
   style="fill:#000000;fill-opacity:0.28235294;stroke:none"
   d="m 159.90261,190.15135 c -1.38744,2.798 -2.46238,5.773 -3.21875,8.875 l 0,20.437 c 0.56209,2.303 1.30182,4.547 2.21875,6.688 l 50.6875,0 0,-36 -49.6875,0 z m 15.375,3.093 c 0.62559,0 1.18892,0.46 1.34375,1.063 l 5.4375,24.875 c 0.20827,0.877 -0.17364,1.713 -1.3125,1.906 l -14.03125,2.813 c -0.8086,0.148 -1.74949,-0.183 -1.90625,-1.469 l -3.65625,-19.281 c -0.79049,-4.988 1.24637,-7.39 4.3125,-8.125 l 9.53125,-1.75 c 0.0903,-0.02 0.19188,-0.03 0.28125,-0.03 z m 17.59375,7.094 10.75,0 c 1.98095,0 3.59375,1.614 3.59375,3.594 l 0,10.781 c 0,1.981 -1.6128,3.563 -3.59375,3.563 l -10.75,0 c -1.97947,0 -3.59375,-1.583 -3.59375,-3.563 l 0,-10.781 c 0,-1.981 1.61428,-3.594 3.59375,-3.594 z"
   id="hub_shadow"
   inkscape:connector-curvature="0" /><path
   id="hub"
   d="m 194.56679,163.97935 c -11.88235,0 -22.60657,4.819 -30.3923,12.605 -7.78572,7.785 -12.60511,18.558 -12.60511,30.439 0,11.88 4.81939,22.606 12.60511,30.392 7.78573,7.786 18.50995,12.605 30.3923,12.605 11.88057,0 22.65325,-4.819 30.43898,-12.605 7.78572,-7.786 12.60511,-18.512 12.60511,-30.392 0,-11.881 -4.81939,-22.654 -12.60511,-30.439 -7.78573,-7.786 -18.55841,-12.605 -30.43898,-12.605 z m -23.43578,27.065 c 0.72238,-0.164 1.44978,0.351 1.62673,1.04 l 5.42242,24.852 c 0.20827,0.878 -0.17157,1.706 -1.31043,1.898 l -14.02437,2.818 c -0.8086,0.148 -1.74109,-0.16 -1.89785,-1.446 l -3.66013,-19.294 c -0.79049,-4.988 1.22661,-7.398 4.29274,-8.134 z m 17.8802,7.062 10.73768,0 c 1.98095,0 3.59478,1.615 3.59478,3.595 l 0,10.784 c 0,1.981 -1.61383,3.548 -3.59478,3.548 l -10.73768,0 c -1.97947,0 -3.59479,-1.569 -3.59479,-3.548 l 0,-10.784 c 0,-1.981 1.61532,-3.595 3.59479,-3.595 z"
   style="fill:url(#linearGradient4278);fill-opacity:1;stroke:#000000;stroke-width:1;stroke-miterlimit:4;stroke-dasharray:none"
   inkscape:connector-curvature="0"
   sodipodi:nodetypes="ssssssssscccccccccsssssssss" />
<path
   sodipodi:nodetypes="cssssc"
   id="path4379"
   d="m 68.293686,40.450358 c 0,0 0.186435,35.339 0.186435,38.966 0,4.839 2.720348,9.068 8.161044,9.068 5.440697,0 229.912235,0.433 235.348005,0.665 5.68713,0.242 10.02939,-3.638 10.02939,-9.863 0,-7.248 -0.35962,-37.743 -0.35962,-37.743"
   style="fill:none;stroke:#000000;stroke-width:1px;stroke-linecap:butt;stroke-linejoin:miter;stroke-opacity:0.33004922"
   inkscape:connector-curvature="0" /><path
   sodipodi:nodetypes="cc"
   id="path5454"
   d="m 472.20782,71.704358 -114.31944,0.03"
   style="fill:none;stroke:#ff0000;stroke-width:6;stroke-linecap:butt;stroke-linejoin:miter;stroke-miterlimit:4;stroke-opacity:1;stroke-dasharray:none;marker-start:none;marker-mid:none;marker-end:url(#Arrow2Sendc)"
   inkscape:connector-curvature="0" /><path
   id="path7338"
   d="m 472.10371,206.36935 -237.69746,0.441"
   style="fill:none;stroke:#ff0000;stroke-width:6;stroke-linecap:butt;stroke-linejoin:miter;stroke-miterlimit:4;stroke-opacity:1;stroke-dasharray:none;marker-end:url(#Arrow2Sendq)"
   inkscape:connector-curvature="0"
   sodipodi:nodetypes="cc" /><path
   inkscape:connector-curvature="0"
   id="path7770"
   d="m 194.4258,451.17735 c -82.64207,0 -149.633753,66.99168 -149.633753,149.63375 0,82.64207 66.991683,149.63375 149.633753,149.63375 82.64207,0 149.63375,-66.99168 149.63375,-149.63375 0,-82.64207 -66.99168,-149.63375 -149.63375,-149.63375 z m -22.14188,131.22812 c 0.72487,-0.002 1.38248,0.54445 1.56188,1.225 l 6.30875,28.0525 c 0.24132,0.99101 -0.21165,1.92598 -1.53125,2.14375 l -16.59875,3.52188 c -0.93692,0.16721 -2.02337,-0.17024 -2.205,-1.62313 l -4.22625,-21.805 c -0.91594,-5.63467 1.40852,-8.35651 4.96125,-9.1875 l 11.42312,-2.29687 c 0.10463,-0.0232 0.2027,-0.0303 0.30625,-0.0306 z"
   style="fill:#2c1d19;fill-opacity:1" /><path
   style="color:#000000;fill:#fdffff;fill-opacity:1;fill-rule:evenodd;stroke:#000000;stroke-width:1;stroke-miterlimit:4;stroke-opacity:1;stroke-dasharray:none;marker:none;visibility:visible;display:inline;overflow:visible;enable-background:accumulate"
   d="M 181.96875 448.5 C 103.28142 454.711 41.34375 520.4035 41.34375 600.6875 C 41.34375 679.47828 100.96641 744.36804 177.5625 752.625 L 177.5625 670.28125 L 212 670.28125 L 212 752.46875 C 283.69297 744.10735 340.13922 686.05795 346.25 613.6875 L 181.96875 448.5 z M 194.75 552.90625 C 221.09254 552.90625 242.4375 574.59575 242.4375 601.34375 C 242.4375 628.09175 221.09254 649.78125 194.75 649.78125 C 168.40746 649.78125 147.0625 628.09175 147.0625 601.34375 C 147.0625 574.59575 168.40746 552.90625 194.75 552.90625 z "
   id="path4732"
   transform="translate(0,-8.7379582e-6)" /><path
   style="fill:#000000;fill-opacity:0.15686275;stroke:none"
   d="m 114.27304,436.02435 c -4.7547,2.184 -3.37268,9.003 -3.25,13.411 -13.112937,91.12 34.26996,125.37 61.28125,109.656 3.79727,-2.757 8.11915,-3.532 12.5935,-4.617 -1.68104,-8.136 -6.8378,-8.294 -11.281,-9.133 -2.80778,-1.972 -2.88365,-6.139 -5.8125,-8.281 -3.37993,-3.42 -2.40674,-5.885 -2.02126,-12.001 0.38549,-6.116 -10.37071,-9.24 -14.91624,-14.093 -4.54553,-4.852 2.15544,-15.015 -4.78125,-19.25 -3.94391,-2.694 -11.74517,-3.605 -13.03125,-6.094 -1.28608,-2.488 5.00815,-12.548 2.65675,-16.103 -2.3514,-3.556 -8.47839,-1.915 -10.6255,-4.958 -2.14711,-3.043 -4.34465,-14.519 -2.15625,-17.501 2.1884,-2.982 5.66032,-8.015 9.55074,-11.088 z m 126.25508,151.795 c 1.21757,2.959 1.74346,8.172 2.76527,10.96 -18.16377,60.753 63.85171,37.371 110.32154,35.668 l -0.007,-17.471 c 0,0 -1.44787,-1.161 -5.23494,-3.052 -3.78707,-1.891 -11.40071,-3.847 -16.84521,-2.787 -5.4445,1.061 -5.81085,2.268 -12.80186,5.153 -6.99101,2.884 -12.74512,3.025 -19.82373,2.024 -7.07861,-1.002 -16.39618,-12.423 -24.37871,-13.317 -7.98253,-0.894 -13.97323,0.579 -17.34375,-3.069 -3.37052,-3.647 -0.61889,-7.085 -2.61701,-10.464 -3.03212,-3.785 -9.47484,-3.76 -14.03416,-3.645 z"
   id="path4800"
   inkscape:connector-curvature="0"
   sodipodi:nodetypes="cccccczzczzzzcccccczzzzzzccc" /><use
   x="0"
   y="0"
   xlink:href="#hub_shadow"
   id="use8424"
   transform="translate(-0.16600639,394.26399)"
   width="542.5"
   height="1162.5" /><path
   style="fill:#000000;fill-opacity:0.15686275;stroke:none"
   d="m 112.21054,436.15835 c -4.21734,2.133 -3.9499,7.921 -3.21875,12.121 4.2961,68.338 -5.898,103.811 59.6875,114.062 4.15907,-3.402 8.71111,-5.456 13.77125,-7.271 -3.25266,-9.647 -7.10588,-6.242 -10.813,-7.677 -3.70713,-1.435 -2.94301,-6.188 -5.8645,-8.333 -3.37993,-3.42 -3.08273,-7.601 -2.69724,-13.717 0.38548,-6.116 -9.69687,-7.504 -14.24026,-12.377 -4.54339,-4.873 1.33249,-16.816 -4.84375,-19.344 -4.14095,-2.651 -11.25367,-3.306 -13.375,-6.093 -2.12133,-2.788 3.51384,-10.785 3.23975,-15.936 -1.33417,-3.447 -8.74589,-2.017 -11.0415,-4.834 -2.29561,-2.818 -3.95632,-16.093 -2.7295,-19.387 1.22682,-3.293 5.19662,-7.333 9.09375,-11.214 z m 129.21729,154.135 c 0.21208,1.706 1.2898,6.085 2.31977,8.933 -18.38398,61.901 63.55249,36.93 109.78648,36.019 l 0.11396,-13.896 c -0.7462,-1.233 -2.69859,-3.158 -6.26766,-4.858 -3.56908,-1.701 -13.47301,-4.426 -17.99826,-2.898 -4.52524,1.529 -3.97301,2.343 -10.86445,5.267 -6.89143,2.923 -17.33327,2.27 -23.47061,0.656 -6.13733,-1.614 -12.25985,-11.869 -22.55527,-12.519 -5.63586,-1.134 -13.57526,-0.01 -17.2609,-2.986 -3.68564,-2.976 -0.85421,-7.704 -3.52834,-11.707 -1.16387,-1.712 -7.2468,-2.503 -10.27472,-2.011 z"
   id="path4795"
   inkscape:connector-curvature="0"
   sodipodi:nodetypes="cccczczzczczzcccccczzzzczcc" /><path
   sodipodi:nodetypes="ccccccccc"
   inkscape:connector-curvature="0"
   id="path4189"
   d="m 42.143197,440.90235 0,35.031 2.686159,0 0,-31.296 17.532591,0 0,-3.735 -8.255984,0 c -0.964059,-0.84541 -2.195088,-0.84541 -3.159147,0 z"
   style="color:#000000;fill:#000000;fill-opacity:0.32941176;stroke:none;stroke-width:1;marker:none;visibility:visible;display:inline;overflow:visible;enable-background:accumulate" /><g
   id="g4396"
   transform="translate(-0.11093283,-0.26697022)"><rect
     y="459.51794"
     x="42.577568"
     height="16.521982"
     width="20.044405"
     id="rect4372"
     style="color:#000000;fill:#333333;fill-opacity:1;fill-rule:evenodd;stroke:none;stroke-width:8;marker:none;visibility:visible;display:inline;overflow:visible;enable-background:accumulate" /><rect
     style="color:#000000;fill:#000000;fill-opacity:1;fill-rule:evenodd;stroke:none;stroke-width:1;marker:none;visibility:visible;display:inline;overflow:visible;enable-background:accumulate"
     id="rect4374"
     width="14.989286"
     height="12.528358"
     x="45.105129"
     y="461.51477" /></g><path
   style="fill:#027abb;stroke:#000000;stroke-width:1"
   d="m 42.59375,435.25 c -3.50455,0 -6.34375,2.88675 -6.34375,6.46875 l 0,284.1875 c 0.84581,0.007 1.739964,0.0312 1.96875,0.0312 4.614536,0 8.34375,3.859 8.34375,8.625 0,4.766 -3.729214,8.625 -8.34375,8.625 -0.233422,0 -1.123854,-0.008 -1.96875,0 l 0,19.25 c 0,3.582 2.83765,6.5 6.34375,6.5 l 26.03125,0 0,-1 167.28125,0 12.54059,-15.63709 8.61566,0 0,10.85584 33.9375,-0.0312 3.9375,4.8125 28.25,0 0.84375,1 12.0625,0 17.53125,-17.78125 0,-7.96875 c -0.38055,-0.002 -1.06958,0 -1.15625,0 -4.61453,0 -8.34375,-3.859 -8.34375,-8.625 0,-4.766 3.72922,-8.625 8.34375,-8.625 0.0849,0 0.77658,0.002 1.15625,0 l 0,-100.3125 -4.96875,-5.78125 -18.3125,-4.53125 L 317.03125,622.5 294,622.625 275.34375,609.3125 252.25,606.65625 l -2.65625,-13.34375 -8.5625,-0.6875 c 0.0875,0.48 0.17675,0.9535 0.25,1.4375 0.0353,0.229 0.0616,0.4575 0.0937,0.6875 0.014,0.103 0.018,0.2095 0.0312,0.3125 0.0766,0.588 0.1636,1.18625 0.21875,1.78125 0.002,0.02 -0.002,0.0425 0,0.0625 0.0601,0.657 0.0916,1.30375 0.125,1.96875 0.0435,0.807 0.0937,1.6205 0.0937,2.4375 0,1.593 -0.0989,3.16575 -0.25,4.71875 -0.005,0.05 0.005,0.10425 0,0.15625 -0.001,0.01 0.001,0.0213 0,0.0312 -0.008,0.08 -0.0224,0.167 -0.0312,0.25 -0.16041,1.507 -0.39139,3.00675 -0.6875,4.46875 -0.15724,0.776 -0.33717,1.5505 -0.53125,2.3125 -0.19408,0.762 -0.39507,1.504 -0.625,2.25 -0.003,0.01 0.003,0.0213 0,0.0312 -0.22746,0.737 -0.48856,1.4665 -0.75,2.1875 -0.003,0 0.003,0.0213 0,0.0312 -0.26189,0.721 -0.54884,1.421 -0.84375,2.125 -0.004,0 0.004,0.0213 0,0.0312 -0.0919,0.22 -0.18618,0.43825 -0.28125,0.65625 -0.82897,1.896 -1.78679,3.743 -2.84375,5.5 -0.78869,1.311 -1.62487,2.55725 -2.53125,3.78125 -0.009,0.01 -0.0226,0.0213 -0.0312,0.0312 -0.51094,0.69 -1.04737,1.37125 -1.59375,2.03125 -0.89959,1.086 -1.85343,2.125 -2.84375,3.125 -0.27489,0.278 -0.56217,0.5415 -0.84375,0.8125 -0.81744,0.787 -1.6284,1.55525 -2.5,2.28125 -0.92081,0.768 -1.89754,1.4905 -2.875,2.1875 -0.50035,0.356 -1.01683,0.69425 -1.53125,1.03125 -1.66203,1.089 -3.35886,2.09375 -5.15625,2.96875 -1.3762,0.669 -2.80356,1.2775 -4.25,1.8125 -0.72322,0.268 -1.4482,0.518 -2.1875,0.75 -2.21789,0.697 -4.49897,1.23175 -6.84375,1.59375 -2.34478,0.362 -4.77378,0.5625 -7.21875,0.5625 -2.43443,0 -4.8211,-0.2035 -7.15625,-0.5625 l -0.0312,0 c -2.33477,-0.36 -4.60348,-0.90175 -6.8125,-1.59375 l -0.0312,0 c -0.7393,-0.232 -1.46428,-0.482 -2.1875,-0.75 -1.43755,-0.531 -2.85055,-1.1485 -4.21875,-1.8125 l -0.0312,0 c -2.06431,-1.005 -4.02222,-2.1525 -5.90625,-3.4375 -1.24935,-0.852 -2.46469,-1.784 -3.625,-2.75 l -0.0312,0 c -0.57699,-0.481 -1.134,-0.992 -1.6875,-1.5 l -0.0312,0 c -0.5646,-0.518 -1.08588,-1.04875 -1.625,-1.59375 -0.52871,-0.534 -1.05923,-1.066 -1.5625,-1.625 -0.005,0 0.005,-0.0312 0,-0.0312 -1.01038,-1.124 -1.97329,-2.282 -2.875,-3.5 -0.005,0 0.005,-0.0213 0,-0.0312 -0.45319,-0.612 -0.88824,-1.20975 -1.3125,-1.84375 -0.84852,-1.268 -1.64812,-2.5865 -2.375,-3.9375 -1.81719,-3.379 -3.24836,-7.0025 -4.21875,-10.8125 -0.38816,-1.524 -0.69867,-3.07725 -0.9375,-4.65625 -0.35824,-2.368 -0.5625,-4.781 -0.5625,-7.25 0,-0.667 0.0357,-1.34 0.0625,-2 0.0265,-0.652 0.0728,-1.2915 0.125,-1.9375 0.0483,-0.597 0.11761,-1.19025 0.1875,-1.78125 0.0171,-0.145 0.0129,-0.2935 0.0312,-0.4375 0.0691,-0.543 0.163,-1.089 0.25,-1.625 0.20383,-1.257 0.45092,-2.49675 0.75,-3.71875 0.002,-0.01 -0.002,-0.0213 0,-0.0312 0.15061,-0.614 0.32613,-1.2085 0.5,-1.8125 0.14211,-0.493 0.28016,-0.98275 0.4375,-1.46875 0.12201,-0.379 0.24393,-0.751 0.375,-1.125 0.084,-0.24 0.16232,-0.48175 0.25,-0.71875 0.23498,-0.638 0.48909,-1.28225 0.75,-1.90625 0.0127,-0.03 0.0188,-0.0639 0.0312,-0.0937 0.25299,-0.603 0.50474,-1.19225 0.78125,-1.78125 0.11832,-0.252 0.25246,-0.501 0.375,-0.75 0.21161,-0.431 0.43223,-0.85725 0.65625,-1.28125 0.20936,-0.395 0.43627,-0.76725 0.65625,-1.15625 0.20599,-0.365 0.40983,-0.73475 0.625,-1.09375 0.0652,-0.108 0.15273,-0.2045 0.21875,-0.3125 0.0362,-0.06 0.0574,-0.1285 0.0937,-0.1875 0.64415,-1.044 1.31137,-2.04325 2.03125,-3.03125 0.07,-0.1 0.14804,-0.18625 0.21875,-0.28125 0.2938,-0.397 0.56938,-0.8005 0.875,-1.1875 0.0822,-0.104 0.16697,-0.2095 0.25,-0.3125 0.30103,-0.375 0.62556,-0.72875 0.9375,-1.09375 0.27025,-0.317 0.53422,-0.6285 0.8125,-0.9375 0.48769,-0.543 0.98832,-1.07475 1.5,-1.59375 0.0414,-0.04 0.0835,-0.08 0.125,-0.125 0.13965,-0.141 0.29612,-0.26825 0.4375,-0.40625 0.30499,-0.3 0.59337,-0.61525 0.90625,-0.90625 0.0759,-0.07 0.14238,-0.14875 0.21875,-0.21875 0.19522,-0.18 0.39556,-0.35525 0.59375,-0.53125 0.29489,-0.262 0.6049,-0.495 0.90625,-0.75 0.19817,-0.167 0.39284,-0.336 0.59375,-0.5 0.34844,-0.284 0.70597,-0.56975 1.0625,-0.84375 0.16982,-0.131 0.32838,-0.27725 0.5,-0.40625 0.55829,-0.418 1.14188,-0.82575 1.71875,-1.21875 0.0433,-0.03 0.0816,-0.0738 0.125,-0.0937 0.58238,-0.395 1.18086,-0.756 1.78125,-1.125 0.65011,-0.399 1.29847,-0.78925 1.96875,-1.15625 0.56542,-0.311 1.13963,-0.61825 1.71875,-0.90625 0.17551,-0.09 0.35452,-0.165 0.53125,-0.25 0.61676,-0.296 1.2438,-0.57375 1.875,-0.84375 0.0634,-0.03 0.12394,-0.0738 0.1875,-0.0937 0.61936,-0.262 1.24254,-0.515 1.875,-0.75 0.13248,-0.05 0.27321,-0.08 0.40625,-0.125 0.39662,-0.144 0.78603,-0.3045 1.1875,-0.4375 l -3.09375,-6.1875 -7.09375,0 -9.78125,-13.3125 0,-13.3125 -15.09375,-9.78125 -0.875,-16.875 -16.875,-7.96875 4.4375,-16.875 -11.5625,-2.6875 -3.53125,-21.28125 9.5625,-11.53125 -57.625,0 -0.03125,-0.9375 z m -0.1875,5.46875 8.511918,0 c 0.975844,-0.9344 2.396637,-0.9344 3.327985,0 l 8.410097,0 0,35.53125 -8.410097,0 c -0.954746,1.04162 -2.469019,0.97617 -3.217052,0 l -8.622851,0 z m 135.91593,229.5625 32.91814,0 0,83.28125 -32.91814,0 z m 160.24032,31.75 c 3.827,0 6.90625,3.1105 6.90625,6.9375 0,3.827 -3.07925,6.9375 -6.90625,6.9375 l -2.34375,0 c -3.67608,-0.17 -6.59375,-3.2195 -6.59375,-6.9375 0,-3.747 2.97089,-6.78025 6.6875,-6.90625 0.0791,10e-4 2.1702,0 2.25,0 z M 54.375,702.0625 c 3.827004,0 6.90625,3.07925 6.90625,6.90625 0,3.827 -3.079246,6.9375 -6.90625,6.9375 -3.827004,0 -6.9375,-3.1105 -6.9375,-6.9375 0,-3.827 3.110496,-6.90625 6.9375,-6.90625 z"
   id="use7731-8"
   transform="translate(0,-8.7379582e-6)"
   inkscape:connector-curvature="0"
   sodipodi:nodetypes="sscssscsscccccccccccccsssccccccccccccccccscccccscccccccccccccccccccsscccccccccccccccccscscsccccccccccccccccccccccccccccccccccccccccccccccccccccccccccccscccccccccccccccsscscccsssss" /><path
   sodipodi:nodetypes="csss"
   id="path4379-3"
   d="m 68.249014,434.95035 c 0,0 0.186435,33.34 0.186435,36.967 0,4.838 2.720348,9.068 8.161044,9.068 1.743818,0 20.163139,0.04 52.484807,0.112"
   style="fill:none;stroke:#000000;stroke-width:1px;stroke-linecap:butt;stroke-linejoin:miter;stroke-opacity:0.33004922;overflow:visible"
   inkscape:connector-curvature="0" /><use
   x="0"
   y="0"
   xlink:href="#hub"
   id="use4842"
   transform="translate(0.02882261,393.84799)"
   width="542.5"
   height="1162.5" /><path
   sodipodi:nodetypes="ccssssssssszc"
   inkscape:connector-curvature="0"
   id="path4821"
   d="m 346.25797,613.43935 -164.03613,-164.959 c -1.18782,4.364 -2.21589,8.625 -2.80562,12.974 -5.38284,39.691 1.40836,71.97 16.52009,96.549 0.69381,1.128 2.07679,-0.813 2.80529,0.283 9.41843,14.169 23.74432,26.275 38.01881,35.297 0.99242,0.627 -0.62822,3.245 0.38918,3.821 1.50647,0.853 3.03421,1.677 4.58234,2.471 0.53041,0.272 -0.65275,-3.099 -0.11758,-2.834 2.27557,1.127 7.29774,4.584 9.65588,5.586 0.49648,0.211 0.007,1.667 0.50675,1.872 24.21381,9.945 56.14422,12.593 73.14351,11.684 16.99928,-0.91 17.60591,-1.32 21.33748,-2.744 z"
   style="color:#000000;fill:#000000;fill-opacity:0.15686275;fill-rule:evenodd;stroke:none;stroke-width:1;marker:none;visibility:visible;display:inline;overflow:visible;enable-background:accumulate" /><path
   style="color:#000000;fill:#000000;fill-opacity:0.1;fill-rule:evenodd;stroke:none;stroke-width:1;marker:none;visibility:visible;display:inline;overflow:visible;enable-background:accumulate"
   d="m 346.25797,613.43935 -164.03613,-164.959 c -0.63769,3.332 -0.67552,6.007 -1.22399,10.361 -4.82225,38.28 4.67307,73.479 25.03148,100.65 0.56604,0.755 2.30059,0.04 2.88336,0.782 7.02863,8.961 15.89819,16.685 25.04275,23.844 0.92189,0.722 0.2752,2.949 1.23659,3.625 2.50937,1.767 5.09264,3.455 7.74744,5.062 0.64943,0.394 1.82314,0 2.4811,0.385 1.02221,0.596 3.40666,1.7 4.44924,2.272 0.68438,0.375 -0.49886,1.005 0.1942,1.37 22.21452,11.697 48.30051,18.58 78.18405,17.774 4.23695,-0.05 9.83371,-0.54 18.00991,-1.166 z"
   id="path4823"
   inkscape:connector-curvature="0"
   sodipodi:nodetypes="ccssssssssscc" /><path
   style="color:#000000;fill:#ffffff;fill-opacity:1;fill-rule:evenodd;stroke:#000000;stroke-width:1;stroke-linecap:round;stroke-linejoin:round;stroke-miterlimit:4;stroke-opacity:1;stroke-dasharray:none;marker:none;visibility:visible;display:inline;overflow:visible;enable-background:accumulate"
   d="m 346.25797,613.43935 -164.03613,-164.959 c -0.36262,4.295 -0.26126,8.035 -0.26126,12.424 0,84.386 68.42599,152.781 152.8125,152.781 4.23695,-0.05 7.86728,0.04 11.48489,-0.246 z"
   id="path3106"
   inkscape:connector-curvature="0"
   sodipodi:nodetypes="ccscc" /><use
   x="0"
   y="0"
   xlink:href="#use4842"
   id="use4844"
   transform="translate(-0.29800239,395.63699)"
   width="542.5"
   height="1162.5" /><rect
   rx="2.0971601"
   ry="1.6339092"
   y="756.48944"
   x="72.029167"
   height="3.706007"
   width="168.58975"
   id="rect4165"
   style="color:#000000;fill:none;stroke:#000000;stroke-width:0.99999994;stroke-opacity:0.66500005;marker:none;visibility:visible;display:inline;overflow:visible;enable-background:accumulate" /><use
   x="0"
   y="0"
   xlink:href="#shutter"
   id="use4850"
   transform="translate(-40.134226,394.59399)"
   width="542.5"
   height="1162.5" /><path
   inkscape:connector-curvature="0"
   id="path4167"
   d="m 36.779322,725.89035 0,4.844 c 0.370736,0 0.743536,0.03 1.03125,0.03 3.323797,0 6,2.503 6,5.625 0,3.122 -2.676203,5.656 -6,5.656 -0.293562,0 -0.664842,0.03 -1.03125,0.03 l 0,1.125 c 0.508696,0 1.029938,-0.03 1.4375,-0.03 4.614536,0 8.34375,-3.859 8.34375,-8.625 0,-4.766 -3.729214,-8.625 -8.34375,-8.625 -0.399443,0 -0.922795,-0.02 -1.4375,-0.03 z"
   style="color:#000000;fill:#000000;fill-opacity:0.32941176;stroke:none;stroke-width:0.99999988;marker:none;visibility:visible;display:inline;overflow:visible;enable-background:accumulate" /><path
   style="color:#000000;fill:#000000;fill-opacity:0.32941176;stroke:none;stroke-width:0.99999988;marker:none;visibility:visible;display:inline;overflow:visible;enable-background:accumulate"
   d="m 36.279798,331.43535 0,4.844 c 0.392065,0 0.786312,0.03 1.090578,0.03 3.515017,0 6.345184,2.503 6.345184,5.625 0,3.122 -2.830167,5.656 -6.345184,5.656 -0.31045,0 -0.70309,0.03 -1.090578,0.03 l 0,1.125 c 0.537962,0 1.089191,-0.03 1.5202,-0.03 4.880013,0 8.82377,-3.859 8.82377,-8.625 0,-4.766 -3.943757,-8.625 -8.82377,-8.625 -0.422423,0 -0.975884,-0.02 -1.5202,-0.03 z"
   id="path3991"
   inkscape:connector-curvature="0" /><path
   style="color:#000000;fill:#000000;fill-opacity:0.32941176;stroke:none;stroke-width:1;marker:none;visibility:visible;display:inline;overflow:visible;enable-background:accumulate"
   d="m 54.052187,307.59935 c -3.827004,0 -6.929221,3.102 -6.929221,6.929 0,3.827 3.102217,6.929 6.929221,6.929 3.827004,0 6.929221,-3.102 6.929221,-6.929 0,-3.827 -3.102217,-6.929 -6.929221,-6.929 z m 0,4.536 c 2.491409,0 4.516688,1.871 4.516688,4.189 0,2.318 -2.025279,4.19 -4.516688,4.19 -2.491409,0 -4.516688,-1.872 -4.516688,-4.19 0,-2.318 2.025279,-4.189 4.516688,-4.189 z"
   id="path3997"
   inkscape:connector-curvature="0"
   sodipodi:nodetypes="ssssssssss" /><path
   id="shutter"
   d="m 121.80807,263.84135 c -8.43251,0 -7.9375,7.032 -7.9375,8.063 -0.002,32.5782 0.0413,103.781 0.0413,103.781 l 169.0506,0 c 0.0532,-25.83911 0,-74.31104 0,-103.781 -0.1828,-0.96826 1.24296,-8.063 -7.936,-8.063 z m 91.125,9.844 43.6875,0 0,86.284 -14.50562,0 0,4.09387 -1.48914,0 0,-1.14072 -11.94942,0 0,1.14072 -1.52468,0 0,-4.09413 -14.21865,0 z m -92.23955,85.072 15.04516,0 0,6.865 -1.49236,0 -0.0165,-1.18735 -12.08419,0 0.0166,1.18735 -1.46862,0 z"
   style="fill:url(#linearGradient4247);stroke:#000000;stroke-width:1;stroke-miterlimit:4;stroke-dasharray:none"
   inkscape:connector-curvature="0"
   sodipodi:nodetypes="sccccsscccccccccccccccccccccc" /><path
   inkscape:connector-curvature="0"
   id="path4154"
   d="m 353.60113,331.43535 0,4.844 c -0.37073,0 -0.74353,0.03 -1.03125,0.03 -3.32379,0 -6,2.503 -6,5.625 0,3.122 2.67621,5.656 6,5.656 0.29357,0 0.66485,0.03 1.03125,0.03 l 0,1.125 c -0.50869,0 -1.02993,-0.03 -1.4375,-0.03 -4.61453,0 -8.34375,-3.859 -8.34375,-8.625 0,-4.766 3.72922,-8.625 8.34375,-8.625 0.39945,0 0.9228,-0.02 1.4375,-0.03 z"
   style="color:#000000;fill:#000000;fill-opacity:0.32941176;stroke:none;stroke-width:0.99999988;marker:none;visibility:visible;display:inline;overflow:visible;enable-background:accumulate" /><path
   sodipodi:nodetypes="sssssssscssssscc"
   inkscape:connector-curvature="0"
   id="path4158"
   d="m 338.23863,304.45835 c -0.10998,0 -2.21936,0 -2.32809,0 -3.67466,0.172 -6.60113,3.205 -6.60113,6.922 0,3.734 2.83376,6.779 6.62477,6.924 0.094,0 2.2119,0 2.30445,0 3.827,0 6.92922,-3.102 6.92922,-6.929 0,-3.827 -3.10222,-6.93 -6.92922,-6.93 z m 0,4.536 c 2.49141,0 4.51669,1.871 4.51669,4.19 0,2.318 -2.02528,4.189 -4.51669,4.189 -0.13912,0 -2.27678,0.04 -2.41272,0.03 -2.29855,-0.193 -4.10397,-2.028 -4.10397,-4.216 0,-2.189 1.80565,-4.024 4.10442,-4.217 0.13579,-0.01 2.27331,0.03 2.41227,0.03 z"
   style="color:#000000;fill:#000000;fill-opacity:0.32941176;stroke:none;stroke-width:1;marker:none;visibility:visible;display:inline;overflow:visible;enable-background:accumulate" /><path
   sodipodi:nodetypes="ssssssssss"
   inkscape:connector-curvature="0"
   id="path4169"
   d="m 54.360911,702.05435 c -3.827004,0 -6.929221,3.102 -6.929221,6.929 0,3.827 3.102217,6.93 6.929221,6.93 3.827004,0 6.929221,-3.103 6.929221,-6.93 0,-3.827 -3.102217,-6.929 -6.929221,-6.929 z m 0,4.536 c 2.491409,0 4.516688,1.871 4.516688,4.189 0,2.319 -2.025279,4.19 -4.516688,4.19 -2.491409,0 -4.516688,-1.871 -4.516688,-4.19 0,-2.318 2.025279,-4.189 4.516688,-4.189 z"
   style="color:#000000;fill:#000000;fill-opacity:0.32941176;stroke:none;stroke-width:1;marker:none;visibility:visible;display:inline;overflow:visible;enable-background:accumulate" /><path
   style="color:#000000;fill:#000000;fill-opacity:0.32941176;stroke:none;stroke-width:0.99999988;marker:none;visibility:visible;display:inline;overflow:visible;enable-background:accumulate"
   d="m 353.90985,725.89035 0,4.844 c -0.37073,0 -0.74353,0.03 -1.03125,0.03 -3.32379,0 -6,2.503 -6,5.625 0,3.122 2.67621,5.656 6,5.656 0.29357,0 0.66485,0.03 1.03125,0.03 l 0,1.125 c -0.50869,0 -1.02993,-0.03 -1.4375,-0.03 -4.61453,0 -8.34375,-3.859 -8.34375,-8.625 0,-4.766 3.72922,-8.625 8.34375,-8.625 0.39945,0 0.9228,-0.02 1.4375,-0.03 z"
   id="path4175"
   inkscape:connector-curvature="0" /><path
   style="color:#000000;fill:#000000;fill-opacity:0.32941176;stroke:none;stroke-width:1;marker:none;visibility:visible;display:inline;overflow:visible;enable-background:accumulate"
   d="m 338.54735,702.05435 c -0.10998,0 -2.21936,0 -2.32809,0 -3.67466,0.171 -6.60113,3.205 -6.60113,6.922 0,3.734 2.83376,6.779 6.62477,6.924 0.094,0 2.2119,0 2.30445,0 3.827,0 6.92922,-3.103 6.92922,-6.93 0,-3.827 -3.10222,-6.929 -6.92922,-6.929 z m 0,4.536 c 2.49141,0 4.51669,1.871 4.51669,4.189 0,2.319 -2.02528,4.19 -4.51669,4.19 -0.13912,0 -2.27678,0.04 -2.41272,0.03 -2.29855,-0.193 -4.10397,-2.028 -4.10397,-4.217 0,-2.188 1.80565,-4.023 4.10442,-4.216 0.13579,-0.01 2.27331,0.03 2.41227,0.03 z"
   id="path4179"
   inkscape:connector-curvature="0"
   sodipodi:nodetypes="sssssssscssssscc" /><path
   id="path7340"
   d="m 472.10371,416.35835 -148.43797,-60.186"
   style="fill:none;stroke:#ff0000;stroke-width:6;stroke-linecap:butt;stroke-linejoin:miter;stroke-miterlimit:4;stroke-opacity:1;stroke-dasharray:none;marker-end:url(#Arrow2SendV)"
   inkscape:connector-curvature="0"
   sodipodi:nodetypes="cc" /><path
   id="path7332"
   d="m 471.9921,539.70435 -226.80374,-0.11"
   style="fill:none;stroke:#ff0000;stroke-width:6;stroke-linecap:butt;stroke-linejoin:miter;stroke-miterlimit:4;stroke-opacity:1;stroke-dasharray:none;marker-end:url(#Arrow2SendcF)"
   inkscape:connector-curvature="0"
   sodipodi:nodetypes="cc" /><path
   id="path7336"
   d="m 471.8778,311.40935 -197.17109,-0.05"
   style="fill:none;stroke:#ff0000;stroke-width:6;stroke-linecap:butt;stroke-linejoin:miter;stroke-miterlimit:4;stroke-opacity:1;stroke-dasharray:none;marker-end:url(#Arrow2Send0)"
   inkscape:connector-curvature="0"
   sodipodi:nodetypes="cc" /><path
   sodipodi:nodetypes="cc"
   id="path7342"
   d="m 472.10371,416.48335 -139.44213,77.218"
   style="fill:none;stroke:#ff0000;stroke-width:6;stroke-linecap:butt;stroke-linejoin:miter;stroke-miterlimit:4;stroke-opacity:1;stroke-dasharray:none;marker-end:url(#Arrow2Sendp)"
   inkscape:connector-curvature="0" /><circle
   style="fill:#c2ffff;stroke:#00a3df;stroke-width:3.87096763"
   sodipodi:ry="21.500999"
   sodipodi:rx="21.500999"
   sodipodi:cy="67.175003"
   sodipodi:cx="305.59399"
   id="circle4834"
   r="21.500999"
   cy="67.175003"
   cx="305.59399"
   d="m 327.09499,67.175003 c 0,11.874674 -9.62632,21.501 -21.501,21.501 -11.87467,0 -21.501,-9.626326 -21.501,-21.501 0,-11.874674 9.62633,-21.500999 21.501,-21.500999 11.87468,0 21.501,9.626325 21.501,21.500999 z"
   transform="matrix(1.55,0,0,1.55,-1.4731801,-32.361642)" /><g
   id="g4836"
   transform="matrix(1.55,0,0,1.55,-2.6413391,-31.212642)">
<path
   inkscape:connector-curvature="0"
   id="path4838"
   d="M 309.69,55.918 V 76.95 h -5.813 V 63.179 c -0.938,0.711 -1.849,1.287 -2.728,1.726 -0.878,0.44 -1.979,0.861 -3.305,1.263 V 61.48 c 1.954,-0.632 3.473,-1.392 4.553,-2.279 1.081,-0.887 1.927,-1.981 2.536,-3.284 l 4.757,10e-4 0,0 z" />
</g><circle
   style="fill:#c2ffff;stroke:#00a3df;stroke-width:3.87096763"
   sodipodi:ry="21.500999"
   sodipodi:rx="21.500999"
   sodipodi:cy="127.8"
   sodipodi:cx="305.59399"
   id="circle4842"
   r="21.500999"
   cy="127.8"
   cx="305.59399"
   d="m 327.09499,127.8 c 0,11.87468 -9.62632,21.501 -21.501,21.501 -11.87467,0 -21.501,-9.62632 -21.501,-21.501 0,-11.87467 9.62633,-21.501 21.501,-21.501 11.87468,0 21.501,9.62633 21.501,21.501 z"
   transform="matrix(1.55,0,0,1.55,-1.4731801,8.7273571)" /><g
   id="g4844"
   transform="matrix(1.55,0,0,1.55,-1.0895641,9.8753571)">
<path
   inkscape:connector-curvature="0"
   id="path4846"
   d="m 313.985,137.575 h -17.281 c 0.198,-1.703 0.798,-3.304 1.802,-4.805 1.002,-1.5 2.885,-3.271 5.646,-5.31 1.686,-1.25 2.768,-2.199 3.243,-2.848 0.477,-0.649 0.717,-1.264 0.717,-1.847 0,-0.629 -0.234,-1.167 -0.702,-1.614 -0.468,-0.447 -1.058,-0.67 -1.767,-0.67 -0.736,0 -1.34,0.23 -1.809,0.69 -0.467,0.46 -0.781,1.271 -0.942,2.435 l -5.75,-0.464 c 0.227,-1.616 0.641,-2.878 1.242,-3.785 0.603,-0.907 1.452,-1.603 2.548,-2.087 1.099,-0.484 2.615,-0.726 4.555,-0.726 2.022,0 3.597,0.23 4.722,0.691 1.125,0.461 2.01,1.168 2.654,2.123 0.644,0.955 0.968,2.023 0.968,3.208 0,1.26 -0.37,2.463 -1.109,3.61 -0.738,1.147 -2.084,2.407 -4.034,3.779 -1.157,0.799 -1.934,1.358 -2.323,1.678 -0.391,0.32 -0.851,0.738 -1.377,1.254 h 9.001 v 4.688 h -0.004 z" />
</g><circle
   style="fill:#c2ffff;stroke:#00a3df;stroke-width:3.87096763"
   sodipodi:ry="21.500999"
   sodipodi:rx="21.500999"
   sodipodi:cy="186.916"
   sodipodi:cx="305.59399"
   id="circle4850"
   r="21.500999"
   cy="186.916"
   cx="305.59399"
   d="m 327.09499,186.916 c 0,11.87467 -9.62632,21.501 -21.501,21.501 -11.87467,0 -21.501,-9.62633 -21.501,-21.501 0,-11.87467 9.62633,-21.501 21.501,-21.501 11.87468,0 21.501,9.62633 21.501,21.501 z"
   transform="matrix(1.55,0,0,1.55,-1.4731801,21.668358)" /><g
   id="g4852"
   transform="matrix(1.55,0,0,1.55,-1.3786391,22.550358)">
<path
   inkscape:connector-curvature="0"
   id="path4854"
   d="m 302.735,182.003 -5.438,-0.979 c 0.451,-1.731 1.319,-3.059 2.604,-3.981 1.285,-0.922 3.103,-1.384 5.455,-1.384 2.698,0 4.649,0.503 5.854,1.508 1.203,1.005 1.806,2.269 1.806,3.791 0,0.893 -0.243,1.7 -0.73,2.424 -0.488,0.724 -1.226,1.357 -2.211,1.902 0.799,0.198 1.41,0.428 1.834,0.691 0.686,0.423 1.219,0.98 1.6,1.671 0.381,0.691 0.571,1.517 0.571,2.476 0,1.204 -0.315,2.358 -0.946,3.463 -0.631,1.105 -1.539,1.956 -2.725,2.553 -1.187,0.597 -2.742,0.896 -4.672,0.896 -1.881,0 -3.365,-0.221 -4.453,-0.662 -1.086,-0.441 -1.98,-1.087 -2.683,-1.937 -0.7,-0.85 -1.239,-1.918 -1.615,-3.205 l 5.75,-0.759 c 0.226,1.152 0.575,1.951 1.052,2.396 0.475,0.445 1.08,0.667 1.813,0.667 0.771,0 1.414,-0.282 1.928,-0.847 0.513,-0.565 0.77,-1.317 0.77,-2.258 0,-0.959 -0.247,-1.703 -0.743,-2.229 -0.494,-0.527 -1.166,-0.791 -2.015,-0.791 -0.453,0 -1.075,0.113 -1.867,0.339 l 0.296,-4.097 c 0.32,0.047 0.57,0.07 0.75,0.07 0.753,0 1.382,-0.24 1.887,-0.719 0.504,-0.479 0.756,-1.049 0.756,-1.707 0,-0.63 -0.188,-1.133 -0.563,-1.509 -0.377,-0.376 -0.894,-0.564 -1.552,-0.564 -0.677,0 -1.229,0.206 -1.649,0.617 -0.427,0.411 -0.713,1.133 -0.864,2.164 z" />
</g><circle
   style="fill:#c2ffff;stroke:#00a3df;stroke-width:3.87096763"
   sodipodi:ry="21.500999"
   sodipodi:rx="21.500999"
   sodipodi:cy="357.52399"
   sodipodi:cx="305.59399"
   id="circle4858"
   r="21.500999"
   cy="357.52399"
   cx="305.59399"
   d="m 327.09499,357.52399 c 0,11.87467 -9.62632,21.501 -21.501,21.501 -11.87467,0 -21.501,-9.62633 -21.501,-21.501 0,-11.87468 9.62633,-21.501 21.501,-21.501 11.87468,0 21.501,9.62632 21.501,21.501 z"
   transform="matrix(1.55,0,0,1.55,-1.4731801,-14.533642)" /><g
   id="g4860"
   transform="matrix(1.55,0,0,1.55,-1.3274891,-13.918642)">
<path
   inkscape:connector-curvature="0"
   id="path4862"
   d="m 299.454,346.611 h 13.656 v 4.594 h -9.253 l -0.485,3.092 c 0.641,-0.302 1.274,-0.528 1.9,-0.679 0.626,-0.15 1.244,-0.226 1.857,-0.226 2.072,0 3.753,0.625 5.043,1.876 1.291,1.251 1.938,2.827 1.938,4.727 0,1.336 -0.332,2.62 -0.996,3.852 -0.664,1.232 -1.605,2.173 -2.825,2.822 -1.219,0.649 -2.779,0.974 -4.682,0.974 -1.366,0 -2.536,-0.129 -3.512,-0.388 -0.975,-0.259 -1.804,-0.644 -2.485,-1.156 -0.684,-0.512 -1.235,-1.093 -1.659,-1.741 -0.424,-0.648 -0.777,-1.457 -1.061,-2.425 l 5.813,-0.633 c 0.142,0.929 0.472,1.635 0.991,2.119 0.519,0.484 1.139,0.725 1.856,0.725 0.804,0 1.465,-0.303 1.99,-0.909 0.523,-0.606 0.786,-1.51 0.786,-2.713 0,-1.23 -0.265,-2.132 -0.793,-2.706 -0.528,-0.574 -1.231,-0.86 -2.108,-0.86 -0.558,0 -1.096,0.136 -1.614,0.409 -0.388,0.197 -0.812,0.555 -1.273,1.071 l -4.897,-0.705 1.813,-11.12 z" />
</g><circle
   style="fill:#c2ffff;stroke:#00a3df;stroke-width:3.87096763"
   sodipodi:ry="21.500999"
   sodipodi:rx="21.500999"
   sodipodi:cy="259.00101"
   sodipodi:cx="305.59399"
   id="circle4874"
   r="21.500999"
   cy="259.00101"
   cx="305.59399"
   d="m 327.09499,259.00101 c 0,11.87467 -9.62632,21.501 -21.501,21.501 -11.87467,0 -21.501,-9.62633 -21.501,-21.501 0,-11.87468 9.62633,-21.501 21.501,-21.501 11.87468,0 21.501,9.62632 21.501,21.501 z"
   transform="matrix(1.55,0,0,1.55,-1.4731801,15.466358)" /><g
   id="g4876"
   transform="matrix(1.55,0,0,1.55,-1.4514891,16.613358)">
<path
   inkscape:connector-curvature="0"
   id="path4878"
   d="m 307.017,264.933 h -10.469 v -4.731 l 10.469,-12.457 h 5 v 12.719 h 2.595 v 4.469 h -2.595 v 3.844 h -5 v -3.844 z m 0,-4.469 v -6.534 l -5.542,6.534 h 5.542 z" />
</g><rect
   style="color:#000000;fill:#000000;fill-opacity:0.27368421;stroke:none;stroke-width:1;marker:none;visibility:visible;display:inline;overflow:visible;enable-background:accumulate"
   id="rect4169"
   width="33.24651"
   height="3.5392492"
   x="177.93443"
   y="670.09015" /><use
   x="0"
   y="0"
   xlink:href="#path4145"
   id="use4171"
   transform="translate(0,394.37327)"
   width="543.95715"
   height="1200.5605" /><rect
   style="color:#000000;fill:none;stroke:#000000;stroke-width:1;stroke-linecap:round;stroke-linejoin:round;stroke-miterlimit:4;stroke-opacity:0.32941176;stroke-dasharray:none;stroke-dashoffset:0;marker:none;visibility:visible;display:inline;overflow:visible;enable-background:accumulate"
   id="rect4249"
   width="69.866135"
   height="13.339765"
   x="71.88945"
   y="91.562172"
   ry="6.6698823"
   rx="6.6698823" /><path
   style="color:#000000;fill:none;stroke:#000000;stroke-width:1;stroke-linecap:round;stroke-linejoin:round;stroke-miterlimit:4;stroke-opacity:0.32941176;stroke-dashoffset:0;marker:none;visibility:visible;display:inline;overflow:visible;enable-background:accumulate"
   d="m 140.13533,494.73403 c -1.22159,1.44056 -3.04623,2.35201 -5.09158,2.35201 l -56.526372,0 c -3.695114,0 -6.669882,-2.97477 -6.669882,-6.66988 0,-3.69512 2.974768,-6.66988 6.669882,-6.66988 l 49.715482,0"
   id="rect4256"
   inkscape:connector-curvature="0"
   sodipodi:nodetypes="cssssc" /><g
   id="g4348"
   transform="translate(115.32577,136.17065)"><path
     transform="matrix(12.720373,0,0,12.182892,-313.43866,-10202.694)"
     d="m 42.138286,908.08105 c 0,6.50526 -5.050728,11.77882 -11.281116,11.77882 -6.230388,0 -11.281115,-5.27356 -11.281115,-11.77882 0,-6.50525 5.050727,-11.77881 11.281115,-11.77881 6.230388,0 11.281116,5.27356 11.281116,11.77881 z"
     sodipodi:ry="11.778812"
     sodipodi:rx="11.281116"
     sodipodi:cy="908.08105"
     sodipodi:cx="30.85717"
     id="path4326"
     style="color:#000000;fill:none;stroke:#e7b98a;stroke-width:0.08032947;stroke-linecap:round;stroke-linejoin:round;stroke-miterlimit:4;stroke-opacity:1;stroke-dasharray:none;stroke-dashoffset:0;marker:none;visibility:visible;display:inline;overflow:visible;enable-background:accumulate"
     sodipodi:type="arc" /><path
     sodipodi:type="arc"
     style="color:#000000;fill:none;stroke:#e7b98a;stroke-width:0.08532405;stroke-linecap:round;stroke-linejoin:round;stroke-miterlimit:4;stroke-opacity:1;stroke-dasharray:none;stroke-dashoffset:0;marker:none;visibility:visible;display:inline;overflow:visible;enable-background:accumulate"
     id="path4328"
     sodipodi:cx="30.85717"
     sodipodi:cy="908.08105"
     sodipodi:rx="11.281116"
     sodipodi:ry="11.778812"
     d="m 42.138286,908.08105 c 0,6.50526 -5.050728,11.77882 -11.281116,11.77882 -6.230388,0 -11.281115,-5.27356 -11.281115,-11.77882 0,-6.50525 5.050727,-11.77881 11.281115,-11.77881 6.230388,0 11.281116,5.27356 11.281116,11.77881 z"
     transform="matrix(11.975766,0,0,11.469747,-290.46219,-9555.1001)" /><path
     transform="matrix(11.231159,0,0,10.756602,-267.48573,-8907.5066)"
     d="m 42.138286,908.08105 c 0,6.50526 -5.050728,11.77882 -11.281116,11.77882 -6.230388,0 -11.281115,-5.27356 -11.281115,-11.77882 0,-6.50525 5.050727,-11.77881 11.281115,-11.77881 6.230388,0 11.281116,5.27356 11.281116,11.77881 z"
     sodipodi:ry="11.778812"
     sodipodi:rx="11.281116"
     sodipodi:cy="908.08105"
     sodipodi:cx="30.85717"
     id="path4330"
     style="color:#000000;fill:none;stroke:#e7b98a;stroke-width:0.09098089;stroke-linecap:round;stroke-linejoin:round;stroke-miterlimit:4;stroke-opacity:1;stroke-dasharray:none;stroke-dashoffset:0;marker:none;visibility:visible;display:inline;overflow:visible;enable-background:accumulate"
     sodipodi:type="arc" /><path
     sodipodi:type="arc"
     style="color:#000000;fill:none;stroke:#e7b98a;stroke-width:0.09744108;stroke-linecap:round;stroke-linejoin:round;stroke-miterlimit:4;stroke-opacity:1;stroke-dasharray:none;stroke-dashoffset:0;marker:none;visibility:visible;display:inline;overflow:visible;enable-background:accumulate"
     id="path4332"
     sodipodi:cx="30.85717"
     sodipodi:cy="908.08105"
     sodipodi:rx="11.281116"
     sodipodi:ry="11.778812"
     d="m 42.138286,908.08105 c 0,6.50526 -5.050728,11.77882 -11.281116,11.77882 -6.230388,0 -11.281115,-5.27356 -11.281115,-11.77882 0,-6.50525 5.050727,-11.77881 11.281115,-11.77881 6.230388,0 11.281116,5.27356 11.281116,11.77881 z"
     transform="matrix(10.486551,0,0,10.043457,-244.50923,-8259.9131)" /><path
     transform="matrix(9.7419441,0,0,9.3303122,-221.53277,-7612.3198)"
     d="m 42.138286,908.08105 c 0,6.50526 -5.050728,11.77882 -11.281116,11.77882 -6.230388,0 -11.281115,-5.27356 -11.281115,-11.77882 0,-6.50525 5.050727,-11.77881 11.281115,-11.77881 6.230388,0 11.281116,5.27356 11.281116,11.77881 z"
     sodipodi:ry="11.778812"
     sodipodi:rx="11.281116"
     sodipodi:cy="908.08105"
     sodipodi:cx="30.85717"
     id="path4334"
     style="color:#000000;fill:none;stroke:#e7b98a;stroke-width:0.1048888;stroke-linecap:round;stroke-linejoin:round;stroke-miterlimit:4;stroke-opacity:1;stroke-dasharray:none;stroke-dashoffset:0;marker:none;visibility:visible;display:inline;overflow:visible;enable-background:accumulate"
     sodipodi:type="arc" /><path
     sodipodi:type="arc"
     style="color:#000000;fill:none;stroke:#e7b98a;stroke-width:0.11356925;stroke-linecap:round;stroke-linejoin:round;stroke-miterlimit:4;stroke-opacity:1;stroke-dasharray:none;stroke-dashoffset:0;marker:none;visibility:visible;display:inline;overflow:visible;enable-background:accumulate"
     id="path4336"
     sodipodi:cx="30.85717"
     sodipodi:cy="908.08105"
     sodipodi:rx="11.281116"
     sodipodi:ry="11.778812"
     d="m 42.138286,908.08105 c 0,6.50526 -5.050728,11.77882 -11.281116,11.77882 -6.230388,0 -11.281115,-5.27356 -11.281115,-11.77882 0,-6.50525 5.050727,-11.77881 11.281115,-11.77881 6.230388,0 11.281116,5.27356 11.281116,11.77881 z"
     transform="matrix(8.9973369,0,0,8.6171673,-198.5563,-6964.7265)" /><path
     transform="matrix(8.2527297,0,0,7.9040224,-175.57983,-6317.1331)"
     d="m 42.138286,908.08105 c 0,6.50526 -5.050728,11.77882 -11.281116,11.77882 -6.230388,0 -11.281115,-5.27356 -11.281115,-11.77882 0,-6.50525 5.050727,-11.77881 11.281115,-11.77881 6.230388,0 11.281116,5.27356 11.281116,11.77881 z"
     sodipodi:ry="11.778812"
     sodipodi:rx="11.281116"
     sodipodi:cy="908.08105"
     sodipodi:cx="30.85717"
     id="path4338"
     style="color:#000000;fill:none;stroke:#e7b98a;stroke-width:0.1238161;stroke-linecap:round;stroke-linejoin:round;stroke-miterlimit:4;stroke-opacity:1;stroke-dasharray:none;stroke-dashoffset:0;marker:none;visibility:visible;display:inline;overflow:visible;enable-background:accumulate"
     sodipodi:type="arc" /><path
     sodipodi:type="arc"
     style="color:#000000;fill:none;stroke:#e7b98a;stroke-width:0.13609539;stroke-linecap:round;stroke-linejoin:round;stroke-miterlimit:4;stroke-opacity:1;stroke-dasharray:none;stroke-dashoffset:0;marker:none;visibility:visible;display:inline;overflow:visible;enable-background:accumulate"
     id="path4340"
     sodipodi:cx="30.85717"
     sodipodi:cy="908.08105"
     sodipodi:rx="11.281116"
     sodipodi:ry="11.778812"
     d="m 42.138286,908.08105 c 0,6.50526 -5.050728,11.77882 -11.281116,11.77882 -6.230388,0 -11.281115,-5.27356 -11.281115,-11.77882 0,-6.50525 5.050727,-11.77881 11.281115,-11.77881 6.230388,0 11.281116,5.27356 11.281116,11.77881 z"
     transform="matrix(7.5081225,0,0,7.1908776,-152.60336,-5669.5398)" /><path
     transform="matrix(6.7635154,0,0,6.4777327,-129.62689,-5021.9464)"
     d="m 42.138286,908.08105 c 0,6.50526 -5.050728,11.77882 -11.281116,11.77882 -6.230388,0 -11.281115,-5.27356 -11.281115,-11.77882 0,-6.50525 5.050727,-11.77881 11.281115,-11.77881 6.230388,0 11.281116,5.27356 11.281116,11.77881 z"
     sodipodi:ry="11.778812"
     sodipodi:rx="11.281116"
     sodipodi:cy="908.08105"
     sodipodi:cx="30.85717"
     id="path4342"
     style="color:#000000;fill:none;stroke:#e7b98a;stroke-width:0.15107836;stroke-linecap:round;stroke-linejoin:round;stroke-miterlimit:4;stroke-opacity:1;stroke-dasharray:none;stroke-dashoffset:0;marker:none;visibility:visible;display:inline;overflow:visible;enable-background:accumulate"
     sodipodi:type="arc" /><path
     sodipodi:type="arc"
     style="color:#000000;fill:none;stroke:#e7b98a;stroke-width:0.16976847;stroke-linecap:round;stroke-linejoin:round;stroke-miterlimit:4;stroke-opacity:1;stroke-dasharray:none;stroke-dashoffset:0;marker:none;visibility:visible;display:inline;overflow:visible;enable-background:accumulate"
     id="path4344"
     sodipodi:cx="30.85717"
     sodipodi:cy="908.08105"
     sodipodi:rx="11.281116"
     sodipodi:ry="11.778812"
     d="m 42.138286,908.08105 c 0,6.50526 -5.050728,11.77882 -11.281116,11.77882 -6.230388,0 -11.281115,-5.27356 -11.281115,-11.77882 0,-6.50525 5.050727,-11.77881 11.281115,-11.77881 6.230388,0 11.281116,5.27356 11.281116,11.77881 z"
     transform="matrix(6.0189082,0,0,5.7645878,-106.65042,-4374.3531)" /><path
     transform="matrix(5.274301,0,0,5.0514429,-83.673948,-3726.7597)"
     d="m 42.138286,908.08105 c 0,6.50526 -5.050728,11.77882 -11.281116,11.77882 -6.230388,0 -11.281115,-5.27356 -11.281115,-11.77882 0,-6.50525 5.050727,-11.77881 11.281115,-11.77881 6.230388,0 11.281116,5.27356 11.281116,11.77881 z"
     sodipodi:ry="11.778812"
     sodipodi:rx="11.281116"
     sodipodi:cy="908.08105"
     sodipodi:cx="30.85717"
     id="path4346"
     style="color:#000000;fill:none;stroke:#e7b98a;stroke-width:0.19373576;stroke-linecap:round;stroke-linejoin:round;stroke-miterlimit:4;stroke-opacity:1;stroke-dasharray:none;stroke-dashoffset:0;marker:none;visibility:visible;display:inline;overflow:visible;enable-background:accumulate"
     sodipodi:type="arc" /></g><path
   d="m 272.05819,1074.2857 5.95081,5.9368 c 25.02929,-24.9463 34.83097,-56.3502 34.69714,-83.71189 l -8.41505,0 c 0.1103,27.78899 -10.71229,56.07079 -32.2329,77.77509 z"
   id="path4985"
   style="fill:#ff0000;stroke:#ffff3e;stroke-width:1"
   inkscape:connector-curvature="0"
   sodipodi:nodetypes="ccccc" /><path
   id="path6948"
   d="m 472.10371,1035.4734 -154.56507,-0.218"
   style="fill:none;stroke:#ff0000;stroke-width:6;stroke-linecap:butt;stroke-linejoin:miter;stroke-miterlimit:4;stroke-opacity:1;stroke-dasharray:none;marker-end:url(#Arrow2SendD)"
   inkscape:connector-curvature="0"
   sodipodi:nodetypes="cc" /><circle
   style="fill:#c2ffff;stroke:#00a3df;stroke-width:3.87096763"
   sodipodi:ry="21.500999"
   sodipodi:rx="21.500999"
   sodipodi:cy="657.95697"
   sodipodi:cx="305.59399"
   id="circle4892"
   r="21.500999"
   cy="657.95697"
   cx="305.59399"
   d="m 327.09499,657.95697 c 0,11.87467 -9.62632,21.501 -21.501,21.501 -11.87467,0 -21.501,-9.62633 -21.501,-21.501 0,-11.87467 9.62633,-21.501 21.501,-21.501 11.87468,0 21.501,9.62633 21.501,21.501 z"
   transform="matrix(1.55,0,0,1.55,-1.4731801,15.466358)" /><g
   id="g4894"
   transform="matrix(1.55,0,0,1.55,-1.5196891,16.348358)">
<path
   inkscape:connector-curvature="0"
   id="path4896"
   d="m 297.235,647.044 h 16.78 v 3.871 c -1.458,1.317 -2.677,2.743 -3.653,4.278 -1.187,1.863 -2.121,3.939 -2.809,6.228 -0.546,1.778 -0.912,3.883 -1.101,6.311 h -5.719 c 0.449,-3.379 1.158,-6.213 2.128,-8.5 0.967,-2.288 2.498,-4.736 4.593,-7.344 h -10.221 l 0.002,-4.844 0,0 z" />
</g><path
   sodipodi:nodetypes="cc"
   id="path7328"
   d="M 472.02,741.35135 339.57043,583.64735"
   style="fill:none;stroke:#ff0000;stroke-width:6;stroke-linecap:butt;stroke-linejoin:miter;stroke-miterlimit:4;stroke-opacity:1;stroke-dasharray:none;marker-end:url(#Arrow2SendK)"
   inkscape:connector-curvature="0" /><path
   sodipodi:nodetypes="cc"
   id="path7330"
   d="M 472.08278,741.45835 313.82529,911.55108"
   style="fill:none;stroke:#ff0000;stroke-width:6;stroke-linecap:butt;stroke-linejoin:miter;stroke-miterlimit:4;stroke-opacity:1;stroke-dasharray:none;marker-end:url(#Arrow2Sendi)"
   inkscape:connector-curvature="0" /><circle
   style="fill:#c2ffff;stroke:#00a3df;stroke-width:3.87096763"
   sodipodi:ry="21.500999"
   sodipodi:rx="21.500999"
   sodipodi:cy="496.82101"
   sodipodi:cx="305.59399"
   id="circle4866"
   r="21.500999"
   cy="496.82101"
   cx="305.59399"
   d="m 327.09499,496.82101 c 0,11.87468 -9.62632,21.501 -21.501,21.501 -11.87467,0 -21.501,-9.62632 -21.501,-21.501 0,-11.87467 9.62633,-21.501 21.501,-21.501 11.87468,0 21.501,9.62633 21.501,21.501 z"
   transform="matrix(1.55,0,0,1.55,-1.4731801,-28.533642)" /><g
   id="g4868"
   transform="matrix(1.55,0,0,1.55,-1.6181141,-27.652642)">
<path
   inkscape:connector-curvature="0"
   id="path4870"
   d="m 313.767,490.578 -5.719,0.705 c -0.148,-0.8 -0.398,-1.363 -0.75,-1.692 -0.351,-0.329 -0.782,-0.494 -1.296,-0.494 -0.926,0 -1.645,0.469 -2.158,1.406 -0.375,0.675 -0.649,2.118 -0.827,4.331 0.686,-0.697 1.389,-1.214 2.11,-1.549 0.723,-0.334 1.559,-0.502 2.506,-0.502 1.838,0 3.394,0.658 4.664,1.978 1.271,1.315 1.907,2.985 1.907,5.01 0,1.364 -0.322,2.611 -0.966,3.74 -0.646,1.129 -1.537,1.982 -2.68,2.563 -1.142,0.578 -2.572,0.867 -4.293,0.867 -2.066,0 -3.728,-0.352 -4.978,-1.057 -1.25,-0.705 -2.248,-1.831 -2.996,-3.377 -0.746,-1.548 -1.12,-3.595 -1.12,-6.142 0,-3.731 0.784,-6.465 2.354,-8.199 1.568,-1.733 3.745,-2.602 6.526,-2.602 1.646,0 2.943,0.191 3.898,0.572 0.953,0.381 1.745,0.938 2.375,1.674 0.63,0.736 1.114,1.656 1.443,2.768 z m -10.554,9.189 c 0,1.118 0.281,1.994 0.844,2.627 0.563,0.635 1.252,0.951 2.066,0.951 0.75,0 1.378,-0.286 1.885,-0.859 0.506,-0.572 0.759,-1.427 0.759,-2.563 0,-1.164 -0.263,-2.054 -0.787,-2.662 -0.524,-0.611 -1.177,-0.916 -1.953,-0.916 -0.797,0 -1.466,0.296 -2.004,0.887 -0.541,0.592 -0.81,1.437 -0.81,2.535 z" />
</g></svg>