<?xml version="1.0" encoding="UTF-8" standalone="no"?>
<!-- Created with Inkscape (http://www.inkscape.org/) -->

<svg
   xmlns:dc="http://purl.org/dc/elements/1.1/"
   xmlns:cc="http://creativecommons.org/ns#"
   xmlns:rdf="http://www.w3.org/1999/02/22-rdf-syntax-ns#"
   xmlns:svg="http://www.w3.org/2000/svg"
   xmlns="http://www.w3.org/2000/svg"
   xmlns:sodipodi="http://sodipodi.sourceforge.net/DTD/sodipodi-0.dtd"
   xmlns:inkscape="http://www.inkscape.org/namespaces/inkscape"
   width="744.09448819"
   height="1052.3622047"
   id="svg3051"
   version="1.1"
   inkscape:version="0.48.3.1 r9886"
   sodipodi:docname="Новый документ 2">
  <defs
     id="defs3053">
    <clipPath
       clipPathUnits="userSpaceOnUse"
       id="clipPath22">
      <path
         d="M 1608.27,4975.07 C 957.871,4271.03 1786.12,3608.54 2129.32,2695.59 2483.46,3839.43 1840.28,4853.43 1608.27,4975.07 z"
         id="path24"
         inkscape:connector-curvature="0" />
    </clipPath>
    <linearGradient
       x1="-105.701"
       y1="0"
       x2="105.701"
       y2="0"
       gradientUnits="userSpaceOnUse"
       gradientTransform="matrix(-2.39211,9.70967,-9.70967,-2.39211,1863.76,3838.83)"
       spreadMethod="pad"
       id="linearGradient26">
      <stop
         style="stop-opacity:1;stop-color:#a7a5a6"
         offset="0"
         id="stop28" />
      <stop
         style="stop-opacity:1;stop-color:#d3d2d2"
         offset="1"
         id="stop30" />
    </linearGradient>
    <clipPath
       clipPathUnits="userSpaceOnUse"
       id="clipPath38">
      <path
         d="m 1667.99,5056.38 c -58.04,25.61 207.94,111.89 141.71,157.36 255.54,3.21 537.77,2.25 489.49,141.84 -27.26,78.83 210.65,-163.27 351.58,-86.31 482.75,-355.16 171.51,-2125.86 -425.59,-2585.51 291.75,626.17 -20.09,2135.57 -557.19,2372.62 z"
         id="path40"
         inkscape:connector-curvature="0" />
    </clipPath>
    <linearGradient
       x1="-122.359"
       y1="0"
       x2="122.359"
       y2="0"
       gradientUnits="userSpaceOnUse"
       gradientTransform="matrix(-0.404806,9.9918,-9.9918,-0.404806,2148.76,3977.58)"
       spreadMethod="pad"
       id="linearGradient42">
      <stop
         style="stop-opacity:1;stop-color:#231f20"
         offset="0"
         id="stop44" />
      <stop
         style="stop-opacity:1;stop-color:#656263"
         offset="1"
         id="stop46" />
    </linearGradient>
  </defs>
  <sodipodi:namedview
     id="base"
     pagecolor="#ffffff"
     bordercolor="#666666"
     borderopacity="1.0"
     inkscape:pageopacity="0.0"
     inkscape:pageshadow="2"
     inkscape:zoom="0.35"
     inkscape:cx="375"
     inkscape:cy="405.71429"
     inkscape:document-units="px"
     inkscape:current-layer="layer1"
     showgrid="false"
     inkscape:window-width="1920"
     inkscape:window-height="1056"
     inkscape:window-x="0"
     inkscape:window-y="24"
     inkscape:window-maximized="1" />
  <metadata
     id="metadata3056">
    <rdf:RDF>
      <cc:Work
         rdf:about="">
        <dc:format>image/svg+xml</dc:format>
        <dc:type
           rdf:resource="http://purl.org/dc/dcmitype/StillImage" />
        <dc:title></dc:title>
      </cc:Work>
    </rdf:RDF>
  </metadata>
  <g
     inkscape:label="Layer 1"
     inkscape:groupmode="layer"
     id="layer1">
    <g
       id="g193"
       transform="matrix(1.9861499,0,0,-2.0296028,-675.30108,613.43137)">
      <path
         d="m 399.19685,255.62601 c -4.57299,0.59831 -8.30976,2.72391 -22.02161,0.34709 1.55702,5.97555 19.77795,9.126 27.17426,17.88405 11.67947,13.83036 32.82359,0.82156 40.60206,-10.70744 -10.40961,7.36214 -32.24747,19.13615 -36.13338,5.62047 -0.0981,-0.34043 2.28361,-4.61604 18.69141,-4.61115 -10.20189,-4.59385 -18.39935,-1.64624 -26.41129,-0.45184 0.26676,-2.89035 10.70788,-3.94849 -1.90145,-8.08118"
         style="fill:#fbc707;fill-opacity:1;fill-rule:evenodd;stroke:none"
         id="path16"
         inkscape:connector-curvature="0" />
      <g
         transform="matrix(0.04438499,0,0,0.04438499,329.60296,27.245265)"
         id="g18">
        <g
           id="g20"
           clip-path="url(#clipPath22)">
          <path
             d="M 1608.27,4975.07 C 957.871,4271.03 1786.12,3608.54 2129.32,2695.59 2483.46,3839.43 1840.28,4853.43 1608.27,4975.07"
             style="fill:url(#linearGradient26);fill-opacity:1;fill-rule:nonzero;stroke:none"
             id="path32"
             inkscape:connector-curvature="0" />
        </g>
      </g>
      <g
         transform="matrix(0.04438499,0,0,0.04438499,329.60296,27.245265)"
         id="g34">
        <g
           id="g36"
           clip-path="url(#clipPath38)">
          <path
             d="m 1667.99,5056.38 c -58.04,25.61 207.94,111.89 141.71,157.36 255.54,3.21 537.77,2.25 489.49,141.84 -27.26,78.83 210.65,-163.27 351.58,-86.31 482.75,-355.16 171.51,-2125.86 -425.59,-2585.51 291.75,626.17 -20.09,2135.57 -557.19,2372.62"
             style="fill:url(#linearGradient42);fill-opacity:1;fill-rule:nonzero;stroke:none"
             id="path48"
             inkscape:connector-curvature="0" />
        </g>
      </g>
    </g>
    <g
       id="g186"
       transform="matrix(1.9861499,0,0,-2.0296028,-338.63049,355.69938)">
      <path
         d="m 329.88002,83.660807 169.59051,-2.482453 4.99686,41.571866 -173.82329,13.96041 -0.76408,-53.049823"
         style="fill:#fbc707;fill-opacity:1;fill-rule:evenodd;stroke:none"
         id="path14"
         inkscape:connector-curvature="0" />
      <path
         d="m 347.10085,89.804133 135.91794,-0.333331 1.89923,-34.317587 -136.14718,-12.556292 -1.66999,47.20721"
         style="fill:#393536;fill-opacity:1;fill-rule:evenodd;stroke:none"
         id="path50"
         inkscape:connector-curvature="0" />
      <path
         d="m 341.0281,102.49291 0.59192,16.79972 3.13123,-0.11052 -0.49103,-13.93999 5.64834,-0.19884 -0.10071,-2.85929 -8.77975,0.30892 z m 11.22283,13.80462 0.0922,2.61739 2.90047,-0.10209 -0.0923,-2.61783 -2.90043,0.10253 z m -0.4995,-14.18233 0.44451,12.6222 2.90047,-0.10253 -0.44456,-12.62176 -2.90042,0.10209 z m 5.43227,-0.1913 0.44474,12.62176 2.85573,-0.10031 -0.0451,-1.27696 c 0.32405,0.51753 0.71415,0.90679 1.16683,1.16289 0.45269,0.2561 0.96382,0.37594 1.52991,0.35597 0.9158,-0.032 1.61051,-0.31736 2.07966,-0.85974 0.46919,-0.54194 0.68468,-1.3027 0.65037,-2.28183 l -0.34935,-9.91561 -2.81481,0.0994 0.29822,8.46333 c 0.0261,0.74034 -0.0487,1.26542 -0.228,1.57345 -0.17927,0.30803 -0.49032,0.47226 -0.93346,0.48779 -0.48775,0.0173 -0.84057,-0.15668 -1.06578,-0.51797 -0.22538,-0.36485 -0.35179,-0.99023 -0.38299,-1.8766 l -0.28331,-8.03856 -2.92267,0.10297 z m 19.56411,11.94844 -0.44474,-12.62221 -2.867,0.1012 0.0442,1.25477 c -0.31637,-0.51443 -0.70634,-0.89614 -1.16266,-1.15224 -0.45632,-0.25211 -0.9711,-0.36839 -1.54446,-0.34798 -0.91593,0.0324 -1.6067,0.31736 -2.06874,0.85575 -0.46205,0.53439 -0.67377,1.2987 -0.63893,2.28937 l 0.3494,9.91472 2.81476,-0.099 -0.29041,-8.24717 c -0.0296,-0.83799 0.043,-1.4181 0.22193,-1.74122 0.17878,-0.32357 0.49347,-0.4909 0.94389,-0.50688 0.49534,-0.0173 0.84766,0.14514 1.05725,0.48823 0.21327,0.33955 0.33586,0.95783 0.36742,1.85485 l 0.28397,8.0612 2.93412,-0.10341 z m 0.95161,-12.67147 3.55213,6.34306 -2.96625,6.27426 3.32488,-0.11718 1.25566,-3.20149 1.47358,3.10562 3.18329,-0.11229 -3.33686,-6.05234 2.97068,-6.57253 -3.23921,0.11407 -1.33377,3.42075 -1.58188,-3.31778 -3.30225,0.11585 z m 17.21605,16.21428 3.13136,-0.11052 -0.39857,-11.32261 c -0.0457,-1.29205 0.0799,-2.1762 0.37993,-2.6489 0.30004,-0.4727 0.85441,-0.72347 1.66222,-0.75188 0.80071,-0.028 1.36351,0.18331 1.68885,0.63781 0.32534,0.4545 0.50954,1.34265 0.55614,2.65689 l 0.39725,11.27778 3.08653,-0.10874 -0.40834,-11.59425 c -0.0399,-1.12827 -0.13227,-1.94895 -0.27696,-2.46559 -0.1447,-0.51309 -0.37728,-0.96359 -0.68841,-1.34397 -0.47182,-0.57612 -1.083,-0.99423 -1.83399,-1.26231 -0.75144,-0.26809 -1.63914,-0.386153 -2.65556,-0.3502 -1.92142,0.0675 -3.2583,0.53218 -4.01817,1.39413 -0.75987,0.85796 -1.10341,2.324 -1.03062,4.39767 l 0.40834,11.59469 z m 12.29775,-13.04875 2.62848,-0.0923 -0.0129,-0.36129 c -0.0253,-0.72614 0.0679,-1.24766 0.27696,-1.56058 0.21261,-0.31335 0.57568,-0.47891 1.09365,-0.49711 0.40568,-0.0142 0.72969,0.0826 0.96803,0.29383 0.24235,0.21172 0.3684,0.5091 0.38216,0.89258 0.0169,0.48025 -0.4332,1.04793 -1.3493,1.70661 -0.23258,0.16866 -0.41412,0.30181 -0.5415,0.39191 -0.0289,0.0235 -0.0763,0.0586 -0.13804,0.10165 -2.0892,1.54637 -3.10695,3.02483 -3.05724,4.43228 0.0391,1.12072 0.41589,1.96492 1.13271,2.52861 0.71327,0.56369 1.73279,0.82201 3.05812,0.77541 1.28095,-0.0448 2.22636,-0.40257 2.84375,-1.07678 0.6174,-0.67421 0.90279,-1.67198 0.85619,-2.99732 l -0.009,-0.26098 -2.57256,0.091 0.009,0.26054 c 0.0213,0.61029 -0.0781,1.06524 -0.3027,1.3564 -0.22104,0.29117 -0.58455,0.44563 -1.08744,0.46338 -0.36085,0.0124 -0.65867,-0.0777 -0.88192,-0.27119 -0.22637,-0.18952 -0.34354,-0.45006 -0.35508,-0.77763 -0.0111,-0.30536 0.0759,-0.5841 0.26098,-0.84065 0.18109,-0.2521 0.60053,-0.61739 1.25521,-1.09142 0.14913,-0.10608 0.36351,-0.26276 0.64669,-0.47048 2.06967,-1.47048 3.07765,-2.90811 3.02838,-4.31156 -0.0395,-1.11717 -0.42742,-1.97203 -1.16777,-2.55747 -0.7359,-0.585434 -1.76696,-0.854851 -3.08875,-0.808247 -1.3888,0.04927 -2.40122,0.412777 -3.03726,1.091427 -0.63604,0.6782 -0.92765,1.71015 -0.87882,3.09896 0.002,0.0519 0.008,0.13005 0.02,0.24145 0.0111,0.10786 0.0178,0.18953 0.02,0.249 z m 13.03543,3.25032 2.83709,-0.0999 0.0191,0.53617 c 0.0302,0.86373 -0.0533,1.46293 -0.25388,1.79804 -0.20062,0.33555 -0.56324,0.5122 -1.09586,0.53084 -0.51753,0.0182 -0.88815,-0.1367 -1.11984,-0.46737 -0.22814,-0.33111 -0.3604,-0.91922 -0.39014,-1.76075 0,0 0.001,-0.0635 0.005,-0.18287 0.003,-0.1194 0.003,-0.23879 -10e-4,-0.35419 z m 2.80779,-3.68129 2.75187,-0.0972 c -0.003,-0.0595 -0.002,-0.14159 -0.002,-0.24988 0.004,-0.11185 0.004,-0.18997 0.003,-0.24235 -0.0506,-1.43718 -0.43053,-2.48245 -1.13892,-3.12825 -0.71282,-0.649797 -1.81534,-0.946732 -3.3049,-0.893914 -0.78562,0.02752 -1.44118,0.147802 -1.96271,0.363513 -0.52552,0.216155 -0.95028,0.536611 -1.27873,0.961821 -0.39236,0.50244 -0.65734,1.12694 -0.79849,1.87394 -0.14158,0.74655 -0.1762,2.08609 -0.1083,4.01107 0.0537,1.53439 0.16689,2.62981 0.33556,3.28759 0.16821,0.65779 0.43319,1.18863 0.79804,1.60097 0.38038,0.42255 0.86462,0.73368 1.45716,0.93652 0.59609,0.19885 1.29648,0.28629 2.10029,0.25788 0.77852,-0.0275 1.44784,-0.17044 2.00221,-0.42476 0.55348,-0.25832 1.0102,-0.63205 1.36573,-1.12561 0.29782,-0.43142 0.50244,-0.96803 0.61429,-1.6094 0.1114,-0.6418 0.14247,-1.67154 0.0923,-3.09008 l -0.0337,-0.96094 -5.73764,0.2024 c -0.0182,-0.0928 -0.0293,-0.19307 -0.0368,-0.29738 -0.007,-0.10785 -0.0169,-0.27519 -0.0253,-0.50954 -0.0422,-1.19884 0.0404,-2.04038 0.24633,-2.52861 0.20284,-0.48824 0.57079,-0.7399 1.10297,-0.75854 0.51753,-0.0182 0.89658,0.16245 1.14513,0.5415 0.24457,0.38259 0.38216,1.00798 0.41278,1.87926 z m 4.94094,-4.505968 0.44474,12.621758 2.79226,-0.0981 -0.0719,-2.04792 c 0.43187,0.83444 0.87794,1.42653 1.34487,1.7754 0.46737,0.34531 1.0284,0.5122 1.68397,0.49622 l -0.12473,-3.54458 c -0.10741,0.0186 -0.21881,0.0337 -0.32667,0.0453 -0.10785,0.0111 -0.24145,0.0195 -0.40168,0.0253 -0.62539,0.0217 -1.12738,-0.14692 -1.50865,-0.50244 -0.38215,-0.35952 -0.58189,-0.85175 -0.60408,-1.47758 l -0.26054,-7.398087 -2.96758,0.104749 z m 21.55424,-0.759427 -0.16511,1.862395 c -0.34887,-0.796712 -0.8047,-1.358626 -1.37549,-1.685299 -0.56724,-0.330224 -1.34043,-0.478026 -2.31601,-0.44385 -1.7572,0.06169 -2.9738,0.771855 -3.64179,2.126489 -0.67155,1.35418 -0.94318,3.80956 -0.81802,7.3577 0.0586,1.65689 0.19086,2.98311 0.39725,3.97512 0.20639,0.99555 0.50199,1.75675 0.88193,2.29159 0.45938,0.65113 1.05769,1.12561 1.78738,1.42032 0.73014,0.29516 1.63293,0.42343 2.70172,0.38615 1.80203,-0.0635 3.11627,-0.53528 3.94272,-1.41766 0.82245,-0.87882 1.20416,-2.21569 1.14069,-4.01417 l -0.0146,-0.42477 -2.92275,0.10298 0.006,0.17532 c 0.0351,1.00132 -0.12428,1.76741 -0.48247,2.2947 -0.35774,0.5233 -0.90723,0.79982 -1.64846,0.826 -0.90811,0.032 -1.54238,-0.29604 -1.90189,-0.98046 -0.35997,-0.68841 -0.59254,-2.53261 -0.69818,-5.53392 -0.0839,-2.37149 0.0204,-3.96358 0.31247,-4.77538 0.29205,-0.8118 0.85486,-1.23035 1.69284,-1.26009 0.82645,-0.0288 1.42831,0.23302 1.80203,0.7865 0.37417,0.55748 0.58278,1.51175 0.63027,2.86328 l 0.0204,0.57745 -2.17087,0.0763 0.0945,2.6844 5.18328,-0.18242 -0.32313,-9.163282 -2.11494,0.07457 z m 4.73277,-0.166888 0.44474,12.622203 2.79226,-0.0985 -0.0723,-2.04748 c 0.43231,0.83443 0.87794,1.42653 1.34531,1.7754 0.46693,0.34531 1.0284,0.51175 1.68352,0.49622 l -0.12472,-3.54459 c -0.10741,0.0186 -0.21882,0.0337 -0.32667,0.0448 -0.10741,0.0115 -0.24146,0.02 -0.40169,0.0253 -0.62538,0.0222 -1.12693,-0.14647 -1.50864,-0.50199 -0.38171,-0.35952 -0.58189,-0.85175 -0.60364,-1.47758 l -0.26098,-7.398088 -2.96714,0.104305 z m 10.35768,6.080743 -0.0102,-0.29383 c -0.0692,-1.95871 -0.0142,-3.1571 0.16778,-3.59962 0.18198,-0.44296 0.55037,-0.67554 1.11229,-0.695513 0.581,-0.02042 0.97913,0.170443 1.19839,0.576563 0.21926,0.40257 0.3573,1.46381 0.41811,3.18773 l 0.0182,0.51398 0.0253,0.71859 c 0.0581,1.6529 -0.01,2.69195 -0.19929,3.12692 -0.19352,0.43187 -0.56946,0.65779 -1.12827,0.67732 -0.55481,0.0195 -0.9414,-0.16068 -1.16333,-0.54416 -0.21882,-0.37994 -0.35597,-1.31469 -0.40834,-2.7967 l -0.0306,-0.87128 z m -2.99465,-0.0288 c 0.0901,2.54681 0.47891,4.27783 1.16777,5.20059 0.68841,0.92276 1.85573,1.35507 3.50863,1.29693 1.65689,-0.0586 2.79448,-0.57212 3.41676,-1.54105 0.62183,-0.96848 0.88814,-2.72302 0.79848,-5.26938 -0.0897,-2.54326 -0.47891,-4.277385 -1.16732,-5.196598 -0.68841,-0.919213 -1.85929,-1.347529 -3.51618,-1.289384 -1.65334,0.05859 -2.78694,0.568128 -3.40921,1.533057 -0.62228,0.965375 -0.88815,2.723015 -0.79893,5.265835 z m 19.57289,5.63689 -0.44474,-12.621755 -2.86682,0.100754 0.0444,1.254763 c -0.31646,-0.514422 -0.70661,-0.895689 -1.16289,-1.15179 -0.45627,-0.252551 -0.97114,-0.368839 -1.54415,-0.348422 -0.91611,0.0324 -1.60674,0.317796 -2.06878,0.855742 -0.46205,0.534839 -0.67377,1.298705 -0.63915,2.289378 l 0.34931,9.91516 2.8149,-0.0994 -0.29072,-8.24673 c -0.0293,-0.83799 0.0435,-1.41854 0.22237,-1.74167 0.17842,-0.32312 0.49311,-0.490452 0.94362,-0.50643 0.49534,-0.01731 0.84775,0.14514 1.05725,0.48823 0.21349,0.33911 0.336,0.95739 0.36751,1.85485 l 0.28406,8.06076 2.93385,-0.10342 z m 5.15399,-5.97066 c -0.0719,-2.04438 -0.0133,-3.34353 0.18331,-3.90233 0.19662,-0.554815 0.58188,-0.844205 1.16599,-0.865066 0.51398,-0.0182 0.87616,0.204171 1.08255,0.670216 0.20639,0.46604 0.34088,1.63558 0.40701,3.50464 0.0635,1.81002 0.0111,2.96758 -0.16112,3.46913 -0.17266,0.50199 -0.51753,0.75987 -1.03151,0.77807 -0.58455,0.0209 -0.98712,-0.19219 -1.21925,-0.6356 -0.23169,-0.44252 -0.3715,-1.44784 -0.42698,-3.01906 z m -3.22724,-10.984402 0.59387,16.866292 2.77007,-0.0972 -0.0466,-1.32223 c 0.25432,0.54683 0.60008,0.94851 1.04216,1.20861 0.44163,0.26054 0.96759,0.37993 1.57788,0.35818 1.22503,-0.043 2.06834,-0.55703 2.52906,-1.54282 0.46515,-0.9818 0.65423,-2.70349 0.56768,-5.16109 -0.0897,-2.54681 -0.39369,-4.291581 -0.91122,-5.238757 -0.51842,-0.947619 -1.38037,-1.398127 -2.58676,-1.355517 -0.59564,0.02086 -1.09054,0.154016 -1.48823,0.403015 -0.39369,0.245005 -0.70927,0.610294 -0.93829,1.091427 l -0.18731,-5.312883 -2.92231,0.102973"
         style="fill:#231f20;fill-opacity:1;fill-rule:nonzero;stroke:none"
         id="path52"
         inkscape:connector-curvature="0" />
      <path
         d="m 360.80299,59.168992 -0.75903,15.233106 2.91694,0.145139 4.49744,-10.453953 -0.60821,10.647915 2.68059,0.133599 0.75907,-15.233018 -2.89665,-0.144384 -4.529,10.472772 0.60923,-10.668022 -2.67038,-0.133154 z m 14.28615,8.347307 c 0.12472,-2.505133 0.34842,-4.074364 0.67421,-4.708093 0.32667,-0.636969 0.88282,-0.934171 1.67287,-0.894802 0.77629,0.03884 1.29427,0.382643 1.54904,1.035058 0.25565,0.648998 0.31824,2.2394 0.19218,4.771564 -0.12605,2.532031 -0.35064,4.114844 -0.67287,4.745555 -0.32268,0.630266 -0.87217,0.927646 -1.65556,0.888587 -0.78651,-0.0395 -1.30359,-0.390144 -1.56191,-1.049261 -0.25832,-0.659117 -0.32401,-2.256577 -0.19796,-4.788608 z m -2.8967,-0.144251 c -0.0805,1.613661 -0.0706,2.910368 0.0331,3.883553 0.10386,0.972964 0.30412,1.710642 0.60385,2.216631 0.40781,0.714155 0.9099,1.233015 1.50607,1.560576 0.59965,0.327562 1.39902,0.516642 2.40212,0.566797 0.99911,0.04927 1.81357,-0.05903 2.44251,-0.325342 0.62582,-0.266754 1.18064,-0.73324 1.66399,-1.40301 0.34576,-0.486903 0.61873,-1.204165 0.81535,-2.162437 0.19663,-0.954987 0.33466,-2.234162 0.41456,-3.844539 0.0799,-1.603585 0.0697,-2.890395 -0.0342,-3.863225 -0.10386,-0.973141 -0.30004,-1.717477 -0.59254,-2.236382 -0.41411,-0.714332 -0.9201,-1.233769 -1.51619,-1.561286 -0.59964,-0.327517 -1.39901,-0.516508 -2.39856,-0.566264 -1.00266,-0.04993 -1.81668,0.05841 -2.44606,0.324898 -0.62583,0.266665 -1.17709,0.73324 -1.65387,1.40332 -0.34847,0.473366 -0.62104,1.187476 -0.82095,2.145393 -0.20009,0.958095 -0.33879,2.247345 -0.41922,3.861317 z m 14.96454,-6.889882 -4.17929,15.062401 3.03504,0.151353 2.87127,-12.0444 1.4434,12.259223 2.99465,0.149134 -2.43496,-15.391827 -3.73011,-0.185884 z m 10.89651,8.178467 c 0.12428,-2.505355 0.34842,-4.074587 0.67421,-4.708094 0.32623,-0.637013 0.88282,-0.93417 1.67243,-0.894845 0.77673,0.03866 1.29426,0.382643 1.54948,1.035102 0.25521,0.648953 0.31824,2.239356 0.19174,4.771564 -0.12605,2.531986 -0.3502,4.114755 -0.67288,4.745022 -0.32223,0.63071 -0.87172,0.92809 -1.65511,0.889031 -0.78695,-0.0395 -1.30403,-0.3897 -1.56191,-1.049261 -0.25832,-0.659561 -0.32446,-2.256489 -0.19796,-4.788519 z m -2.89701,-0.144429 c -0.0803,1.613794 -0.0706,2.910501 0.0333,3.883687 0.10386,0.972919 0.30404,1.710597 0.60364,2.216142 0.4079,0.714599 0.90989,1.233459 1.50642,1.56102 0.5992,0.327562 1.39902,0.516642 2.40168,0.566353 0.9991,0.04971 1.81357,-0.05859 2.44295,-0.324898 0.62538,-0.266754 1.18019,-0.73324 1.66399,-1.40301 0.34531,-0.486903 0.61828,-1.204608 0.81491,-2.162437 0.19662,-0.954721 0.33466,-2.234118 0.415,-3.84445 0.0799,-1.603585 0.0697,-2.890439 -0.0342,-3.863403 -0.10386,-0.973007 -0.30049,-1.717344 -0.59254,-2.236248 -0.41455,-0.714332 -0.9201,-1.23377 -1.51619,-1.561287 -0.60008,-0.327694 -1.39901,-0.516508 -2.39856,-0.566264 -1.00266,-0.04993 -1.81713,0.05846 -2.44651,0.324943 -0.62538,0.266443 -1.17709,0.733196 -1.65378,1.40332 -0.34842,0.473322 -0.62095,1.187476 -0.82068,2.145393 -0.20017,0.958094 -0.3391,2.247301 -0.41944,3.861139 z m 12.02035,-1.672071 2.8393,0.141455 0.0488,-0.978867 c 0.0466,-0.935369 0.19662,-1.567545 0.44607,-1.893464 0.24988,-0.329425 0.66355,-0.478203 1.23745,-0.449398 0.60097,0.02996 1.04926,0.204571 1.34797,0.523921 0.29916,0.316065 0.43231,0.772743 0.40257,1.367102 -0.0226,0.455834 -0.15046,0.838654 -0.3857,1.155208 -0.23258,0.313314 -0.72614,0.711758 -1.47758,1.188896 l -1.50287,0.957385 c -1.29605,0.808472 -2.12871,1.484456 -2.49799,2.034785 -0.36884,0.550108 -0.57345,1.253965 -0.61606,2.111483 -0.0639,1.279619 0.26409,2.301362 0.98801,3.065227 0.72347,0.763422 1.74832,1.176646 3.08209,1.24278 1.411,0.07057 2.51086,-0.26054 3.30224,-0.995999 0.79094,-0.732352 1.22103,-1.821116 1.29294,-3.265848 0.008,-0.145139 0.0129,-0.256545 0.0133,-0.334219 8.9e-4,-0.08167 -0.003,-0.149133 -0.007,-0.210385 l -2.69062,-0.134042 -0.02,0.404791 c -0.0413,0.823785 -0.2055,1.408336 -0.49356,1.749212 -0.28761,0.340877 -0.74211,0.497556 -1.35995,0.46693 -0.45584,-0.02264 -0.80692,-0.175764 -1.0537,-0.45539 -0.24634,-0.279625 -0.35997,-0.654234 -0.336,-1.130041 0.0315,-0.638257 0.65113,-1.318235 1.85441,-2.036517 0.0138,-0.0061 0.0244,-0.0123 0.0315,-0.01873 l 1.61606,-0.982196 c 1.1509,-0.683795 1.94184,-1.341581 2.36927,-1.976863 0.42787,-0.6387 0.66844,-1.462796 0.71904,-2.478768 0.0692,-1.384279 -0.27253,-2.470824 -1.0284,-3.263185 -0.75233,-0.792316 -1.86506,-1.223517 -3.33687,-1.296885 -1.5295,-0.07608 -2.69017,0.262182 -3.47579,1.014996 -0.78872,0.755921 -1.22369,1.942687 -1.30447,3.566556 -0.008,0.168707 -0.009,0.45286 -0.002,0.849218 l -0.003,0.06085 z m 11.65061,-4.783859 -0.75898,15.233062 2.83931,0.141144 0.75898,-15.232751 -2.83931,-0.141455 z m 8.07896,2.575528 1.16821,0.05828 c 0.7328,0.0364 1.23701,0.240789 1.51619,0.616863 0.27918,0.372612 0.3968,1.004566 0.35242,1.895905 -0.0462,0.921654 -0.24012,1.548459 -0.58144,1.883255 -0.33822,0.331645 -0.95473,0.476961 -1.84553,0.432576 l -0.85086,-0.04234 0.24101,-4.844533 z m -0.34265,6.883668 0.9485,0.04731 c 0.71238,0.03555 1.19751,0.215268 1.45184,0.539278 0.25477,0.324011 0.36173,0.901459 0.32001,1.731902 -0.0368,0.743005 -0.20062,1.245887 -0.48779,1.505539 -0.28673,0.260096 -0.81047,0.37239 -1.56679,0.334663 l -0.87128,-0.04305 0.20551,-4.115643 z m -2.30758,-9.188581 -0.75898,15.232751 4.55789,0.227252 c 1.30625,0.0648 2.29382,-0.190412 2.95871,-0.766529 0.66843,-0.572567 1.03239,-1.49178 1.09497,-2.750982 0.0506,-1.009758 -0.0661,-1.797148 -0.35241,-2.366608 -0.28673,-0.569193 -0.73901,-0.926847 -1.36129,-1.069545 0.71726,-0.0624 1.2916,-0.389256 1.72036,-0.980464 0.4292,-0.591031 0.66844,-1.384767 0.71815,-2.387424 0.0808,-1.617123 -0.19796,-2.81898 -0.83533,-3.612361 -0.63736,-0.793205 -1.67198,-1.223695 -3.10295,-1.29511 l -4.63912,-0.23098 z m 11.03988,0.549975 -0.75898,15.232706 2.8393,0.141589 0.75899,-15.23284 -2.83931,-0.141455 z m 7.73186,9.201674 1.63071,0.08123 c 0.82378,0.04128 1.38614,0.23524 1.69062,0.578336 0.30404,0.347091 0.4332,0.945844 0.39103,1.796704 -0.0377,0.755877 -0.23967,1.2774 -0.60274,1.564127 -0.36618,0.286284 -1.00843,0.406567 -1.92986,0.360407 l -1.39458,-0.06924 0.21482,-4.311558 z m -2.30313,-8.931192 -0.75899,15.232973 5.0843,0.253438 c 1.53617,0.07634 2.65911,-0.179315 3.36527,-0.770079 0.70661,-0.587214 1.09454,-1.590315 1.16511,-3.001313 0.0488,-0.985791 -0.0945,-1.774956 -0.42743,-2.363501 -0.33599,-0.588545 -0.85263,-0.949573 -1.55347,-1.085879 1.36484,-0.287437 2.12382,-1.390138 2.27695,-3.308235 0.004,-0.08442 0.008,-0.148601 0.01,-0.195738 l 0.18154,-2.01499 c 0.0559,-0.572522 0.14957,-1.028134 0.28495,-1.370076 0.13537,-0.338435 0.33599,-0.629512 0.59831,-0.86706 l -3.36261,-0.167465 c -0.0936,0.252595 -0.16644,0.55357 -0.22414,0.895822 -0.0577,0.345715 -0.10564,0.834127 -0.15047,1.464705 l -0.11984,1.591646 -0.0204,0.40519 c -0.0439,0.884371 -0.26365,1.482725 -0.65468,1.791512 -0.39103,0.312248 -1.16555,0.439322 -2.3169,0.381933 l -0.96892,-0.0482 0.33333,-6.688063 -2.74166,-0.136617 z m 11.13797,5.919493 2.8393,0.141322 0.0488,-0.978911 c 0.0466,-0.935369 0.19662,-1.567545 0.44607,-1.893464 0.25033,-0.329425 0.66355,-0.478026 1.23789,-0.449398 0.60053,0.02996 1.04882,0.204571 1.34753,0.523921 0.29916,0.316243 0.43187,0.77292 0.40257,1.367279 -0.0226,0.455656 -0.15002,0.838655 -0.38614,1.155208 -0.23214,0.313314 -0.7257,0.711758 -1.47714,1.188719 l -1.50332,0.957384 c -1.29559,0.80834 -2.12781,1.484767 -2.4971,2.034697 -0.36928,0.550374 -0.57389,1.25432 -0.6165,2.111838 -0.0639,1.279175 0.26453,2.300918 0.98801,3.064783 0.72347,0.763422 1.74832,1.17709 3.08209,1.243224 1.411,0.07013 2.51041,-0.26054 3.30224,-0.996443 0.79094,-0.731909 1.22103,-1.820672 1.29294,-3.265848 0.007,-0.145139 0.0129,-0.256545 0.0133,-0.334219 8.9e-4,-0.08122 -0.003,-0.149133 -0.006,-0.210384 l -2.69106,-0.133599 -0.02,0.404791 c -0.0413,0.823785 -0.2055,1.407892 -0.49356,1.748768 -0.28761,0.341321 -0.74211,0.498 -1.35995,0.466931 -0.45584,-0.02264 -0.80692,-0.175321 -1.0537,-0.454947 -0.24678,-0.280069 -0.35997,-0.654234 -0.336,-1.130485 0.0315,-0.637813 0.65113,-1.317791 1.85441,-2.03594 0.0138,-0.0067 0.0244,-0.01287 0.0315,-0.01908 l 1.61606,-0.98224 c 1.1509,-0.683973 1.94184,-1.341581 2.36927,-1.976863 0.42787,-0.638523 0.66844,-1.462796 0.71904,-2.478769 0.0692,-1.384279 -0.27253,-2.470823 -1.0284,-3.263184 -0.75277,-0.792139 -1.86506,-1.223339 -3.33687,-1.296708 -1.5295,-0.07625 -2.69017,0.262005 -3.47579,1.014819 -0.78872,0.75592 -1.22369,1.942686 -1.30447,3.566556 -0.008,0.168707 -0.009,0.453037 -0.002,0.849218 l -0.003,0.06103 z m 11.65061,-4.784036 -0.75898,15.232884 2.7785,0.138481 0.31691,-6.360369 3.14334,6.533027 3.15711,0.157123 -3.53394,-6.511722 4.53926,-8.708824 -3.11627,-0.155347 -3.05191,6.163433 -0.92543,-1.731681 0.22991,-4.61848 -2.7785,-0.138525"
         style="fill:#ffffff;fill-opacity:1;fill-rule:nonzero;stroke:none"
         id="path54"
         inkscape:connector-curvature="0" />
      <path
         d="m 392.8822,29.849936 -1.92054,7.495666 1.08033,0 1.38703,-5.99074 1.16067,5.99074 1.06701,0 1.2956,-6.004086 1.28938,6.004086 1.04261,0 -1.81624,-7.495666 -1.0355,0 -1.30936,5.815295 -1.14735,-5.815295 -1.09364,0 z m 8.88276,0 -1.92053,7.495666 1.08033,0 1.38703,-5.99074 1.16067,5.99074 1.06657,0 1.29604,-6.004086 1.28938,6.004086 1.04261,0 -1.81624,-7.495666 -1.0355,0 -1.3098,5.815295 -1.14691,-5.815295 -1.09365,0 z m 8.88277,0 -1.92054,7.495666 1.08033,0 1.38704,-5.99074 1.16066,5.99074 1.06702,0 1.29604,-6.004086 1.28894,6.004086 1.04305,0 -1.81624,-7.495666 -1.03594,0 -1.30936,5.815295 -1.14735,-5.815295 -1.09365,0 z m 6.89565,0 0,1.373853 1.18464,0 0,-1.373853 -1.18464,0 z m 3.12116,0 0,10.02996 1.86949,0 0,-8.3227 3.37193,0 0,-1.70726 -5.24142,0 z m 6.03059,10.02996 1.86949,0 0,-6.760056 c 0,-0.771322 0.0937,-1.295997 0.28229,-1.571659 0.18908,-0.275497 0.52463,-0.413335 1.0071,-0.413335 0.47802,0 0.80913,0.137838 0.99378,0.41559 0.18419,0.277934 0.27563,0.811397 0.27563,1.596124 l 0,6.733336 1.84286,0 0,-6.922327 c 0,-0.673409 -0.0382,-1.164751 -0.11362,-1.475965 -0.0755,-0.30896 -0.20462,-0.58238 -0.38216,-0.815921 -0.26897,-0.353344 -0.6245,-0.615668 -1.06701,-0.7913 -0.44252,-0.175462 -0.96937,-0.264406 -1.57612,-0.264406 -1.1469,0 -1.95382,0.248974 -2.42519,0.746747 -0.47137,0.495687 -0.70705,1.36277 -0.70705,2.600845 l 0,6.922327 z m 12.91514,-10.02996 -0.13759,1.107024 c -0.1913,-0.482341 -0.4514,-0.826844 -0.78473,-1.033687 -0.33111,-0.20892 -0.78917,-0.313296 -1.3715,-0.313296 -1.04926,0 -1.7896,0.397734 -2.21614,1.191462 -0.4292,0.793555 -0.64269,2.251824 -0.64269,4.370364 0,0.989119 0.051,1.782679 0.15357,2.378414 0.10208,0.597999 0.26231,1.058138 0.47802,1.384945 0.2601,0.397734 0.60675,0.693515 1.03551,0.88477 0.4292,0.191033 0.96493,0.286772 1.60318,0.286772 1.07545,0 1.86905,-0.253483 2.38037,-0.762535 0.5091,-0.506965 0.76475,-1.295997 0.76475,-2.369759 l 0,-0.253305 -1.74477,0 0,0.104394 c 0,0.597954 -0.11141,1.051525 -0.336,1.358225 -0.22414,0.304481 -0.55791,0.45792 -0.99999,0.45792 -0.54238,0 -0.91389,-0.20892 -1.11362,-0.624541 -0.20017,-0.418018 -0.30048,-1.522761 -0.30048,-3.31445 0,-1.416014 0.0959,-2.363012 0.28672,-2.840816 0.1913,-0.478018 0.53617,-0.715895 1.03595,-0.715895 0.49356,0 0.84686,0.168872 1.05814,0.506788 0.21127,0.340175 0.31557,0.913541 0.31557,1.720593 l 0,0.344516 -1.29604,0 0,1.602742 3.09452,0 0,-5.470645 -1.26275,0 z m 2.94139,0 0,10.02996 1.498,0 3.47889,-8.60288 -0.1043,8.60288 1.08033,0 0,-10.02996 -1.43186,0 -3.53216,8.858463 0.0914,-8.858463 -1.08033,0 z m 7.52237,3.18322 1.06702,0 0,-0.357831 c 0,-0.68242 0.15756,-1.195976 0.47092,-1.544989 0.31602,-0.346753 0.78251,-0.520134 1.39813,-0.520134 0.55614,0 0.99156,0.16679 1.30936,0.502451 0.31824,0.333407 0.4758,0.793569 0.4758,1.380249 0,0.469194 -0.0954,0.831553 -0.28894,1.085036 -0.19352,0.253305 -0.62894,0.509051 -1.30714,0.764576 -0.16245,0.06227 -0.38659,0.146692 -0.67776,0.253482 -0.81136,0.295471 -1.3027,0.517884 -1.47181,0.664577 -0.27785,0.248955 -0.48468,0.54234 -0.62227,0.882507 -0.13582,0.342252 -0.20462,0.7379 -0.20462,1.189207 0,0.873807 0.24012,1.556226 0.72259,2.047435 0.48246,0.493428 1.15356,0.74012 2.01153,0.74012 0.81624,0 1.45627,-0.226586 1.91876,-0.68242 0.46205,-0.455612 0.69329,-1.086899 0.69329,-1.889469 0,-0.02428 -0.002,-0.06884 -0.007,-0.126541 -0.004,-0.05792 -0.007,-0.100044 -0.007,-0.126764 l -1.02929,0 0,0.104394 c 0,0.562446 -0.13759,0.998129 -0.41322,1.30483 -0.27564,0.304614 -0.66489,0.457875 -1.16955,0.457875 -0.52019,0 -0.92898,-0.146648 -1.22902,-0.440033 -0.30004,-0.291254 -0.44918,-0.688988 -0.44918,-1.187121 0,-0.473321 0.10253,-0.840163 0.3067,-1.100259 0.2024,-0.260052 0.64714,-0.518062 1.33377,-0.769103 0.0826,-0.02894 0.20462,-0.07559 0.36485,-0.13573 1.0466,-0.386637 1.67154,-0.675672 1.87615,-0.866927 0.24634,-0.231113 0.43098,-0.511271 0.54904,-0.840164 0.11984,-0.331334 0.17976,-0.724762 0.17976,-1.184901 0,-0.951304 -0.26231,-1.691645 -0.78694,-2.222881 -0.52685,-0.528975 -1.25787,-0.793727 -2.19617,-0.793727 -0.93342,0 -1.63825,0.260069 -2.11628,0.782458 -0.47758,0.520312 -0.71548,1.287152 -0.71548,2.298641 0,0.03329 0.002,0.08895 0.006,0.164535 0.005,0.07545 0.007,0.131113 0.007,0.166621 z m 7.36436,-3.18322 0,10.02996 1.10696,0 0,-4.82598 3.62537,4.82598 1.29604,0 -3.11849,-4.050308 3.34751,-5.979652 -1.36261,0 -2.73412,5.001629 -1.0537,-1.373848 0,-3.627781 -1.10696,0 z m 7.40475,0 0,1.373853 1.18463,0 0,-1.373853 -1.18463,0 z m 2.85395,3.745667 c 0,1.34491 0.21571,2.343039 0.64713,2.991992 0.4332,0.649131 1.09365,0.973718 1.9849,0.973718 0.90235,0 1.56724,-0.322324 1.99378,-0.964663 0.4292,-0.642384 0.64269,-1.642777 0.64269,-3.001047 0,-1.360489 -0.21349,-2.358463 -0.63781,-2.994242 -0.42477,-0.63578 -1.09187,-0.953758 -1.99866,-0.953758 -0.91344,0 -1.57833,0.315723 -2.00087,0.947166 -0.41989,0.633356 -0.63116,1.631513 -0.63116,3.000834 z m 1.12028,-0.0023 c 0,-1.120365 0.11584,-1.909397 0.34487,-2.367295 0.23125,-0.458067 0.61784,-0.686929 1.16466,-0.686929 0.54017,0 0.92454,0.233372 1.15579,0.70028 0.23346,0.466739 0.34931,1.251466 0.34931,2.353944 0,1.113797 -0.11585,1.898524 -0.34931,2.356222 -0.23125,0.458097 -0.61562,0.686946 -1.15579,0.686946 -0.54238,0 -0.92898,-0.226629 -1.16022,-0.680155 -0.23347,-0.453393 -0.34931,-1.242602 -0.34931,-2.363013 z m 5.53303,-3.743403 0,7.495666 0.97159,0 0,-1.224715 c 0.15091,0.437947 0.37993,0.782463 0.68663,1.029155 0.30493,0.246736 0.65602,0.371236 1.05149,0.371236 0.11806,0 0.20683,-0.0023 0.26897,-0.0066 0.0644,-0.0044 0.12472,-0.01127 0.1802,-0.01993 l 0,-1.120366 c -0.0555,0.03102 -0.11762,0.05322 -0.1842,0.0688 -0.0692,0.01545 -0.14247,0.02219 -0.22725,0.02219 -0.53794,0 -0.95561,-0.177673 -1.25565,-0.533463 -0.30004,-0.355613 -0.44917,-0.853568 -0.44917,-1.491602 l 0,-4.590358 -1.04261,0 z m 4.78825,3.732307 c 0,-1.046997 0.10919,-1.798435 0.3289,-2.251823 0.22015,-0.453389 0.57611,-0.680169 1.07145,-0.680169 0.51575,0 0.88504,0.231117 1.10696,0.691265 0.22015,0.460312 0.33156,1.238292 0.33156,2.338552 0,1.031418 -0.11585,1.780592 -0.34931,2.245214 -0.2308,0.464667 -0.60453,0.698043 -1.11584,0.698043 -0.48246,0 -0.83133,-0.235773 -1.04882,-0.709139 -0.21571,-0.473632 -0.3249,-1.251612 -0.3249,-2.331943 z m -0.87793,-4.423568 1.0426,0 c 0.0178,-0.304454 0.13094,-0.53349 0.33777,-0.691438 0.20906,-0.155521 0.50466,-0.233367 0.8846,-0.233367 0.51353,0 0.88281,0.16679 1.10918,0.502455 0.22902,0.333407 0.34265,0.873652 0.34265,1.620399 0,0.02237 -0.002,0.07559 -0.007,0.16228 -0.004,0.08669 -0.007,0.16679 -0.007,0.235622 -0.15091,-0.337916 -0.36662,-0.593303 -0.64669,-0.764602 -0.28007,-0.171122 -0.62006,-0.257815 -1.02041,-0.257815 -0.7581,0 -1.32711,0.337743 -1.70261,1.013576 -0.3755,0.673578 -0.56236,1.700513 -0.56236,3.076625 0,1.229243 0.19574,2.151785 0.58899,2.771976 0.3937,0.617928 0.98047,0.926892 1.76075,0.926892 0.39547,0 0.73147,-0.09121 1.00932,-0.275675 0.27785,-0.184331 0.47314,-0.44456 0.58677,-0.77798 l 0,0.877979 1.01597,0 0,-7.15099 c 0,-0.920296 -0.22237,-1.629413 -0.66489,-2.129787 -0.44251,-0.500023 -1.06923,-0.748995 -1.88059,-0.748995 -0.64225,0 -1.16688,0.168871 -1.57611,0.504531 -0.40657,0.335835 -0.61118,0.766858 -0.61118,1.293756 l 0,0.04456"
         style="fill:#231f20;fill-opacity:1;fill-rule:nonzero;stroke:none"
         id="path56"
         inkscape:connector-curvature="0" />
    </g>
  </g>
</svg>
