<?xml version="1.0" encoding="UTF-8" standalone="no"?>
<!-- Created with Inkscape (http://www.inkscape.org/) -->

<svg
   xmlns:dc="http://purl.org/dc/elements/1.1/"
   xmlns:cc="http://creativecommons.org/ns#"
   xmlns:rdf="http://www.w3.org/1999/02/22-rdf-syntax-ns#"
   xmlns:svg="http://www.w3.org/2000/svg"
   xmlns="http://www.w3.org/2000/svg"
   xmlns:sodipodi="http://sodipodi.sourceforge.net/DTD/sodipodi-0.dtd"
   xmlns:inkscape="http://www.inkscape.org/namespaces/inkscape"
   width="250"
   height="250"
   viewBox="0 0 250 250"
   id="svg4767"
   version="1.1"
   inkscape:version="0.91 r13725"
   sodipodi:docname="octocat_250x250.svg">
  <defs
     id="defs4769" />
  <sodipodi:namedview
     id="base"
     pagecolor="#ffffff"
     bordercolor="#666666"
     borderopacity="1.0"
     inkscape:pageopacity="0.0"
     inkscape:pageshadow="2"
     inkscape:zoom="1.979899"
     inkscape:cx="92.934325"
     inkscape:cy="160.87802"
     inkscape:document-units="px"
     inkscape:current-layer="layer1"
     showgrid="false"
     units="px"
     inkscape:window-width="1920"
     inkscape:window-height="971"
     inkscape:window-x="0"
     inkscape:window-y="31"
     inkscape:window-maximized="1" />
  <metadata
     id="metadata4772">
    <rdf:RDF>
      <cc:Work
         rdf:about="">
        <dc:format>image/svg+xml</dc:format>
        <dc:type
           rdf:resource="http://purl.org/dc/dcmitype/StillImage" />
        <dc:title></dc:title>
      </cc:Work>
    </rdf:RDF>
  </metadata>
  <g
     inkscape:label="Layer 1"
     inkscape:groupmode="layer"
     id="layer1"
     transform="translate(0,-802.36216)">
    <g
       id="g4735"
       transform="matrix(3.5433071,0,0,3.5433071,134.62727,1121.1213)">
      <path
         sodipodi:nodetypes="sccaccccccscs"
         inkscape:connector-curvature="0"
         id="path6482"
         d="m -24.2861,-51.578512 c -0.0091,-0.428321 0.654483,-0.503789 1.18118,-0.543999 1.807424,0.107509 2.680664,0.941486 3.070617,1.23623 1.492836,1.390263 1.807315,2.797876 3.162913,3.680507 0.934034,0.60815 1.47361,0.957101 3.200811,0.967058 1.595504,-0.03118 2.520355,-0.43121 3.280825,-0.921655 l 1.2760355,1.145029 -1.4296045,2.475404 c -0.896042,0.203403 -1.876571,0.383803 -2.836868,0.383803 -2.58234,-0.175995 -3.407994,-0.703328 -4.244133,-1.228564 -2.222137,-1.63719 -2.407308,-3.45816 -3.775046,-4.924868 -0.465216,-0.498878 -0.860806,-0.812255 -1.965937,-1.35605 -0.495937,-0.341232 -0.913629,-0.573918 -0.920793,-0.912895 z"
         style="fill:#201f1f;fill-opacity:1;stroke:none;stroke-width:0.02645833;stroke-linecap:butt;stroke-linejoin:miter;stroke-miterlimit:4;stroke-dasharray:none;stroke-opacity:1" />
      <ellipse
         ry="6.4968843"
         rx="18.484428"
         cy="-33.015438"
         cx="-2.4439404"
         id="path5839"
         style="fill:#9cdaf0;fill-opacity:1;stroke:#cccccc;stroke-width:0.03163762;stroke-linecap:round;stroke-miterlimit:4;stroke-dasharray:none;stroke-opacity:1" />
      <path
         sodipodi:nodetypes="ccccccccccccccccccccccccsccccccccc"
         inkscape:connector-curvature="0"
         id="path6502"
         transform="scale(0.26458333,0.26458333)"
         d="m -46.539062,-130.7168 c -1.610053,-0.009 -2.876338,1.51204 -2.89122,2.74533 -0.01949,1.59969 1.088426,1.48558 1.973759,1.87246 4.017873,1.74336 7.303796,5.00082 7.606914,8.88221 l 0,14.47266 c 3.676919,0.63447 7.505471,1.15404 11.441406,1.55273 l 0,-16.44726 c -0.02627,-0.4171 -0.07891,-0.81103 -0.130859,-1.20508 0.338157,0.29317 0.701995,0.55481 1.060546,0.76367 1.763929,1.02753 2.904671,3.38098 2.814454,6.09766 l 0,11.12695 c 4.165947,0.3291 8.408964,0.52328 12.675781,0.58008 l 0,-8.56641 c -0.0016,-10.35531 -5.073411,-14.00917 -14.150427,-15.11079 -0.391445,1.01629 -1.367361,2.21857 -2.606425,2.11864 -2.300809,-5.39798 -8.800155,-8.40321 -17.098617,-8.84769 -0.233038,-0.0217 -0.465305,-0.0339 -0.695312,-0.0352 z m 71.65625,0.11914 c -7.490925,0.34393 -14.239507,3.18439 -16.6754003,8.91029 -2.7870958,-0.88225 -3.1673834,-3.73264 -3.5665437,-3.942 -5.67680505,0.46836 -12.3862433,7.13299 -13.359619,15.98679 l 0,9.4043 c 4.1663899,-0.0187 8.31966296,-0.1684 12.4101562,-0.44727 l 0,-8.28125 c 0,-1.69113 1.1449775,-8.05696 2.71875,-8.88281 0.4320406,-0.22671 0.8884333,-0.50911 1.2988282,-0.84961 -0.029307,0.22796 -0.071791,0.4439 -0.091797,0.67969 l 0,17.02344 c 3.9668696,-0.35524 7.8372306,-0.83234 11.5664066,-1.42579 l 0,-14.54101 c 0.436293,-2.22722 2.327187,-7.20831 6.998853,-9.08233 1.879153,-0.65733 2.122541,-1.09891 1.907184,-2.40689 -0.211669,-1.28562 -1.905259,-2.2053 -3.206818,-2.14555 z"
         style="fill:#7cbae6;fill-opacity:1;stroke:none;stroke-width:0.09999999;stroke-linecap:butt;stroke-linejoin:miter;stroke-miterlimit:4;stroke-dasharray:none;stroke-opacity:1" />
      <ellipse
         style="fill:#9cdaf0;fill-opacity:1;stroke:none;stroke-width:0.02998651;stroke-linecap:round;stroke-miterlimit:4;stroke-dasharray:none;stroke-opacity:1"
         id="ellipse6486"
         cx="-7.3289375"
         cy="-46.869495"
         rx="0.59114581"
         ry="0.35127622"
         transform="matrix(0.99637493,-0.08507055,0.07617318,0.9970946,0,0)" />
      <path
         sodipodi:nodetypes="ccsacccsccsssccsccsssccczccccscccsc"
         inkscape:connector-curvature="0"
         id="path6472"
         d="m -6.5255905,-45.888836 0,11.790957 c 0.02387,0.718788 -0.278015,1.341359 -0.744721,1.613225 -0.341054,0.198672 -0.714388,0.564303 -0.637179,0.932874 0.06836,0.326346 0.403613,0.550629 0.848266,0.530118 2.401627,-0.29147 3.583649,-1.513055 3.887291,-3.378157 l 0,-12.497855 c 0,-0.13015 0.243112,-0.354609 0.466297,-0.354609 0.215632,0 0.460713,0.243593 0.460713,0.365777 l 0,12.698896 c 0.216361,1.968014 2.19667498,3.001304 3.698663,3.125223 0.42549,0.0351 1.010007,-0.1993 1.001358,-0.614845 -0.0089,-0.425576 -0.378963,-0.701519 -0.696858,-0.868336 -0.416394,-0.218506 -0.719543,-1.373298 -0.719543,-1.820744 l 0,-11.365576 c 0,-0.520852 -0.01015,-0.703803 0.243211,-0.450444 0.258539,0.258539 0.795485,1.371593 0.795485,2.516668 l 0,6.931572 c 0.199088,2.346518 2.156348,3.217568 4.568026,3.328294 0.344371,0.01581 0.879382,-0.101011 0.935386,-0.441165 0.05698,-0.34607 -0.354973,-0.629191 -0.631035,-0.739932 -1.236045,-0.495832 -1.696699,-1.837129 -1.812135,-2.426415 l 0,-9.281249 c -0.239437,-2.474562 -1.358431,-3.616461 -2.564934,-4.625772 0,0 -1.66768802,-0.844801 -5.275546,-0.83576 -3.607858,0.009 -5.177856,0.846801 -5.177856,0.846801 -2.3835695,1.464117 -2.6457655,4.405858 -2.6626215,4.737587 l 0,9.225404 c -0.0802,1.026951 -0.649824,1.841537 -1.712886,2.302802 -0.455375,0.165541 -0.87485,0.388117 -0.869693,0.811369 0.0045,0.372924 0.503351,0.494552 0.996615,0.448669 2.7657495,-0.148139 4.4647405,-1.10169 4.6127025,-3.451151 l 0,-6.902302 c 0,-1.116206 0.351526,-1.861035 0.772234,-2.500189 0.294317,-0.447139 0.21876,0.190474 0.21876,0.348265 z"
         style="fill:#201f1f;fill-opacity:1;stroke:none;stroke-width:0.02645833;stroke-linecap:butt;stroke-linejoin:miter;stroke-miterlimit:4;stroke-dasharray:none;stroke-opacity:1" />
      <path
         sodipodi:nodetypes="ccccccc"
         inkscape:connector-curvature="0"
         id="path6510"
         d="m -2.7026801,-51.756013 c -3.6078607,0.009 -5.1779807,0.846976 -5.1779807,0.846976 -0.671308,0.412356 -1.169477,0.942647 -1.546159,1.4981 1.313606,-0.835914 4.0838418,-0.845836 6.7349897,-0.858345 2.48441873,0.005 6.5316387,-0.235829 7.8294964,3.974952 -0.239437,-2.474564 -1.3587137,-3.616765 -2.5652167,-4.626076 0,0 -1.66727497,-0.844648 -5.2751297,-0.835607 z"
         style="fill:#000000;fill-opacity:1;stroke:none;stroke-width:0.02645833;stroke-linecap:butt;stroke-linejoin:miter;stroke-miterlimit:4;stroke-dasharray:none;stroke-opacity:1" />
      <path
         sodipodi:nodetypes="cccccccccccc"
         inkscape:connector-curvature="0"
         id="path5835"
         d="m -19.143276,-82.849953 c 3.289747,0.107207 5.947139,1.637212 8.532942,3.328294 3.5751435,-0.74669 6.6266315,-1.751974 14.8544675,-0.201038 2.190569,-1.422901 4.129895,-3.034235 8.1532035,-3.082581 1.579271,4.223085 0.817079,6.381983 0.536099,7.706455 2.315699,2.155537 3.705277,5.121431 3.641021,9.359429 0.02681,4.378984 -0.740854,8.368834 -3.618682,11.325137 -3.1845495,2.965312 -8.7802645,3.655939 -15.1001805,3.663358 -6.19273,0.183778 -11.1852125,-0.645986 -14.6981045,-2.725182 -4.871289,-3.254575 -5.754206,-7.789369 -5.852438,-12.576037 -0.05405,-2.898083 0.803547,-5.753764 3.305959,-8.532942 -0.381855,-1.555929 -1.471932,-2.51886 0.245713,-8.264893 z"
         style="fill:#201f1f;fill-opacity:1;stroke:#000000;stroke-width:0.02645833;stroke-linecap:butt;stroke-linejoin:miter;stroke-miterlimit:4;stroke-dasharray:none;stroke-opacity:1" />
      <path
         sodipodi:nodetypes="zszszzssz"
         inkscape:connector-curvature="0"
         id="path5833"
         d="m -2.5768325,-52.167392 c 6.374428,0.02177 9.794436,-0.339393 12.50583,-2.927236 0.5057755,-0.482729 1.9624165,-2.591689 1.9624165,-5.981161 0,-3.389472 -2.4561505,-5.671174 -3.9803465,-6.286422 -2.916676,-1.177328 -5.135776,-0.232301 -10.695945,-0.232301 -5.56017,0 -9.5486885,-1.030829 -11.8766045,0.715733 -2.327916,1.746561 -3.015401,3.811584 -3.015401,6.18207 0,0.964546 0.325969,4.477045 3.111622,6.22324 2.846112,1.784093 5.6140005,2.284307 11.9884285,2.306077 z"
         style="fill:#c49b86;fill-opacity:1;stroke:none;stroke-width:0.05291667;stroke-linecap:butt;stroke-linejoin:miter;stroke-miterlimit:4;stroke-dasharray:none;stroke-opacity:1" />
      <path
         style="fill:#f4cab1;fill-opacity:1;stroke:none;stroke-width:0.05291667;stroke-linecap:butt;stroke-linejoin:miter;stroke-miterlimit:4;stroke-dasharray:none;stroke-opacity:1"
         d="m -2.5768325,-52.167392 c 6.518018,0.02226 10.02794,-0.42563 12.50583,-2.927236 0.4105445,-0.414475 1.9624165,-2.865929 1.9624165,-5.451994 0,-2.586065 -1.9773045,-5.373269 -3.9803465,-6.286422 -1.938557,-0.883756 -6.845197,0.0063 -10.740621,-0.02009 -3.895425,-0.02637 -9.3296045,-1.1467 -11.5303715,0.335994 -2.200767,1.482694 -3.316958,3.813268 -3.316958,6.349602 0,0.964546 0.593277,4.122078 3.27747,5.804672 2.522689,1.581354 5.3045625,2.173219 11.8225805,2.195478 z"
         id="path5837"
         inkscape:connector-curvature="0"
         sodipodi:nodetypes="cszszzsszc" />
      <ellipse
         ry="4.4888735"
         rx="3.1656723"
         cy="-60.803085"
         cx="5.6217828"
         id="ellipse2123"
         style="fill:#ffffff;fill-opacity:1;stroke:none;stroke-width:0.02627397;stroke-miterlimit:4;stroke-dasharray:none;stroke-opacity:1" />
      <ellipse
         style="fill:#ffffff;fill-opacity:1;stroke:none;stroke-width:0.67660993;stroke-miterlimit:4;stroke-dasharray:none;stroke-opacity:1"
         id="ellipse2121"
         cx="-10.940335"
         cy="-60.803085"
         rx="3.1878855"
         ry="4.5203714" />
      <ellipse
         ry="2.9328718"
         rx="2.0683386"
         cy="-60.803085"
         cx="-10.632295"
         id="path2408"
         style="fill:#ac5c51;fill-opacity:1;stroke:none;stroke-width:0.43899271;stroke-miterlimit:4;stroke-dasharray:none;stroke-opacity:1" />
      <circle
         r="0.521236"
         cy="-62.13406"
         cx="-11.437844"
         id="path2412"
         style="fill:#ffffff;fill-opacity:1;stroke:none;stroke-width:0.26499999;stroke-miterlimit:4;stroke-dasharray:none;stroke-opacity:1" />
      <ellipse
         style="fill:#ac5c51;fill-opacity:1;stroke:none;stroke-width:0.43899271;stroke-miterlimit:4;stroke-dasharray:none;stroke-opacity:1"
         id="ellipse2117"
         cx="5.2575059"
         cy="-60.803085"
         rx="2.0683386"
         ry="2.9328718" />
      <circle
         style="fill:#ffffff;fill-opacity:1;stroke:none;stroke-width:0.26499999;stroke-miterlimit:4;stroke-dasharray:none;stroke-opacity:1"
         id="circle2119"
         cx="4.4835458"
         cy="-62.13406"
         r="0.521236" />
      <circle
         style="fill:#ac5c51;fill-opacity:1;stroke:none;stroke-width:0.39951599;stroke-miterlimit:4;stroke-dasharray:none;stroke-opacity:1"
         id="circle2125"
         cx="-2.8453496"
         cy="-56.9217"
         r="0.78581935" />
      <path
         sodipodi:nodetypes="csc"
         inkscape:connector-curvature="0"
         id="path2127"
         d="m -4.5038275,-55.20004 c 0,0 0.523054,1.295193 1.626889,1.295192 1.198605,0 1.626888,-1.295192 1.626888,-1.295192"
         style="fill:none;fill-opacity:1;stroke:#ac5c51;stroke-width:0.42333332;stroke-linecap:round;stroke-linejoin:miter;stroke-miterlimit:4;stroke-dasharray:none;stroke-opacity:1" />
      <path
         sodipodi:nodetypes="cc"
         inkscape:connector-curvature="0"
         id="path6474"
         d="m -35.651625,-58.359046 c 5.571473,-1.00129 9.987453,-1.103863 14.052873,-0.933778"
         style="fill:none;stroke:#000000;stroke-width:0.26458332px;stroke-linecap:butt;stroke-linejoin:miter;stroke-opacity:1" />
      <path
         sodipodi:nodetypes="cc"
         inkscape:connector-curvature="0"
         id="path6476"
         d="m -35.556855,-55.768661 c 4.396288,-1.071221 8.920008,-2.039871 14.641503,-2.04443"
         style="fill:none;stroke:#000000;stroke-width:0.26458332px;stroke-linecap:butt;stroke-linejoin:miter;stroke-opacity:1" />
      <path
         sodipodi:nodetypes="cc"
         inkscape:connector-curvature="0"
         id="path6478"
         d="m 15.774987,-59.275772 c 5.648038,-0.174455 10.475402,0.143494 14.438662,0.979906"
         style="fill:none;stroke:#000000;stroke-width:0.26458332px;stroke-linecap:butt;stroke-linejoin:miter;stroke-opacity:1" />
      <path
         sodipodi:nodetypes="cc"
         inkscape:connector-curvature="0"
         id="path6480"
         d="m 30.087286,-55.768661 c -4.817393,-1.308203 -9.786243,-1.909612 -14.856123,-2.039541"
         style="fill:none;stroke:#000000;stroke-width:0.26458332px;stroke-linecap:butt;stroke-linejoin:miter;stroke-opacity:1" />
      <ellipse
         transform="matrix(0.97837825,0.2068236,-0.17092775,0.98528357,0,0)"
         ry="0.36550647"
         rx="0.59279728"
         cy="-41.644566"
         cx="-22.406891"
         id="path6484"
         style="fill:#9cdaf0;fill-opacity:1;stroke:none;stroke-width:0.03063056;stroke-linecap:round;stroke-miterlimit:4;stroke-dasharray:none;stroke-opacity:1" />
      <ellipse
         style="fill:#9cdaf0;fill-opacity:1;stroke:none;stroke-width:0.03106443;stroke-linecap:round;stroke-miterlimit:4;stroke-dasharray:none;stroke-opacity:1"
         id="ellipse6488"
         cx="-12.121126"
         cy="-45.864059"
         rx="0.59047818"
         ry="0.37741107"
         transform="matrix(0.99982257,-0.01883682,0.01458813,0.99989359,0,0)" />
      <ellipse
         style="fill:#9cdaf0;fill-opacity:1;stroke:none;stroke-width:0.02881585;stroke-linecap:round;stroke-miterlimit:4;stroke-dasharray:none;stroke-opacity:1"
         id="ellipse6490"
         cx="-34.556591"
         cy="-33.711967"
         rx="0.55767679"
         ry="0.34385192"
         transform="matrix(0.89151093,0.45299918,-0.42011368,0.90747149,0,0)" />
      <ellipse
         transform="matrix(0.6597146,0.75151623,-0.72690296,0.68674019,0,0)"
         ry="0.34385192"
         rx="0.55767679"
         cy="-17.76894"
         cx="-47.009655"
         id="ellipse6492"
         style="fill:#9cdaf0;fill-opacity:1;stroke:none;stroke-width:0.02881585;stroke-linecap:round;stroke-miterlimit:4;stroke-dasharray:none;stroke-opacity:1" />
      <ellipse
         style="fill:#9cdaf0;fill-opacity:1;stroke:none;stroke-width:0.02814967;stroke-linecap:round;stroke-miterlimit:4;stroke-dasharray:none;stroke-opacity:1"
         id="ellipse6494"
         cx="-50.136303"
         cy="-14.377282"
         rx="0.54478425"
         ry="0.33590266"
         transform="matrix(0.60613801,0.79535948,-0.77267504,0.63480177,0,0)" />
      <ellipse
         transform="matrix(0.76565024,0.64325712,-0.61484445,0.7886484,0,0)"
         ry="0.28309572"
         rx="0.45913923"
         cy="-25.402206"
         cx="-47.024956"
         id="ellipse6496"
         style="fill:#9cdaf0;fill-opacity:1;stroke:none;stroke-width:0.02372428;stroke-linecap:round;stroke-miterlimit:4;stroke-dasharray:none;stroke-opacity:1" />
      <ellipse
         style="fill:#9cdaf0;fill-opacity:1;stroke:none;stroke-width:0.01892933;stroke-linecap:round;stroke-miterlimit:4;stroke-dasharray:none;stroke-opacity:1"
         id="ellipse6498"
         cx="-39.774925"
         cy="-37.211773"
         rx="0.36634219"
         ry="0.22587901"
         transform="matrix(0.90572446,0.42386696,-0.39048146,0.92061079,0,0)" />
      <path
         sodipodi:nodetypes="csasc"
         inkscape:connector-curvature="0"
         id="path6500"
         d="m -23.592121,-50.572095 c 0.366962,1.276956 0.526411,1.528167 0.537032,2.116534 0.0043,0.240089 -0.295658,0.526181 -0.548877,0.525184 -0.262491,-10e-4 -0.564674,-0.278966 -0.564674,-0.548879 0,-0.392775 0.220643,-1.166793 0.576519,-2.092839 z"
         style="fill:#9cdaf0;fill-opacity:1;stroke:none;stroke-width:0.02645833;stroke-linecap:butt;stroke-linejoin:miter;stroke-miterlimit:4;stroke-dasharray:none;stroke-opacity:1" />
      <path
         sodipodi:nodetypes="cccccc"
         inkscape:connector-curvature="0"
         id="path6515"
         d="m -10.39016,-47.132218 -0.234542,0.122856 c -0.140176,0.610332 -0.231703,1.240125 -0.223377,1.909858 -0.01317,0.540225 -0.03609,1.082399 0.02233,1.608304 l 0.301557,-0.05584 c -0.0081,-1.168554 -0.05668,-2.274645 0.134032,-3.585182 z"
         style="fill:#000000;fill-opacity:1;stroke:none;stroke-width:0.1;stroke-linecap:butt;stroke-linejoin:miter;stroke-miterlimit:4;stroke-dasharray:none;stroke-opacity:1" />
    </g>
  </g>
</svg>
