<?xml version="1.0" encoding="UTF-8" standalone="no"?>
<!-- Created with Inkscape (http://www.inkscape.org/) -->

<svg
   xmlns:dc="http://purl.org/dc/elements/1.1/"
   xmlns:cc="http://creativecommons.org/ns#"
   xmlns:rdf="http://www.w3.org/1999/02/22-rdf-syntax-ns#"
   xmlns:svg="http://www.w3.org/2000/svg"
   xmlns="http://www.w3.org/2000/svg"
   xmlns:sodipodi="http://sodipodi.sourceforge.net/DTD/sodipodi-0.dtd"
   xmlns:inkscape="http://www.inkscape.org/namespaces/inkscape"
   width="450"
   height="150"
   viewBox="0 0 450 150"
   id="svg5051"
   version="1.1"
   inkscape:version="0.91 r13725"
   sodipodi:docname="techsup_ctrl_alt_del.svg">
  <defs
     id="defs5053" />
  <sodipodi:namedview
     id="base"
     pagecolor="#ffffff"
     bordercolor="#666666"
     borderopacity="1.0"
     inkscape:pageopacity="0.0"
     inkscape:pageshadow="2"
     inkscape:zoom="1.979899"
     inkscape:cx="199.47674"
     inkscape:cy="175.5243"
     inkscape:document-units="px"
     inkscape:current-layer="layer1"
     showgrid="false"
     units="px"
     inkscape:window-width="1920"
     inkscape:window-height="971"
     inkscape:window-x="0"
     inkscape:window-y="31"
     inkscape:window-maximized="1" />
  <metadata
     id="metadata5056">
    <rdf:RDF>
      <cc:Work
         rdf:about="">
        <dc:format>image/svg+xml</dc:format>
        <dc:type
           rdf:resource="http://purl.org/dc/dcmitype/StillImage" />
        <dc:title></dc:title>
      </cc:Work>
    </rdf:RDF>
  </metadata>
  <g
     inkscape:label="Layer 1"
     inkscape:groupmode="layer"
     id="layer1"
     transform="translate(0,-902.36216)">
    <g
       transform="matrix(3.5433071,0,0,3.5433071,-106.12754,1202.907)"
       id="g5021">
      <path
         inkscape:connector-curvature="0"
         id="rect2111"
         d="m 39.900724,-63.03684 106.734706,0 0,16.76642 -106.734706,0 z"
         style="fill:#000000;fill-opacity:1;stroke:#999999;stroke-width:0.23377955;stroke-miterlimit:4;stroke-dasharray:none;stroke-opacity:1" />
      <path
         inkscape:connector-curvature="0"
         id="rect6812"
         d="m 36.821249,-83.72983 113.260601,0 0,40.15211 -113.260601,0 z"
         style="fill:none;fill-opacity:0.98785424;stroke:#999999;stroke-width:0.26458332;stroke-opacity:1" />
      <path
         d="m 52.632023,-80.65914 5.820199,0 0,1.99836 -1.548722,0 0,14.63792 -2.697775,0 0,-14.61295 -1.573702,0 z"
         style="font-style:normal;font-variant:normal;font-weight:normal;font-stretch:normal;font-size:medium;line-height:1.25;font-family:PermanentHeadline;-inkscape-font-specification:PermanentHeadline;letter-spacing:0px;word-spacing:0px;fill:#ff0000;fill-opacity:1;stroke:none;stroke-width:0.62448484"
         id="path2156"
         inkscape:connector-curvature="0" />
      <path
         d="m 59.13135,-80.65914 5.195714,0 0,2.04831 -2.398022,0 0,4.94592 2.398022,0 0,2.07329 -2.398022,0 0,5.49547 2.398022,0 0,2.07329 -5.195714,0 z"
         style="font-style:normal;font-variant:normal;font-weight:normal;font-stretch:normal;font-size:medium;line-height:1.25;font-family:PermanentHeadline;-inkscape-font-specification:PermanentHeadline;letter-spacing:0px;word-spacing:0px;fill:#ff0000;fill-opacity:1;stroke:none;stroke-width:0.62448484"
         id="path2158"
         inkscape:connector-curvature="0" />
      <path
         d="m 68.902977,-75.01379 0,-2.92259 q 0,-0.49959 -0.124897,-0.69943 -0.09992,-0.19983 -0.374691,-0.19983 -0.274773,0 -0.374691,0.17486 -0.09992,0.17485 -0.09992,0.64946 l 0.02498,11.54048 q 0,0.62448 0.424649,0.62448 0.524568,0 0.524568,-0.94921 l 0,-3.82185 2.697774,0 0,3.77189 q 0,1.64864 -0.699423,2.32308 -0.699423,0.64947 -2.373042,0.64947 -1.848475,0 -2.622837,-0.62449 -0.774361,-0.64946 -0.774361,-2.22316 l 0,-10.84106 q 0,-1.8235 0.699423,-2.57288 0.699423,-0.74938 2.423002,-0.74938 1.848475,0 2.622836,0.62448 0.774361,0.62449 0.774361,2.12325 l 0,3.12243 z"
         style="font-style:normal;font-variant:normal;font-weight:normal;font-stretch:normal;font-size:medium;line-height:1.25;font-family:PermanentHeadline;-inkscape-font-specification:PermanentHeadline;letter-spacing:0px;word-spacing:0px;fill:#ff0000;fill-opacity:1;stroke:none;stroke-width:0.62448484"
         id="path2160"
         inkscape:connector-curvature="0" />
      <path
         d="m 72.69438,-80.65914 2.597857,0 0,6.99423 0.974197,0 0,-6.99423 2.622836,0 0,16.63628 -2.597857,0 0,-7.64369 -0.974196,0 0,7.64369 -2.622837,0 z"
         style="font-style:normal;font-variant:normal;font-weight:normal;font-stretch:normal;font-size:medium;line-height:1.25;font-family:PermanentHeadline;-inkscape-font-specification:PermanentHeadline;letter-spacing:0px;word-spacing:0px;fill:#ff0000;fill-opacity:1;stroke:none;stroke-width:0.62448484"
         id="path2162"
         inkscape:connector-curvature="0" />
      <path
         d="m 85.753139,-70.6424 0,4.1216 q 0,0.69942 0.42465,0.69942 0.274773,0 0.374691,-0.19983 0.124897,-0.19984 0.124897,-0.74938 l 0,-2.89761 q 0,-0.37469 -0.02498,-0.59951 -0.02498,-0.24979 -0.149876,-0.44963 -0.09992,-0.19983 -0.299753,-0.37469 -0.199835,-0.17485 -0.524567,-0.44963 -0.8493,-0.67444 -1.373867,-1.12407 -0.499588,-0.44963 -0.774361,-0.8493 -0.274773,-0.39967 -0.374691,-0.77436 -0.07494,-0.39967 -0.07494,-0.94922 l 0,-3.49711 q 0,-1.19901 0.699423,-1.6986 0.699423,-0.49959 2.373042,-0.49959 3.147404,0 3.147404,2.423 l 0,3.42218 -2.622836,0.025 0,-2.47296 q 0,-0.87428 -0.09992,-1.0991 -0.07494,-0.24979 -0.39967,-0.24979 -0.249794,0 -0.349712,0.17486 -0.07494,0.14987 -0.07494,0.57452 l 0,2.39802 q 0,0.49959 0.09992,0.72441 0.09992,0.22481 0.499587,0.57452 l 1.27395,1.12408 q 0.674443,0.64946 0.899258,0.82432 0.249794,0.19983 0.39967,0.39967 0.149877,0.19983 0.249794,0.39967 0.124897,0.29975 0.124897,0.77436 l 0,5.04584 q 0,1.07411 -0.849299,1.5737 -0.8493,0.47461 -2.672796,0.47461 -2.697774,0 -2.697774,-2.24815 l 0,-4.57123 z"
         style="font-style:normal;font-variant:normal;font-weight:normal;font-stretch:normal;font-size:medium;line-height:1.25;font-family:PermanentHeadline;-inkscape-font-specification:PermanentHeadline;letter-spacing:0px;word-spacing:0px;fill:#ff0000;fill-opacity:1;stroke:none;stroke-width:0.62448484"
         id="path2164"
         inkscape:connector-curvature="0" />
      <path
         d="m 92.758298,-80.65914 0,14.08838 q 0,0.67445 0.449629,0.67445 0.274773,0 0.374691,-0.14988 0.124897,-0.17486 0.124897,-0.59951 l 0,-14.01344 2.622836,0 0,14.23826 q 0,1.42382 -0.699423,1.99835 -0.699423,0.57453 -2.373042,0.57453 -1.723578,0 -2.447981,-0.62449 -0.699423,-0.62448 -0.699423,-2.17321 l 0,-14.01344 z"
         style="font-style:normal;font-variant:normal;font-weight:normal;font-stretch:normal;font-size:medium;line-height:1.25;font-family:PermanentHeadline;-inkscape-font-specification:PermanentHeadline;letter-spacing:0px;word-spacing:0px;fill:#ff0000;fill-opacity:1;stroke:none;stroke-width:0.62448484"
         id="path2166"
         inkscape:connector-curvature="0" />
      <path
         d="m 97.381049,-80.65914 2.697771,0 q 0.57453,0 0.94922,0.025 0.39967,0 0.67444,0.05 0.29976,0.05 0.52457,0.14988 0.22482,0.0749 0.44963,0.19983 0.64946,0.37469 0.92424,0.9742 0.27477,0.57453 0.27477,1.67362 l 0,4.57123 q 0,1.5737 -0.77436,2.24814 -0.74938,0.67445 -2.47296,0.67445 l -0.025,0 -0.44963,0 0,6.06999 -2.772712,0 z m 2.697771,8.493 q 0.025,0.0749 0.05,0.0749 0.025,0 0.0749,0.05 0.0999,0.0749 0.2498,0.0749 0.64946,0 0.64946,-0.92423 l 0,-4.89597 q 0,-0.57452 -0.14988,-0.79934 -0.12489,-0.24979 -0.49958,-0.24979 -0.37469,0 -0.37469,0.14988 z"
         style="font-style:normal;font-variant:normal;font-weight:normal;font-stretch:normal;font-size:medium;line-height:1.25;font-family:PermanentHeadline;-inkscape-font-specification:PermanentHeadline;letter-spacing:0px;word-spacing:0px;fill:#ff0000;fill-opacity:1;stroke:none;stroke-width:0.62448484"
         id="path2168"
         inkscape:connector-curvature="0" />
      <path
         d="m 104.74802,-80.65914 2.69777,0 q 0.57453,0 0.94922,0.025 0.39967,0 0.67444,0.05 0.29976,0.05 0.52457,0.14988 0.22482,0.0749 0.44963,0.19983 0.64947,0.37469 0.92424,0.9742 0.27477,0.57453 0.27477,1.67362 l 0,4.57123 q 0,1.5737 -0.77436,2.24814 -0.74938,0.67445 -2.47296,0.67445 l -0.025,0 -0.44963,0 0,6.06999 -2.77271,0 z m 2.69777,8.493 q 0.025,0.0749 0.05,0.0749 0.025,0 0.0749,0.05 0.0999,0.0749 0.2498,0.0749 0.64946,0 0.64946,-0.92423 l 0,-4.89597 q 0,-0.57452 -0.14988,-0.79934 -0.12489,-0.24979 -0.49958,-0.24979 -0.37469,0 -0.37469,0.14988 z"
         style="font-style:normal;font-variant:normal;font-weight:normal;font-stretch:normal;font-size:medium;line-height:1.25;font-family:PermanentHeadline;-inkscape-font-specification:PermanentHeadline;letter-spacing:0px;word-spacing:0px;fill:#ff0000;fill-opacity:1;stroke:none;stroke-width:0.62448484"
         id="path2170"
         inkscape:connector-curvature="0" />
      <path
         d="m 112.06503,-78.06128 q 0,-1.49876 0.64946,-2.14823 0.64947,-0.64946 2.12325,-0.64946 1.87346,0 2.64782,0.69942 0.79934,0.69942 0.79934,2.34806 l 0,11.01592 q 0,1.52374 -0.67444,2.22316 -0.64947,0.67445 -2.09827,0.67445 -1.79852,0 -2.62284,-0.59951 -0.82432,-0.5995 -0.82432,-1.92341 z m 2.5479,11.16579 q 0,0.99918 0.57452,0.99918 0.44963,0 0.44963,-0.64947 l -0.025,-11.5155 q 0,-0.79934 -0.49958,-0.79934 -0.49959,0 -0.49959,0.79934 z"
         style="font-style:normal;font-variant:normal;font-weight:normal;font-stretch:normal;font-size:medium;line-height:1.25;font-family:PermanentHeadline;-inkscape-font-specification:PermanentHeadline;letter-spacing:0px;word-spacing:0px;fill:#ff0000;fill-opacity:1;stroke:none;stroke-width:0.62448484"
         id="path2172"
         inkscape:connector-curvature="0" />
      <path
         d="m 121.95843,-80.65914 q 1.12408,0 1.84848,0.1249 0.74938,0.1249 1.17403,0.42465 0.44963,0.29975 0.62448,0.82432 0.19984,0.49959 0.19984,1.27395 l 0,2.84765 q 0,0.57453 -0.0749,0.9742 -0.05,0.39967 -0.22482,0.69942 -0.14987,0.27477 -0.44962,0.49959 -0.27478,0.22481 -0.72441,0.47461 0.47461,0.14987 0.74938,0.32473 0.29976,0.14987 0.44963,0.39967 0.17486,0.24979 0.22482,0.62448 0.05,0.37469 0.05,0.9742 l 0,4.92094 q 0,0.47461 0.05,0.69942 0.05,0.19984 0.32473,0.54955 l -2.79769,0 q -0.1249,-0.22481 -0.19984,-0.39967 -0.05,-0.17486 -0.0749,-0.34971 -0.025,-0.19984 -0.05,-0.47461 0,-0.27477 0,-0.69942 l 0,-4.82103 q 0,-0.89925 -0.52456,-0.89925 -0.42465,0 -0.42465,0.32473 l 0,7.34394 -2.77272,0 0,-16.66126 z m 0.0999,7.14411 q 0.1249,0.025 0.22482,0.025 0.0999,0 0.19983,0 0.54955,0 0.54955,-0.57453 l 0,-4.14658 q 0,-0.27477 -0.19984,-0.44962 -0.17485,-0.17486 -0.44963,-0.17486 -0.19983,0 -0.27477,0.0999 -0.05,0.0749 -0.05,0.34971 z"
         style="font-style:normal;font-variant:normal;font-weight:normal;font-stretch:normal;font-size:medium;line-height:1.25;font-family:PermanentHeadline;-inkscape-font-specification:PermanentHeadline;letter-spacing:0px;word-spacing:0px;fill:#ff0000;fill-opacity:1;stroke:none;stroke-width:0.62448484"
         id="path2174"
         inkscape:connector-curvature="0" />
      <path
         d="m 126.35051,-80.65914 5.8202,0 0,1.99836 -1.54872,0 0,14.63792 -2.69777,0 0,-14.61295 -1.57371,0 z"
         style="font-style:normal;font-variant:normal;font-weight:normal;font-stretch:normal;font-size:medium;line-height:1.25;font-family:PermanentHeadline;-inkscape-font-specification:PermanentHeadline;letter-spacing:0px;word-spacing:0px;fill:#ff0000;fill-opacity:1;stroke:none;stroke-width:0.62448484"
         id="path2176"
         inkscape:connector-curvature="0" />
      <path
         d="m 49.159689,-56.98634 0,-2.4765 q 0,-0.42333 -0.105834,-0.59267 -0.08467,-0.16933 -0.3175,-0.16933 -0.232833,0 -0.3175,0.14817 -0.08467,0.14816 -0.08467,0.55033 l 0.02117,9.779 q 0,0.52917 0.359834,0.52917 0.4445,0 0.4445,-0.80434 l 0,-3.2385 2.286,0 0,3.19617 q 0,1.397 -0.592667,1.9685 -0.592667,0.55033 -2.010833,0.55033 -1.566334,0 -2.2225,-0.52916 -0.656167,-0.55034 -0.656167,-1.88384 l 0,-9.18633 q 0,-1.54517 0.592667,-2.18017 0.592666,-0.635 2.053166,-0.635 1.566334,0 2.2225,0.52917 0.656167,0.52917 0.656167,1.79917 l 0,2.64583 z"
         style="font-style:normal;font-variant:normal;font-weight:normal;font-stretch:normal;font-size:21.16666603px;line-height:1.25;font-family:PermanentHeadline;-inkscape-font-specification:PermanentHeadline;letter-spacing:0px;word-spacing:0px;fill:#ffffff;fill-opacity:1;stroke:none;stroke-width:0.52635115"
         id="path2147"
         inkscape:connector-curvature="0" />
      <path
         d="m 51.991392,-61.77001 4.931833,0 0,1.69334 -1.312334,0 0,12.40366 -2.285999,0 0,-12.3825 -1.3335,0 z"
         style="font-style:normal;font-variant:normal;font-weight:normal;font-stretch:normal;font-size:21.16666603px;line-height:1.25;font-family:PermanentHeadline;-inkscape-font-specification:PermanentHeadline;letter-spacing:0px;word-spacing:0px;fill:#ffffff;fill-opacity:1;stroke:none;stroke-width:0.52635115"
         id="path2149"
         inkscape:connector-curvature="0" />
      <path
         d="m 59.721193,-61.77001 q 0.9525,0 1.566334,0.10584 0.635,0.10583 0.994833,0.35983 0.381,0.254 0.529167,0.6985 0.169333,0.42333 0.169333,1.0795 l 0,2.413 q 0,0.48683 -0.0635,0.8255 -0.04233,0.33867 -0.1905,0.59267 -0.127,0.23283 -0.381,0.42333 -0.232833,0.1905 -0.613833,0.40217 0.402166,0.127 0.635,0.27516 0.254,0.127 0.381,0.33867 0.148166,0.21167 0.1905,0.52917 0.04233,0.3175 0.04233,0.8255 l 0,4.16983 q 0,0.40217 0.04233,0.59267 0.04233,0.16933 0.275167,0.46566 l -2.370667,0 q -0.105833,-0.1905 -0.169333,-0.33866 -0.04233,-0.14817 -0.0635,-0.29634 -0.02117,-0.16933 -0.04233,-0.40216 0,-0.23284 0,-0.59267 l 0,-4.08517 q 0,-0.762 -0.4445,-0.762 -0.359834,0 -0.359834,0.27517 l 0,6.223 -2.3495,0 0,-14.11817 z m 0.08467,6.05367 q 0.105833,0.0212 0.1905,0.0212 0.08467,0 0.169333,0 0.465667,0 0.465667,-0.48684 l 0,-3.51366 q 0,-0.23284 -0.169333,-0.381 -0.148167,-0.14817 -0.381,-0.14817 -0.169334,0 -0.232834,0.0847 -0.04233,0.0635 -0.04233,0.29633 z"
         style="font-style:normal;font-variant:normal;font-weight:normal;font-stretch:normal;font-size:21.16666603px;line-height:1.25;font-family:PermanentHeadline;-inkscape-font-specification:PermanentHeadline;letter-spacing:0px;word-spacing:0px;fill:#ffffff;fill-opacity:1;stroke:none;stroke-width:0.52635115"
         id="path2151"
         inkscape:connector-curvature="0" />
      <path
         d="m 63.823889,-61.77001 2.370666,0 0,12.40367 1.756834,0 0,1.69333 -4.1275,0 z"
         style="font-style:normal;font-variant:normal;font-weight:normal;font-stretch:normal;font-size:21.16666603px;line-height:1.25;font-family:PermanentHeadline;-inkscape-font-specification:PermanentHeadline;letter-spacing:0px;word-spacing:0px;fill:#ffffff;fill-opacity:1;stroke:none;stroke-width:0.52635115"
         id="path2153"
         inkscape:connector-curvature="0" />
      <path
         d="m 73.960308,-55.04409 1.744998,0 0,1.62168 -1.744998,0 0,2.50959 -1.652508,0 0,-2.50959 -1.775828,0 0,-1.62168 1.775828,0 0,-2.40477 1.652508,0 z"
         style="font-style:normal;font-variant:normal;font-weight:bold;font-stretch:normal;font-size:medium;line-height:1.25;font-family:'Roboto Condensed';-inkscape-font-specification:'Roboto Condensed, Bold';letter-spacing:0px;word-spacing:0px;fill:#ffffff;fill-opacity:1;stroke:none;stroke-width:0.31570283"
         id="path2144"
         inkscape:connector-curvature="0" />
      <path
         d="m 102.81949,-55.04409 1.745,0 0,1.62168 -1.745,0 0,2.50959 -1.65251,0 0,-2.50959 -1.775824,0 0,-1.62168 1.775824,0 0,-2.40477 1.65251,0 z"
         style="font-style:normal;font-variant:normal;font-weight:bold;font-stretch:normal;font-size:medium;line-height:1.25;font-family:'Roboto Condensed';-inkscape-font-specification:'Roboto Condensed, Bold';letter-spacing:0px;word-spacing:0px;fill:#ffffff;fill-opacity:1;stroke:none;stroke-width:0.31570283"
         id="path2141"
         inkscape:connector-curvature="0" />
      <path
         d="m 106.81321,-61.64299 2.70933,0 q 1.397,0 1.98967,0.4445 0.59266,0.4445 0.59266,1.48167 l 0,9.88483 q 0,1.29117 -0.52916,1.79917 -0.508,0.48683 -1.82034,0.48683 l -2.94216,0 z m 2.2225,12.48833 0.48683,0 q 0.21167,0.0212 0.27517,-0.0847 0.0635,-0.127 0.0635,-0.48684 l 0,-9.779 q 0,-0.59266 -0.40217,-0.59266 l -0.42333,0 z"
         style="font-style:normal;font-variant:normal;font-weight:normal;font-stretch:normal;font-size:21.16666603px;line-height:1.25;font-family:PermanentHeadline;-inkscape-font-specification:PermanentHeadline;letter-spacing:0px;word-spacing:0px;fill:#ffffff;fill-opacity:1;stroke:none;stroke-width:0.52998376"
         id="path2128"
         inkscape:connector-curvature="0" />
      <path
         d="m 113.01438,-61.64299 4.40267,0 0,1.73567 -2.032,0 0,4.191 2.032,0 0,1.75683 -2.032,0 0,4.65667 2.032,0 0,1.75683 -4.40267,0 z"
         style="font-style:normal;font-variant:normal;font-weight:normal;font-stretch:normal;font-size:21.16666603px;line-height:1.25;font-family:PermanentHeadline;-inkscape-font-specification:PermanentHeadline;letter-spacing:0px;word-spacing:0px;fill:#ffffff;fill-opacity:1;stroke:none;stroke-width:0.52998376"
         id="path2130"
         inkscape:connector-curvature="0" />
      <path
         d="m 118.14068,-61.64299 2.37067,0 0,12.40367 1.75683,0 0,1.69333 -4.1275,0 z"
         style="font-style:normal;font-variant:normal;font-weight:normal;font-stretch:normal;font-size:21.16666603px;line-height:1.25;font-family:PermanentHeadline;-inkscape-font-specification:PermanentHeadline;letter-spacing:0px;word-spacing:0px;fill:#ffffff;fill-opacity:1;stroke:none;stroke-width:0.52998376"
         id="path2132"
         inkscape:connector-curvature="0" />
      <path
         d="m 122.89491,-61.64299 4.40267,0 0,1.73567 -2.032,0 0,4.191 2.032,0 0,1.75683 -2.032,0 0,4.65667 2.032,0 0,1.75683 -4.40267,0 z"
         style="font-style:normal;font-variant:normal;font-weight:normal;font-stretch:normal;font-size:21.16666603px;line-height:1.25;font-family:PermanentHeadline;-inkscape-font-specification:PermanentHeadline;letter-spacing:0px;word-spacing:0px;fill:#ffffff;fill-opacity:1;stroke:none;stroke-width:0.52998376"
         id="path2134"
         inkscape:connector-curvature="0" />
      <path
         d="m 127.64022,-61.64299 4.93183,0 0,1.69333 -1.31233,0 0,12.40367 -2.286,0 0,-12.3825 -1.3335,0 z"
         style="font-style:normal;font-variant:normal;font-weight:normal;font-stretch:normal;font-size:21.16666603px;line-height:1.25;font-family:PermanentHeadline;-inkscape-font-specification:PermanentHeadline;letter-spacing:0px;word-spacing:0px;fill:#ffffff;fill-opacity:1;stroke:none;stroke-width:0.52998376"
         id="path2136"
         inkscape:connector-curvature="0" />
      <path
         d="m 133.14752,-61.64299 4.40266,0 0,1.73567 -2.032,0 0,4.191 2.032,0 0,1.75683 -2.032,0 0,4.65667 2.032,0 0,1.75683 -4.40266,0 z"
         style="font-style:normal;font-variant:normal;font-weight:normal;font-stretch:normal;font-size:21.16666603px;line-height:1.25;font-family:PermanentHeadline;-inkscape-font-specification:PermanentHeadline;letter-spacing:0px;word-spacing:0px;fill:#ffffff;fill-opacity:1;stroke:none;stroke-width:0.52998376"
         id="path2138"
         inkscape:connector-curvature="0" />
      <path
         d="m 79.673733,-47.54599 1.27,-14.097 3.556,0 1.375833,14.097 -2.243667,0 -0.359833,-3.53483 -1.354666,0 -0.338667,3.53483 z m 2.8575,-12.21317 -0.550333,7.00617 1.248833,0 z"
         style="font-style:normal;font-variant:normal;font-weight:normal;font-stretch:normal;font-size:21.16666603px;line-height:1.25;font-family:PermanentHeadline;-inkscape-font-specification:PermanentHeadline;letter-spacing:0px;word-spacing:0px;fill:#ffffff;fill-opacity:1;stroke:none;stroke-width:0.53309554"
         id="path2121"
         inkscape:connector-curvature="0" />
      <path
         d="m 86.461618,-61.64299 2.370667,0 0,12.40367 1.756833,0 0,1.69333 -4.1275,0 z"
         style="font-style:normal;font-variant:normal;font-weight:normal;font-stretch:normal;font-size:21.16666603px;line-height:1.25;font-family:PermanentHeadline;-inkscape-font-specification:PermanentHeadline;letter-spacing:0px;word-spacing:0px;fill:#ffffff;fill-opacity:1;stroke:none;stroke-width:0.53309554"
         id="path2123"
         inkscape:connector-curvature="0" />
      <path
         d="m 90.83485,-61.64299 4.931833,0 0,1.69333 -1.312333,0 0,12.40367 -2.286,0 0,-12.3825 -1.3335,0 z"
         style="font-style:normal;font-variant:normal;font-weight:normal;font-stretch:normal;font-size:21.16666603px;line-height:1.25;font-family:PermanentHeadline;-inkscape-font-specification:PermanentHeadline;letter-spacing:0px;word-spacing:0px;fill:#ffffff;fill-opacity:1;stroke:none;stroke-width:0.53309554"
         id="path2125"
         inkscape:connector-curvature="0" />
    </g>
  </g>
</svg>
